<?xml version="1.0" encoding="UTF-8" standalone="no"?>
<!-- Created with Inkscape (http://www.inkscape.org/) -->

<svg
   version="1.1"
   id="svg2"
   width="34.061813"
   height="219.84891"
   viewBox="0 0 34.061814 219.84891"
   xml:space="preserve"
   xmlns="http://www.w3.org/2000/svg"
   xmlns:svg="http://www.w3.org/2000/svg"
   xmlns:rdf="http://www.w3.org/1999/02/22-rdf-syntax-ns#"
   xmlns:cc="http://creativecommons.org/ns#"
   xmlns:dc="http://purl.org/dc/elements/1.1/"><title
     id="title1">Open Connector Graphics</title><defs
     id="defs6"><linearGradient
       id="linearGradient5590"><stop
         id="stop5592"
         offset="0"
         style="stop-color:#a91616;stop-opacity:1;" /></linearGradient><linearGradient
       id="linearGradient5660"><stop
         id="stop5662"
         offset="0"
         style="stop-color:#000000;stop-opacity:1;" /></linearGradient><style
       type="text/css"
       id="style1">
	.st0{fill:none;stroke:#000000;stroke-width:7;stroke-miterlimit:10;}
	.st1{fill:none;stroke:#000000;stroke-width:3;stroke-miterlimit:10;}
	.st2{fill:none;stroke:#000000;stroke-width:4;stroke-miterlimit:10;}
</style></defs><g
     id="g2466"
     transform="matrix(1.3333333,0,0,-1.3333333,1197.9598,2610.9871)"
     style="display:inline"><path
   d="m -876.5659,1908.6061 h 3.68302 v 36.328 h -25.51181 v -36.328 h 3.68302 z"
   style="fill:#1a1a1a;fill-opacity:1;fill-rule:nonzero;stroke:none;stroke-width:0.999999"
   id="path2672"
   clip-path="none" /><path
   d="m 946.797,382.841 h 1.778 v -4.546 h -1.778 z"
   style="fill:#ffffff;fill-opacity:1;fill-rule:nonzero;stroke:none;stroke-width:1.42573"
   id="path4080"
   clip-path="none"
   transform="matrix(0.70139421,0,0,0.70139421,-1541.9184,1660.8685)" /><path
   d="m -889.46643,1929.391 -0.006,-0.7933 h 3.49294 v -1.602 h -2.28023 l -0.005,1.0935 h -1.2078 l 0.006,-1.8867 h 3.85627 c 0.22935,0 0.42644,0.082 0.59127,0.2447 0.16413,0.1635 0.24689,0.3606 0.24689,0.5941 v 1.5115 c 0,0.2329 -0.0828,0.4307 -0.24689,0.5934 -0.16483,0.1627 -0.36122,0.2448 -0.59127,0.2448 z m 5.19803,0 v -3.1899 h 1.20921 v 2.3945 h 1.14888 v -2.3945 h 1.20219 v 2.3945 h 1.15029 v -2.3945 h 1.20639 l 7.1e-4,2.3517 c 0,0.2322 -0.0821,0.4307 -0.24479,0.5934 -0.16343,0.1627 -0.35911,0.2448 -0.58847,0.2448 z"
   style="fill:#ffffff;fill-opacity:1;fill-rule:nonzero;stroke:none;stroke-width:0.999999"
   id="path4084"
   clip-path="none" /><path
   d="m -889.99381,1929.3909 v -3.1885 h -1.26672 v 1.1425 h -2.17572 v -1.1425 h -1.24708 v 3.1885 h 1.24708 v -1.3018 h 2.17572 v 1.3018 z"
   style="fill:#ffffff;fill-opacity:1;fill-rule:nonzero;stroke:none;stroke-width:0.999999"
   id="path4088"
   clip-path="none" /><path
   d="m 946.414,405.058 h -21.47 v 17.768 h 21.47 z"
   style="fill:#d1d3d4;fill-opacity:1;fill-rule:nonzero;stroke:#000000;stroke-width:1.02458;stroke-linecap:butt;stroke-linejoin:miter;stroke-miterlimit:10;stroke-dasharray:none;stroke-opacity:1"
   id="path2806"
   clip-path="none"
   transform="matrix(0.73238984,0,0,0.7316303,-1570.9206,1648.5815)" /><path
   d="m -885.63895,1944.8924 v 1.4669 c 0,0.3871 -0.0725,0.7704 -0.21386,1.1311 l -0.41453,1.058 c -0.0879,0.2253 -0.1333,0.4653 -0.1333,0.7074 v 0.4661 c 0,0.3278 0.40428,0.4836 0.62473,0.2407 l 0.27392,-0.3022 c 0.22045,-0.2436 0.62473,-0.088 0.62473,0.24 v 2.9134 -2.7605 2.9134 c 0,0.3277 -0.40428,0.4836 -0.62473,0.2407 l -0.27392,-0.3022 c -0.22045,-0.2436 -0.62473,-0.088 -0.62473,0.2407 v 0.4661 c 0,0.2421 0.0454,0.4821 0.1333,0.7075 l 0.41453,1.0579 c 0.14135,0.36 0.21386,0.7441 0.21386,1.1311 v 1.4669"
   style="fill:none;stroke:#000000;stroke-width:0.750003;stroke-linecap:butt;stroke-linejoin:miter;stroke-miterlimit:10;stroke-dasharray:none;stroke-opacity:1"
   id="path4148"
   clip-path="none" /><path
   d="m -889.56346,1956.5248 v -2.4751"
   style="fill:none;stroke:#000000;stroke-width:0.750003;stroke-linecap:butt;stroke-linejoin:miter;stroke-miterlimit:10;stroke-dasharray:none;stroke-opacity:1"
   id="path4166"
   clip-path="none" /><path
   d="m -890.96731,1956.5248 v -2.4751"
   style="fill:none;stroke:#000000;stroke-width:0.750003;stroke-linecap:butt;stroke-linejoin:miter;stroke-miterlimit:10;stroke-dasharray:none;stroke-opacity:1"
   id="path4170"
   clip-path="none" /><path
   d="m -880.53515,1956.5248 v -2.4751"
   style="fill:none;stroke:#000000;stroke-width:0.750003;stroke-linecap:butt;stroke-linejoin:miter;stroke-miterlimit:10;stroke-dasharray:none;stroke-opacity:1"
   id="path4174"
   clip-path="none" /><path
   d="m -881.93892,1956.5248 v -2.4751"
   style="fill:none;stroke:#000000;stroke-width:0.750003;stroke-linecap:butt;stroke-linejoin:miter;stroke-miterlimit:10;stroke-dasharray:none;stroke-opacity:1"
   id="path4178"
   clip-path="none" /><rect
   style="fill:#1a1a1a;fill-opacity:1;stroke:none;stroke-width:0.750001;stroke-dasharray:none"
   id="rect182"
   width="15"
   height="115.18025"
   x="-893.13879"
   y="-1908.6062"
   transform="scale(1,-1)"
   clip-path="none" />








<style
   type="text/css"
   id="style1-5">
	.st0{fill:none;stroke:#000;stroke-width:2;}
	.st1{fill:#fff;stroke:#000;stroke-width:2;stroke-linejoin:round;}
	.st2{font-family:Liberation Sans,Arial;}
	.st3{font-size:17px;}
</style>










<!-- Outer cylindrical part --><!-- Inner optical port --><!-- Optical emitter (glowing red light) --><!-- Connector back end --><!-- Detail lines for depth --><!-- Device Panel --><!-- TOSLINK Port Cutout --><!-- Inner Optical Port --><!-- Optical Emitter (glowing red light) --><!-- Protective Cover --><!-- Detail Lines for Depth --></g><metadata
     id="metadata1"><rdf:RDF><cc:Work
         rdf:about=""><dc:title>Open Connector Graphics</dc:title><dc:date>03/04/2025</dc:date><dc:creator><cc:Agent><dc:title>Wikke Andeweg</dc:title></cc:Agent></dc:creator><dc:rights><cc:Agent><dc:title>Creative Commons Attribution 4.0 International</dc:title></cc:Agent></dc:rights><dc:source>https://github.com/WyzzyMoon/OpenConnectorGraphics</dc:source></cc:Work></rdf:RDF></metadata></svg>
