<?xml version="1.0" encoding="UTF-8" standalone="no"?>
<!-- Created with Inkscape (http://www.inkscape.org/) -->

<svg
   version="1.1"
   id="svg2"
   width="41.625866"
   height="26.113422"
   viewBox="0 0 41.625867 26.113423"
   xml:space="preserve"
   xmlns="http://www.w3.org/2000/svg"
   xmlns:svg="http://www.w3.org/2000/svg"
   xmlns:rdf="http://www.w3.org/1999/02/22-rdf-syntax-ns#"
   xmlns:cc="http://creativecommons.org/ns#"
   xmlns:dc="http://purl.org/dc/elements/1.1/"><title
     id="title1">Open Connector Graphics</title><defs
     id="defs6"><linearGradient
       id="linearGradient5590"><stop
         id="stop5592"
         offset="0"
         style="stop-color:#a91616;stop-opacity:1;" /></linearGradient><linearGradient
       id="linearGradient5660"><stop
         id="stop5662"
         offset="0"
         style="stop-color:#000000;stop-opacity:1;" /></linearGradient><style
       type="text/css"
       id="style1">
	.st0{fill:none;stroke:#000000;stroke-width:7;stroke-miterlimit:10;}
	.st1{fill:none;stroke:#000000;stroke-width:3;stroke-miterlimit:10;}
	.st2{fill:none;stroke:#000000;stroke-width:4;stroke-miterlimit:10;}
</style></defs><g
     id="g2466"
     transform="matrix(1.3333333,0,0,-1.3333333,717.39998,2684.2662)"
     style="display:inline"><path
   d="m -512.59965,1993.9877 h -19.68131 c -2.97749,0 -5.39202,2.388 -5.39202,5.3343 v 12.3902 c 0,0.6157 0.50431,1.1146 1.12663,1.1146 h 28.21208 c 0.62233,0 1.12664,-0.4989 1.12664,-1.1146 v -12.3902 c 0,-2.9463 -2.41453,-5.3343 -5.39202,-5.3343"
   style="fill:#939598;fill-opacity:1;fill-rule:nonzero;stroke:#000000;stroke-width:0.750002;stroke-dasharray:none"
   id="path3536"
   clip-path="none" /><path
   d="m -512.59965,1993.9877 h -19.68131 c -2.97749,0 -5.39202,2.388 -5.39202,5.3343 v 12.3902 c 0,0.6157 0.50431,1.1146 1.12663,1.1146 h 28.21208 c 0.62233,0 1.12664,-0.4989 1.12664,-1.1146 v -12.3902 c 0,-2.9463 -2.41453,-5.3343 -5.39202,-5.3343 z"
   style="fill:none;stroke:#000000;stroke-width:0.750002;stroke-linecap:butt;stroke-linejoin:miter;stroke-miterlimit:10;stroke-dasharray:none;stroke-opacity:1"
   id="path3540"
   clip-path="none" /><path
   d="m -511.12711,1997.0895 h -22.75702 c -0.77113,0 -1.39565,0.6186 -1.39565,1.3807 v 10.694 c 0,0.7629 0.62452,1.3815 1.39565,1.3815 h 22.75702 c 0.77113,0 1.39565,-0.6186 1.39565,-1.3815 v -10.694 c 0,-0.7621 -0.62452,-1.3807 -1.39565,-1.3807"
   style="fill:#ffffff;fill-opacity:1;fill-rule:nonzero;stroke:#000000;stroke-width:0.750002;stroke-dasharray:none"
   id="path3544"
   clip-path="none" /><path
   d="m -511.12711,1997.0895 h -22.75702 c -0.77113,0 -1.39565,0.6186 -1.39565,1.3807 v 10.694 c 0,0.7629 0.62452,1.3815 1.39565,1.3815 h 22.75702 c 0.77113,0 1.39565,-0.6186 1.39565,-1.3815 v -10.694 c 0,-0.7621 -0.62452,-1.3807 -1.39565,-1.3807 z"
   style="fill:none;stroke:#000000;stroke-width:0.750002;stroke-linecap:butt;stroke-linejoin:miter;stroke-miterlimit:10;stroke-dasharray:none;stroke-opacity:1"
   id="path3548"
   clip-path="none" /><path
   d="m -532.31248,2007.4942 v -1.0689 h 19.81765 v -5.0617 h -19.81765 v -1.1008 h 20.50595 v 0.185 0.9158 5.0617 0.7542 0.3147 z"
   style="fill:#d1d3d4;fill-opacity:1;fill-rule:nonzero;stroke:#000000;stroke-width:0.750002;stroke-dasharray:none"
   id="path3552"
   clip-path="none" /><path
   d="m -532.31248,2007.4942 v -1.0689 h 19.81765 v -5.0617 h -19.81765 v -1.1008 h 20.50595 v 0.185 0.9158 5.0617 0.7542 0.3147 z"
   style="fill:none;stroke:#000000;stroke-width:0.750002;stroke-linecap:butt;stroke-linejoin:miter;stroke-miterlimit:10;stroke-dasharray:none;stroke-opacity:1"
   id="path3556"
   clip-path="none" /><path
   d="m 1312.765,490.063 h -1.998 v 1.998 h 1.998 z"
   style="fill:#f9d640;fill-opacity:1;fill-rule:nonzero;stroke:#000000;stroke-width:0.685798;stroke-linecap:butt;stroke-linejoin:miter;stroke-miterlimit:10;stroke-dasharray:none;stroke-opacity:1"
   id="path3558"
   clip-path="none"
   transform="matrix(0.73300981,0,0,0.7251661,-1492.8659,1652.3439)" /><path
   d="m 1316.101,490.063 h -1.998 v 1.998 h 1.998 z"
   style="fill:#f9d640;fill-opacity:1;fill-rule:nonzero;stroke:#000000;stroke-width:0.685798;stroke-linecap:butt;stroke-linejoin:miter;stroke-miterlimit:10;stroke-dasharray:none;stroke-opacity:1"
   id="path3560"
   clip-path="none"
   transform="matrix(0.73300981,0,0,0.7251661,-1492.8659,1652.3439)" /><path
   d="m 1319.437,490.063 h -1.998 v 1.998 h 1.998 z"
   style="fill:#f9d640;fill-opacity:1;fill-rule:nonzero;stroke:#000000;stroke-width:0.685798;stroke-linecap:butt;stroke-linejoin:miter;stroke-miterlimit:10;stroke-dasharray:none;stroke-opacity:1"
   id="path3562"
   clip-path="none"
   transform="matrix(0.73300981,0,0,0.7251661,-1492.8659,1652.3439)" /><path
   d="m 1322.773,490.063 h -1.997 v 1.998 h 1.997 z"
   style="fill:#f9d640;fill-opacity:1;fill-rule:nonzero;stroke:#000000;stroke-width:0.685798;stroke-linecap:butt;stroke-linejoin:miter;stroke-miterlimit:10;stroke-dasharray:none;stroke-opacity:1"
   id="path3564"
   clip-path="none"
   transform="matrix(0.73300981,0,0,0.7251661,-1492.8659,1652.3439)" /><path
   d="m 1326.109,490.063 h -1.998 v 1.998 h 1.998 z"
   style="fill:#f9d640;fill-opacity:1;fill-rule:nonzero;stroke:#000000;stroke-width:0.685798;stroke-linecap:butt;stroke-linejoin:miter;stroke-miterlimit:10;stroke-dasharray:none;stroke-opacity:1"
   id="path3566"
   clip-path="none"
   transform="matrix(0.73300981,0,0,0.7251661,-1492.8659,1652.3439)" /><path
   d="m 1329.445,490.063 h -1.998 v 1.998 h 1.998 z"
   style="fill:#f9d640;fill-opacity:1;fill-rule:nonzero;stroke:#000000;stroke-width:0.685798;stroke-linecap:butt;stroke-linejoin:miter;stroke-miterlimit:10;stroke-dasharray:none;stroke-opacity:1"
   id="path3568"
   clip-path="none"
   transform="matrix(0.73300981,0,0,0.7251661,-1492.8659,1652.3439)" /><path
   d="m 1332.781,490.063 h -1.998 v 1.998 h 1.998 z"
   style="fill:#f9d640;fill-opacity:1;fill-rule:nonzero;stroke:#000000;stroke-width:0.685798;stroke-linecap:butt;stroke-linejoin:miter;stroke-miterlimit:10;stroke-dasharray:none;stroke-opacity:1"
   id="path3570"
   clip-path="none"
   transform="matrix(0.73300981,0,0,0.7251661,-1492.8659,1652.3439)" /><path
   d="m 1336.116,490.063 h -1.998 v 1.998 h 1.998 z"
   style="fill:#f9d640;fill-opacity:1;fill-rule:nonzero;stroke:#000000;stroke-width:0.685798;stroke-linecap:butt;stroke-linejoin:miter;stroke-miterlimit:10;stroke-dasharray:none;stroke-opacity:1"
   id="path3572"
   clip-path="none"
   transform="matrix(0.73300981,0,0,0.7251661,-1492.8659,1652.3439)" /><path
   d="m 1312.765,486.037 h -1.998 v 1.998 h 1.998 z"
   style="fill:#f9d640;fill-opacity:1;fill-rule:nonzero;stroke:#000000;stroke-width:0.685798;stroke-linecap:butt;stroke-linejoin:miter;stroke-miterlimit:10;stroke-dasharray:none;stroke-opacity:1"
   id="path3574"
   clip-path="none"
   transform="matrix(0.73300981,0,0,0.7251661,-1492.8659,1652.3439)" /><path
   d="m 1316.101,486.037 h -1.998 v 1.998 h 1.998 z"
   style="fill:#f9d640;fill-opacity:1;fill-rule:nonzero;stroke:#000000;stroke-width:0.685798;stroke-linecap:butt;stroke-linejoin:miter;stroke-miterlimit:10;stroke-dasharray:none;stroke-opacity:1"
   id="path3576"
   clip-path="none"
   transform="matrix(0.73300981,0,0,0.7251661,-1492.8659,1652.3439)" /><path
   d="m 1319.437,486.037 h -1.998 v 1.998 h 1.998 z"
   style="fill:#f9d640;fill-opacity:1;fill-rule:nonzero;stroke:#000000;stroke-width:0.685798;stroke-linecap:butt;stroke-linejoin:miter;stroke-miterlimit:10;stroke-dasharray:none;stroke-opacity:1"
   id="path3578"
   clip-path="none"
   transform="matrix(0.73300981,0,0,0.7251661,-1492.8659,1652.3439)" /><path
   d="m 1322.773,486.037 h -1.997 v 1.998 h 1.997 z"
   style="fill:#f9d640;fill-opacity:1;fill-rule:nonzero;stroke:#000000;stroke-width:0.685798;stroke-linecap:butt;stroke-linejoin:miter;stroke-miterlimit:10;stroke-dasharray:none;stroke-opacity:1"
   id="path3580"
   clip-path="none"
   transform="matrix(0.73300981,0,0,0.7251661,-1492.8659,1652.3439)" /><path
   d="m 1326.109,486.037 h -1.998 v 1.998 h 1.998 z"
   style="fill:#f9d640;fill-opacity:1;fill-rule:nonzero;stroke:#000000;stroke-width:0.685798;stroke-linecap:butt;stroke-linejoin:miter;stroke-miterlimit:10;stroke-dasharray:none;stroke-opacity:1"
   id="path3582"
   clip-path="none"
   transform="matrix(0.73300981,0,0,0.7251661,-1492.8659,1652.3439)" /><path
   d="m 1329.445,486.037 h -1.998 v 1.998 h 1.998 z"
   style="fill:#f9d640;fill-opacity:1;fill-rule:nonzero;stroke:#000000;stroke-width:0.685798;stroke-linecap:butt;stroke-linejoin:miter;stroke-miterlimit:10;stroke-dasharray:none;stroke-opacity:1"
   id="path3584"
   clip-path="none"
   transform="matrix(0.73300981,0,0,0.7251661,-1492.8659,1652.3439)" /><path
   d="m 1332.781,486.037 h -1.998 v 1.998 h 1.998 z"
   style="fill:#f9d640;fill-opacity:1;fill-rule:nonzero;stroke:#000000;stroke-width:0.685798;stroke-linecap:butt;stroke-linejoin:miter;stroke-miterlimit:10;stroke-dasharray:none;stroke-opacity:1"
   id="path3586"
   clip-path="none"
   transform="matrix(0.73300981,0,0,0.7251661,-1492.8659,1652.3439)" /><path
   d="m 1336.116,486.037 h -1.998 v 1.998 h 1.998 z"
   style="fill:#f9d640;fill-opacity:1;fill-rule:nonzero;stroke:#000000;stroke-width:0.685798;stroke-linecap:butt;stroke-linejoin:miter;stroke-miterlimit:10;stroke-dasharray:none;stroke-opacity:1"
   id="path3588"
   clip-path="none"
   transform="matrix(0.73300981,0,0,0.7251661,-1492.8659,1652.3439)" /><path
   d="m 1312.765,481.551 h -1.998 v 1.998 h 1.998 z"
   style="fill:#f9d640;fill-opacity:1;fill-rule:nonzero;stroke:#000000;stroke-width:0.685798;stroke-linecap:butt;stroke-linejoin:miter;stroke-miterlimit:10;stroke-dasharray:none;stroke-opacity:1"
   id="path3590"
   clip-path="none"
   transform="matrix(0.73300981,0,0,0.7251661,-1492.8659,1652.3439)" /><path
   d="m 1316.101,481.551 h -1.998 v 1.998 h 1.998 z"
   style="fill:#f9d640;fill-opacity:1;fill-rule:nonzero;stroke:#000000;stroke-width:0.685798;stroke-linecap:butt;stroke-linejoin:miter;stroke-miterlimit:10;stroke-dasharray:none;stroke-opacity:1"
   id="path3592"
   clip-path="none"
   transform="matrix(0.73300981,0,0,0.7251661,-1492.8659,1652.3439)" /><path
   d="m 1319.437,481.551 h -1.998 v 1.998 h 1.998 z"
   style="fill:#f9d640;fill-opacity:1;fill-rule:nonzero;stroke:#000000;stroke-width:0.685798;stroke-linecap:butt;stroke-linejoin:miter;stroke-miterlimit:10;stroke-dasharray:none;stroke-opacity:1"
   id="path3594"
   clip-path="none"
   transform="matrix(0.73300981,0,0,0.7251661,-1492.8659,1652.3439)" /><path
   d="m 1322.773,481.551 h -1.997 v 1.998 h 1.997 z"
   style="fill:#f9d640;fill-opacity:1;fill-rule:nonzero;stroke:#000000;stroke-width:0.685798;stroke-linecap:butt;stroke-linejoin:miter;stroke-miterlimit:10;stroke-dasharray:none;stroke-opacity:1"
   id="path3596"
   clip-path="none"
   transform="matrix(0.73300981,0,0,0.7251661,-1492.8659,1652.3439)" /><path
   d="m 1326.109,481.551 h -1.998 v 1.998 h 1.998 z"
   style="fill:#f9d640;fill-opacity:1;fill-rule:nonzero;stroke:#000000;stroke-width:0.685798;stroke-linecap:butt;stroke-linejoin:miter;stroke-miterlimit:10;stroke-dasharray:none;stroke-opacity:1"
   id="path3598"
   clip-path="none"
   transform="matrix(0.73300981,0,0,0.7251661,-1492.8659,1652.3439)" /><path
   d="m 1329.445,481.551 h -1.998 v 1.998 h 1.998 z"
   style="fill:#f9d640;fill-opacity:1;fill-rule:nonzero;stroke:#000000;stroke-width:0.685798;stroke-linecap:butt;stroke-linejoin:miter;stroke-miterlimit:10;stroke-dasharray:none;stroke-opacity:1"
   id="path3600"
   clip-path="none"
   transform="matrix(0.73300981,0,0,0.7251661,-1492.8659,1652.3439)" /><path
   d="m 1332.781,481.551 h -1.998 v 1.998 h 1.998 z"
   style="fill:#f9d640;fill-opacity:1;fill-rule:nonzero;stroke:#000000;stroke-width:0.685798;stroke-linecap:butt;stroke-linejoin:miter;stroke-miterlimit:10;stroke-dasharray:none;stroke-opacity:1"
   id="path3602"
   clip-path="none"
   transform="matrix(0.73300981,0,0,0.7251661,-1492.8659,1652.3439)" /><path
   d="m 1336.116,481.551 h -1.998 v 1.998 h 1.998 z"
   style="fill:#f9d640;fill-opacity:1;fill-rule:nonzero;stroke:#000000;stroke-width:0.685798;stroke-linecap:butt;stroke-linejoin:miter;stroke-miterlimit:10;stroke-dasharray:none;stroke-opacity:1"
   id="path3604"
   clip-path="none"
   transform="matrix(0.73300981,0,0,0.7251661,-1492.8659,1652.3439)" /><path
   d="m 1312.765,477.525 h -1.998 v 1.998 h 1.998 z"
   style="fill:#f9d640;fill-opacity:1;fill-rule:nonzero;stroke:#000000;stroke-width:0.685798;stroke-linecap:butt;stroke-linejoin:miter;stroke-miterlimit:10;stroke-dasharray:none;stroke-opacity:1"
   id="path3606"
   clip-path="none"
   transform="matrix(0.73300981,0,0,0.7251661,-1492.8659,1652.3439)" /><path
   d="m 1316.101,477.525 h -1.998 v 1.998 h 1.998 z"
   style="fill:#f9d640;fill-opacity:1;fill-rule:nonzero;stroke:#000000;stroke-width:0.685798;stroke-linecap:butt;stroke-linejoin:miter;stroke-miterlimit:10;stroke-dasharray:none;stroke-opacity:1"
   id="path3608"
   clip-path="none"
   transform="matrix(0.73300981,0,0,0.7251661,-1492.8659,1652.3439)" /><path
   d="m 1319.437,477.525 h -1.998 v 1.998 h 1.998 z"
   style="fill:#f9d640;fill-opacity:1;fill-rule:nonzero;stroke:#000000;stroke-width:0.685798;stroke-linecap:butt;stroke-linejoin:miter;stroke-miterlimit:10;stroke-dasharray:none;stroke-opacity:1"
   id="path3610"
   clip-path="none"
   transform="matrix(0.73300981,0,0,0.7251661,-1492.8659,1652.3439)" /><path
   d="m 1322.773,477.525 h -1.997 v 1.998 h 1.997 z"
   style="fill:#f9d640;fill-opacity:1;fill-rule:nonzero;stroke:#000000;stroke-width:0.685798;stroke-linecap:butt;stroke-linejoin:miter;stroke-miterlimit:10;stroke-dasharray:none;stroke-opacity:1"
   id="path3612"
   clip-path="none"
   transform="matrix(0.73300981,0,0,0.7251661,-1492.8659,1652.3439)" /><path
   d="m 1326.109,477.525 h -1.998 v 1.998 h 1.998 z"
   style="fill:#f9d640;fill-opacity:1;fill-rule:nonzero;stroke:#000000;stroke-width:0.685798;stroke-linecap:butt;stroke-linejoin:miter;stroke-miterlimit:10;stroke-dasharray:none;stroke-opacity:1"
   id="path3614"
   clip-path="none"
   transform="matrix(0.73300981,0,0,0.7251661,-1492.8659,1652.3439)" /><path
   d="m 1329.445,477.525 h -1.998 v 1.998 h 1.998 z"
   style="fill:#f9d640;fill-opacity:1;fill-rule:nonzero;stroke:#000000;stroke-width:0.685798;stroke-linecap:butt;stroke-linejoin:miter;stroke-miterlimit:10;stroke-dasharray:none;stroke-opacity:1"
   id="path3616"
   clip-path="none"
   transform="matrix(0.73300981,0,0,0.7251661,-1492.8659,1652.3439)" /><path
   d="m 1332.781,477.525 h -1.998 v 1.998 h 1.998 z"
   style="fill:#f9d640;fill-opacity:1;fill-rule:nonzero;stroke:#000000;stroke-width:0.685798;stroke-linecap:butt;stroke-linejoin:miter;stroke-miterlimit:10;stroke-dasharray:none;stroke-opacity:1"
   id="path3618"
   clip-path="none"
   transform="matrix(0.73300981,0,0,0.7251661,-1492.8659,1652.3439)" /><path
   d="m 1336.116,477.525 h -1.998 v 1.998 h 1.998 z"
   style="fill:#f9d640;fill-opacity:1;fill-rule:nonzero;stroke:#000000;stroke-width:0.685798;stroke-linecap:butt;stroke-linejoin:miter;stroke-miterlimit:10;stroke-dasharray:none;stroke-opacity:1"
   id="path3620"
   clip-path="none"
   transform="matrix(0.73300981,0,0,0.7251661,-1492.8659,1652.3439)" />








<style
   type="text/css"
   id="style1-5">
	.st0{fill:none;stroke:#000;stroke-width:2;}
	.st1{fill:#fff;stroke:#000;stroke-width:2;stroke-linejoin:round;}
	.st2{font-family:Liberation Sans,Arial;}
	.st3{font-size:17px;}
</style>










<!-- Outer cylindrical part --><!-- Inner optical port --><!-- Optical emitter (glowing red light) --><!-- Connector back end --><!-- Detail lines for depth --><!-- Device Panel --><!-- TOSLINK Port Cutout --><!-- Inner Optical Port --><!-- Optical Emitter (glowing red light) --><!-- Protective Cover --><!-- Detail Lines for Depth --></g><metadata
     id="metadata1"><rdf:RDF><cc:Work
         rdf:about=""><dc:title>Open Connector Graphics</dc:title><dc:date>03/04/2025</dc:date><dc:creator><cc:Agent><dc:title>Wikke Andeweg</dc:title></cc:Agent></dc:creator><dc:rights><cc:Agent><dc:title>Creative Commons Attribution 4.0 International</dc:title></cc:Agent></dc:rights><dc:source>https://github.com/WyzzyMoon/OpenConnectorGraphics</dc:source></cc:Work></rdf:RDF></metadata></svg>
