<?xml version="1.0" encoding="UTF-8" standalone="no"?>
<!-- Created with Inkscape (http://www.inkscape.org/) -->

<svg
   version="1.1"
   id="svg2"
   width="103.40831"
   height="42.998962"
   viewBox="0 0 103.40831 42.998963"
   xml:space="preserve"
   xmlns="http://www.w3.org/2000/svg"
   xmlns:svg="http://www.w3.org/2000/svg"
   xmlns:rdf="http://www.w3.org/1999/02/22-rdf-syntax-ns#"
   xmlns:cc="http://creativecommons.org/ns#"
   xmlns:dc="http://purl.org/dc/elements/1.1/"><title
     id="title1">Open Connector Graphics</title><defs
     id="defs6"><linearGradient
       id="linearGradient5590"><stop
         id="stop5592"
         offset="0"
         style="stop-color:#a91616;stop-opacity:1;" /></linearGradient><linearGradient
       id="linearGradient5660"><stop
         id="stop5662"
         offset="0"
         style="stop-color:#000000;stop-opacity:1;" /></linearGradient><style
       type="text/css"
       id="style1">
	.st0{fill:none;stroke:#000000;stroke-width:7;stroke-miterlimit:10;}
	.st1{fill:none;stroke:#000000;stroke-width:3;stroke-miterlimit:10;}
	.st2{fill:none;stroke:#000000;stroke-width:4;stroke-miterlimit:10;}
</style></defs><g
     id="g2466"
     transform="matrix(1.3333333,0,0,-1.3333333,-1859.6944,2701.1517)"
     style="display:inline">








<style
   type="text/css"
   id="style1-5">
	.st0{fill:none;stroke:#000;stroke-width:2;}
	.st1{fill:#fff;stroke:#000;stroke-width:2;stroke-linejoin:round;}
	.st2{font-family:Liberation Sans,Arial;}
	.st3{font-size:17px;}
</style>










<path
   d="m 1471.9511,1997.9544 c 0,-2.1888 -1.7749,-3.9647 -3.9665,-3.9647 h -68.8725 c -2.1916,0 -3.9666,1.7759 -3.9666,3.9647 v 23.5693 c 0,2.1914 1.775,3.9652 3.9666,3.9652 h 68.8731 c 2.1916,0 3.9666,-1.7738 3.9666,-3.9652 v -23.5693 z"
   style="fill:#d1d3d4;fill-opacity:1;stroke:#000000;stroke-width:0.75;stroke-dasharray:none"
   id="path2239"
   clip-path="none" /><ellipse
   cx="1402.5531"
   cy="-2009.738"
   style="fill:none;stroke:#000000;stroke-width:0.750003;stroke-dasharray:none"
   id="circle2265"
   transform="scale(1,-1)"
   rx="3.3412499"
   ry="3.3401282"
   clip-path="none" /><ellipse
   cx="1464.5441"
   cy="-2009.738"
   style="fill:none;stroke:#000000;stroke-width:0.750003;stroke-dasharray:none"
   id="circle2267"
   transform="scale(1,-1)"
   rx="3.3412499"
   ry="3.3401282"
   clip-path="none" /><path
   d="m 1419.183,1998.6622 c -2.898,0 -5.4034,2.0652 -5.9581,4.9104 l -2.0144,10.3582 c -0.3281,1.6906 0.1117,3.4236 1.2063,4.7522 1.0961,1.3293 2.7123,2.0919 4.4339,2.0919 h 33.3953 c 1.7216,0 3.3371,-0.7626 4.4324,-2.0919 1.0953,-1.3286 1.5359,-3.0616 1.2078,-4.7522 l -2.0151,-10.3582 c -0.554,-2.8452 -3.0602,-4.9104 -5.9582,-4.9104 z"
   style="fill:#d1d3d4;fill-opacity:1;fill-rule:nonzero;stroke:#000000;stroke-width:0.75;stroke-dasharray:none"
   id="path2488-8"
   clip-path="none" /><path
   d="m 1419.183,1999.8424 c -2.3346,0 -4.3529,1.6638 -4.7991,3.9565 l -2.0136,10.3574 c -0.2612,1.3435 0.087,2.72 0.9584,3.7755 0.8695,1.057 2.1537,1.6622 3.522,1.6622 h 33.3953 c 1.3683,0 2.6525,-0.6052 3.522,-1.6622 0.871,-1.0555 1.2196,-2.432 0.9584,-3.7755 l -2.0152,-10.3574 c -0.4453,-2.2927 -2.4636,-3.9565 -4.7975,-3.9565 z"
   style="fill:#578a6f;fill-opacity:1;fill-rule:nonzero;stroke:#000000;stroke-width:0.75;stroke-dasharray:none"
   id="path3914-0"
   clip-path="none" /><path
   d="m 1418.9766,2015.4296 c 0.9647,0 1.7478,-0.782 1.7478,-1.7472 0,-0.9652 -0.7831,-1.7465 -1.7478,-1.7465 -0.9625,0 -1.7455,0.782 -1.7455,1.7465 0,0.9644 0.783,1.7472 1.7455,1.7472 z"
   style="fill:#f9d640;fill-opacity:1;stroke:#000000;stroke-width:0.75;stroke-dasharray:none"
   id="path2281"
   clip-path="none" /><ellipse
   cx="1426.267"
   cy="-2013.6835"
   style="fill:#f9d640;fill-opacity:1;stroke:#000000;stroke-width:0.75;stroke-dasharray:none"
   id="circle2283"
   transform="scale(1,-1)"
   rx="1.7466694"
   ry="1.7460829"
   clip-path="none" /><ellipse
   cx="1422.6229"
   cy="-2006.3212"
   style="fill:#f9d640;fill-opacity:1;stroke:#000000;stroke-width:0.75;stroke-dasharray:none"
   id="circle2291"
   transform="scale(1,-1)"
   rx="1.7466694"
   ry="1.7460829"
   clip-path="none" /><ellipse
   cx="1440.843"
   cy="-2013.6835"
   style="fill:#f9d640;fill-opacity:1;stroke:#000000;stroke-width:0.75;stroke-dasharray:none"
   id="circle2293"
   transform="scale(1,-1)"
   rx="1.7466694"
   ry="1.7460829"
   clip-path="none" /><ellipse
   cx="1433.5537"
   cy="-2013.6848"
   style="fill:#f9d640;fill-opacity:1;stroke:#000000;stroke-width:0.75;stroke-dasharray:none"
   id="circle2295"
   transform="scale(1,-1)"
   rx="1.7466694"
   ry="1.7460829"
   clip-path="none" /><ellipse
   cx="1437.2003"
   cy="-2006.3225"
   style="fill:#f9d640;fill-opacity:1;stroke:#000000;stroke-width:0.75;stroke-dasharray:none"
   id="circle2297"
   transform="scale(1,-1)"
   rx="1.7466694"
   ry="1.7460829"
   clip-path="none" /><path
   d="m 1448.1295,2015.4309 c 0.9664,0 1.7479,-0.782 1.7479,-1.7464 0,-0.9637 -0.7815,-1.7457 -1.7479,-1.7457 -0.9624,0 -1.7455,0.782 -1.7455,1.7457 -6e-4,0.9644 0.7823,1.7464 1.7455,1.7464 z"
   style="fill:#f9d640;fill-opacity:1;stroke:#000000;stroke-width:0.75;stroke-dasharray:none"
   id="path2299"
   clip-path="none" /><ellipse
   cx="1444.4838"
   cy="-2006.3239"
   style="fill:#f9d640;fill-opacity:1;stroke:#000000;stroke-width:0.75;stroke-dasharray:none"
   id="circle2301"
   transform="scale(1,-1)"
   rx="1.7466694"
   ry="1.7460829"
   clip-path="none" /><ellipse
   cx="1429.9103"
   cy="-2006.3212"
   style="fill:#f9d640;fill-opacity:1;stroke:#000000;stroke-width:0.75;stroke-dasharray:none"
   id="circle2303"
   transform="scale(1,-1)"
   rx="1.7466694"
   ry="1.7460829"
   clip-path="none" /><!-- Outer cylindrical part --><!-- Inner optical port --><!-- Optical emitter (glowing red light) --><!-- Connector back end --><!-- Detail lines for depth --><!-- Device Panel --><!-- TOSLINK Port Cutout --><!-- Inner Optical Port --><!-- Optical Emitter (glowing red light) --><!-- Protective Cover --><!-- Detail Lines for Depth --></g><metadata
     id="metadata1"><rdf:RDF><cc:Work
         rdf:about=""><dc:title>Open Connector Graphics</dc:title><dc:date>03/04/2025</dc:date><dc:creator><cc:Agent><dc:title>Wikke Andeweg</dc:title></cc:Agent></dc:creator><dc:rights><cc:Agent><dc:title>Creative Commons Attribution 4.0 International</dc:title></cc:Agent></dc:rights><dc:source>https://github.com/WyzzyMoon/OpenConnectorGraphics</dc:source></cc:Work></rdf:RDF></metadata></svg>
