<?xml version="1.0" encoding="UTF-8" standalone="no"?>
<!-- Created with Inkscape (http://www.inkscape.org/) -->

<svg
   version="1.1"
   id="svg2"
   width="142.00432"
   height="219.89861"
   viewBox="0 0 142.00432 219.89861"
   xml:space="preserve"
   xmlns="http://www.w3.org/2000/svg"
   xmlns:svg="http://www.w3.org/2000/svg"
   xmlns:rdf="http://www.w3.org/1999/02/22-rdf-syntax-ns#"
   xmlns:cc="http://creativecommons.org/ns#"
   xmlns:dc="http://purl.org/dc/elements/1.1/"><title
     id="title1">Open Connector Graphics</title><defs
     id="defs6"><linearGradient
       id="linearGradient5590"><stop
         id="stop5592"
         offset="0"
         style="stop-color:#a91616;stop-opacity:1;" /></linearGradient><linearGradient
       id="linearGradient5660"><stop
         id="stop5662"
         offset="0"
         style="stop-color:#000000;stop-opacity:1;" /></linearGradient><style
       type="text/css"
       id="style1">
	.st0{fill:none;stroke:#000000;stroke-width:7;stroke-miterlimit:10;}
	.st1{fill:none;stroke:#000000;stroke-width:3;stroke-miterlimit:10;}
	.st2{fill:none;stroke:#000000;stroke-width:4;stroke-miterlimit:10;}
</style></defs><g
     id="g2466"
     transform="matrix(1.3333333,0,0,-1.3333333,910.62092,2611.0778)"
     style="display:inline"><rect
   style="fill:#231f20;fill-opacity:1;stroke:#000000;stroke-width:0.750001;stroke-dasharray:none;stroke-opacity:1"
   id="rect186"
   width="12.849434"
   height="70.460838"
   x="-636.17572"
   y="-1863.8867"
   transform="scale(1,-1)"
   clip-path="none" /><rect
   style="fill:#1a1a1a;fill-opacity:1;stroke:none;stroke-width:0.750001;stroke-dasharray:none;stroke-opacity:1"
   id="rect185"
   width="18.75"
   height="70.460838"
   x="-639.12604"
   y="-1863.8867"
   transform="scale(1,-1)"
   clip-path="none" /><path
   d="m 1238.594,409.002 h -81.56 v 20.833 h 81.56 z"
   style="fill:#d1d3d4;fill-opacity:1;fill-rule:nonzero;stroke:#000000;stroke-width:0.911739;stroke-linecap:butt;stroke-linejoin:miter;stroke-miterlimit:10;stroke-dasharray:none;stroke-opacity:1"
   id="path2788"
   clip-path="none"
   transform="matrix(0.82493254,0,0,0.82028263,-1617.8668,1605.3485)" /><path
   d="m -577.10179,1863.0796 h -105.29882 v 78.9041 h 105.29882 z"
   style="fill:#ffffff;fill-opacity:1;fill-rule:nonzero;stroke:#000000;stroke-width:0.999997;stroke-linecap:butt;stroke-linejoin:miter;stroke-miterlimit:10;stroke-dasharray:none;stroke-opacity:1"
   id="path2468"
   clip-path="none" /><path
   d="m 1148.552,315.367 h -5.131 v 6.008 h 5.131 z"
   style="fill:#d1d3d4;fill-opacity:1;fill-rule:nonzero;stroke:#000000;stroke-width:1.11063;stroke-linecap:butt;stroke-linejoin:miter;stroke-miterlimit:10;stroke-dasharray:none;stroke-opacity:1"
   id="path2780"
   clip-path="none"
   transform="matrix(0.90031311,0,0,0.90045528,-1708.428,1573.6958)" /><path
   d="m 1252.805,315.367 h -5.131 v 6.008 h 5.131 z"
   style="fill:#d1d3d4;fill-opacity:1;fill-rule:nonzero;stroke:#000000;stroke-width:1.11063;stroke-linecap:butt;stroke-linejoin:miter;stroke-miterlimit:10;stroke-dasharray:none;stroke-opacity:1"
   id="path2782"
   clip-path="none"
   transform="matrix(0.90031311,0,0,0.90045528,-1708.428,1573.6958)" /><path
   d="m 1148.552,409.002 h -5.131 v 6.008 h 5.131 z"
   style="fill:#d1d3d4;fill-opacity:1;fill-rule:nonzero;stroke:#000000;stroke-width:1.11063;stroke-linecap:butt;stroke-linejoin:miter;stroke-miterlimit:10;stroke-dasharray:none;stroke-opacity:1"
   id="path2784"
   clip-path="none"
   transform="matrix(0.90031311,0,0,0.90045528,-1708.428,1573.6958)" /><path
   d="m 1252.805,409.002 h -5.131 v 6.008 h 5.131 z"
   style="fill:#d1d3d4;fill-opacity:1;fill-rule:nonzero;stroke:#000000;stroke-width:1.11063;stroke-linecap:butt;stroke-linejoin:miter;stroke-miterlimit:10;stroke-dasharray:none;stroke-opacity:1"
   id="path2786"
   clip-path="none"
   transform="matrix(0.90031311,0,0,0.90045528,-1708.428,1573.6958)" /><path
   d="m -577.1018,1941.9837 h -11.01623 -83.80565 -10.47694 v -11.5763 h 10.47694 v -50.3273 l 8.57999,-17.0006 v -10.7856 c 0,-3.1715 2.57039,-5.7423 5.74129,-5.7423 h 55.16399 c 3.17,0 5.74039,2.5708 5.74039,5.7423 v 10.7856 l 8.57999,17.0006 v 50.3273 h 11.01623 z"
   style="fill:#ffffff;fill-opacity:1;fill-rule:nonzero;stroke:#000000;stroke-width:0.999994;stroke-opacity:1"
   id="path4240"
   clip-path="none" /><path
   d="m -577.1018,1941.9837 h -11.01623 -83.80565 -10.47694 v -11.5763 h 10.47694 v -50.3273 l 8.57999,-17.0006 v -10.7856 c 0,-3.1715 2.57039,-5.7423 5.74129,-5.7423 h 55.16399 c 3.17,0 5.74039,2.5708 5.74039,5.7423 v 10.7856 l 8.57999,17.0006 v 50.3273 h 11.01623 z"
   style="fill:none;stroke:#000000;stroke-width:0.999994;stroke-linecap:butt;stroke-linejoin:miter;stroke-miterlimit:10;stroke-dasharray:none;stroke-opacity:1"
   id="path4244"
   clip-path="none" /><path
   d="m -588.54073,1857.6697 v -8.3112 l 1.03716,-28.4265 h 9.36506 l 1.03716,28.4265 v 8.3112 z"
   style="fill:#ffffff;fill-opacity:1;fill-rule:nonzero;stroke:#000000;stroke-width:0.999994;stroke-opacity:1"
   id="path4248"
   clip-path="none" /><path
   d="m -588.54073,1857.6697 v -8.3112 l 1.03716,-28.4265 h 9.36506 l 1.03716,28.4265 v 8.3112 z"
   style="fill:none;stroke:#000000;stroke-width:0.999994;stroke-linecap:butt;stroke-linejoin:miter;stroke-miterlimit:10;stroke-dasharray:none;stroke-opacity:1"
   id="path4252"
   clip-path="none" /><path
   d="m -682.40062,1857.6697 v -8.3112 l 1.03716,-28.4265 h 9.36506 l 1.03716,28.4265 v 8.3112 z"
   style="fill:#ffffff;fill-opacity:1;fill-rule:nonzero;stroke:#000000;stroke-width:0.999994;stroke-opacity:1"
   id="path4256"
   clip-path="none" /><path
   d="m -682.40062,1857.6697 v -8.3112 l 1.03716,-28.4265 h 9.36506 l 1.03716,28.4265 v 8.3112 z"
   style="fill:none;stroke:#000000;stroke-width:0.999994;stroke-linecap:butt;stroke-linejoin:miter;stroke-miterlimit:10;stroke-dasharray:none;stroke-opacity:1"
   id="path4260"
   clip-path="none" /><path
   d="m -613.07669,1825.1549 v 4.7283 h 2.44615 v 4.6887 h -2.44615 v 4.7292 h 2.44615 v 7.2504 h -38.78009 v -7.2504 h 2.25439 v -4.7292 h -2.25439 v -4.6887 h 2.25439 v -4.7283 h -2.25439 v -1.7298 c 0,-1.3768 1.11639,-2.4933 2.49297,-2.4933 h 33.79415 c 1.37658,0 2.49297,1.1165 2.49297,2.4933 v 1.7298 z"
   style="fill:#ffffff;fill-opacity:1;fill-rule:nonzero;stroke:#000000;stroke-width:0.999994;stroke-opacity:1"
   id="path4264"
   clip-path="none" /><path
   d="m -613.07669,1825.1549 v 4.7283 h 2.44615 v 4.6887 h -2.44615 v 4.7292 h 2.44615 v 7.2504 h -38.78009 v -7.2504 h 2.25439 v -4.7292 h -2.25439 v -4.6887 h 2.25439 v -4.7283 h -2.25439 v -1.7298 c 0,-1.3768 1.11639,-2.4933 2.49297,-2.4933 h 33.79415 c 1.37658,0 2.49297,1.1165 2.49297,2.4933 v 1.7298 z"
   style="fill:none;stroke:#000000;stroke-width:0.999994;stroke-linecap:butt;stroke-linejoin:miter;stroke-miterlimit:10;stroke-dasharray:none;stroke-opacity:1"
   id="path4268"
   clip-path="none" /><path
   d="m -678.99068,1947.3939 4.61951,-1.9333"
   style="fill:#d1d3d4;fill-opacity:1;fill-rule:nonzero;stroke:#000000;stroke-width:0.999994;stroke-linecap:butt;stroke-linejoin:miter;stroke-miterlimit:10;stroke-dasharray:none;stroke-opacity:1"
   id="path4272"
   clip-path="none" /><path
   d="m -678.99068,1945.7247 4.61951,-1.9333"
   style="fill:#d1d3d4;fill-opacity:1;fill-rule:nonzero;stroke:#000000;stroke-width:0.999994;stroke-linecap:butt;stroke-linejoin:miter;stroke-miterlimit:10;stroke-dasharray:none;stroke-opacity:1"
   id="path4276"
   clip-path="none" /><path
   d="m -678.99068,1943.9174 4.61951,-1.9333"
   style="fill:#d1d3d4;fill-opacity:1;fill-rule:nonzero;stroke:#000000;stroke-width:0.999994;stroke-linecap:butt;stroke-linejoin:miter;stroke-miterlimit:10;stroke-dasharray:none;stroke-opacity:1"
   id="path4280"
   clip-path="none" /><path
   d="m -585.1308,1947.3939 4.61951,-1.9333"
   style="fill:#d1d3d4;fill-opacity:1;fill-rule:nonzero;stroke:#000000;stroke-width:0.999994;stroke-linecap:butt;stroke-linejoin:miter;stroke-miterlimit:10;stroke-dasharray:none;stroke-opacity:1"
   id="path4284"
   clip-path="none" /><path
   d="m -585.1308,1945.7247 4.61951,-1.9333"
   style="fill:#d1d3d4;fill-opacity:1;fill-rule:nonzero;stroke:#000000;stroke-width:0.999994;stroke-linecap:butt;stroke-linejoin:miter;stroke-miterlimit:10;stroke-dasharray:none;stroke-opacity:1"
   id="path4288"
   clip-path="none" /><path
   d="m -585.1308,1943.9174 4.61951,-1.9333"
   style="fill:#d1d3d4;fill-opacity:1;fill-rule:nonzero;stroke:#000000;stroke-width:0.999994;stroke-linecap:butt;stroke-linejoin:miter;stroke-miterlimit:10;stroke-dasharray:none;stroke-opacity:1"
   id="path4292"
   clip-path="none" /><path
   d="m -617.99645,1925.3109 h -21.32302 c -5.36316,0 -9.72608,-4.3636 -9.72608,-9.7276 v -4.197 h 2.41554 v 4.197 c 0,4.0313 3.27984,7.3117 7.31054,7.3117 h 21.32302 c 4.0307,0 7.31054,-3.2804 7.31054,-7.3117 v -7.7655 c 0,-4.0314 -3.27984,-7.3117 -7.31054,-7.3117 h -21.32302 c -3.07186,0 -5.70168,1.9071 -6.78205,4.5977 h -2.55149 c 1.17851,-4.0458 4.91301,-7.0137 9.33354,-7.0137 h 21.32302 c 5.36317,0 9.72608,4.3636 9.72608,9.7277 v 7.7655 c 0,5.364 -4.36291,9.7276 -9.72608,9.7276"
   style="fill:#231f20;fill-opacity:1;fill-rule:nonzero;stroke:none;stroke-width:0.999994;stroke-opacity:1"
   id="path4300"
   clip-path="none" /><path
   d="m -615.99965,1908.2452 -6.09422,3.519 v -2.3106 h -4.76446 v 8.1248 h -13.31473 v -8.1248 h -11.05854 v -2.4168 h 13.47498 v 8.1248 h 8.48275 v -8.1248 h 7.18 v -2.3106 z"
   style="fill:#231f20;fill-opacity:1;fill-rule:nonzero;stroke:none;stroke-width:0.999994;stroke-opacity:1"
   id="path4304"
   clip-path="none" />








<style
   type="text/css"
   id="style1-5">
	.st0{fill:none;stroke:#000;stroke-width:2;}
	.st1{fill:#fff;stroke:#000;stroke-width:2;stroke-linejoin:round;}
	.st2{font-family:Liberation Sans,Arial;}
	.st3{font-size:17px;}
</style>










<!-- Outer cylindrical part --><!-- Inner optical port --><!-- Optical emitter (glowing red light) --><!-- Connector back end --><!-- Detail lines for depth --><!-- Device Panel --><!-- TOSLINK Port Cutout --><!-- Inner Optical Port --><!-- Optical Emitter (glowing red light) --><!-- Protective Cover --><!-- Detail Lines for Depth --></g><metadata
     id="metadata1"><rdf:RDF><cc:Work
         rdf:about=""><dc:title>Open Connector Graphics</dc:title><dc:date>03/04/2025</dc:date><dc:creator><cc:Agent><dc:title>Wikke Andeweg</dc:title></cc:Agent></dc:creator><dc:rights><cc:Agent><dc:title>Creative Commons Attribution 4.0 International</dc:title></cc:Agent></dc:rights><dc:source>https://github.com/WyzzyMoon/OpenConnectorGraphics</dc:source></cc:Work></rdf:RDF></metadata></svg>
