<?xml version="1.0" encoding="UTF-8" standalone="no"?>
<!-- Created with Inkscape (http://www.inkscape.org/) -->

<svg
   version="1.1"
   id="svg2"
   width="155.89259"
   height="377.62595"
   viewBox="0 0 155.8926 377.62595"
   xml:space="preserve"
   xmlns="http://www.w3.org/2000/svg"
   xmlns:svg="http://www.w3.org/2000/svg"
   xmlns:rdf="http://www.w3.org/1999/02/22-rdf-syntax-ns#"
   xmlns:cc="http://creativecommons.org/ns#"
   xmlns:dc="http://purl.org/dc/elements/1.1/"><title
     id="title1">Open Connector Graphics</title><defs
     id="defs6"><linearGradient
       id="linearGradient5590"><stop
         id="stop5592"
         offset="0"
         style="stop-color:#a91616;stop-opacity:1;" /></linearGradient><linearGradient
       id="linearGradient5660"><stop
         id="stop5662"
         offset="0"
         style="stop-color:#000000;stop-opacity:1;" /></linearGradient><style
       type="text/css"
       id="style1">
	.st0{fill:none;stroke:#000000;stroke-width:7;stroke-miterlimit:10;}
	.st1{fill:none;stroke:#000000;stroke-width:3;stroke-miterlimit:10;}
	.st2{fill:none;stroke:#000000;stroke-width:4;stroke-miterlimit:10;}
</style></defs><g
     id="g2466"
     transform="matrix(1.3333333,0,0,-1.3333333,-315.36025,2610.1231)"
     style="display:inline">








<style
   type="text/css"
   id="style1-5">
	.st0{fill:none;stroke:#000;stroke-width:2;}
	.st1{fill:#fff;stroke:#000;stroke-width:2;stroke-linejoin:round;}
	.st2{font-family:Liberation Sans,Arial;}
	.st3{font-size:17px;}
</style>










<path
   id="rect275"
   style="fill:#1a1a1a;fill-opacity:1;stroke:none;stroke-width:0.75;stroke-dasharray:none"
   d="m 248.16221,1859.269 v -55.1133 h 0.0308 v -2.4199 c -2e-5,-14.867 8.64311,-29.568 16.69775,-44.6851 8.05464,-15.1171 15.6416,-30.5152 15.6416,-45.1362 v -37.5885 h 8.96778 v 37.5885 c 0,17.6244 -8.58165,34.1296 -16.69629,49.3593 -8.11465,15.2297 -15.64161,29.3184 -15.6416,40.462 v 2.4199 9.8203 45.293 z"
   clip-path="none" /><path
   id="rect275-6"
   style="fill:#1a1a1a;fill-opacity:1;stroke:none;stroke-width:0.75;stroke-dasharray:none"
   d="m 341.4715,1859.2694 v -55.1132 h -0.0308 v -2.4199 c 1e-5,-14.8671 -8.64311,-29.5681 -16.69775,-44.6852 -8.05465,-15.1171 -15.64161,-30.5151 -15.64161,-45.1362 v -37.5885 h -8.96777 v 37.5885 c 0,17.6245 8.58164,34.1297 16.69629,49.3594 8.11464,15.2297 15.64161,29.3183 15.6416,40.462 v 2.4199 9.8203 45.2929 z"
   clip-path="none" /><rect
   style="fill:#1a1a1a;fill-opacity:1;stroke:none;stroke-width:0.750001;stroke-dasharray:none"
   id="rect278"
   width="9.1712599"
   height="184.94289"
   x="290.21237"
   y="-1859.2693"
   transform="scale(1,-1)"
   clip-path="none" /><rect
   style="fill:#c0c0c0;fill-opacity:1;stroke:#000000;stroke-width:0.75;stroke-dasharray:none"
   id="rect276"
   width="7.7539372"
   height="38.93504"
   x="248.8705"
   y="-1957.1844"
   transform="scale(1,-1)"
   ry="3.8769686"
   clip-path="none" /><rect
   style="fill:#c0c0c0;fill-opacity:1;stroke:#000000;stroke-width:0.75;stroke-dasharray:none"
   id="rect279"
   width="7.7539372"
   height="38.93504"
   x="290.92108"
   y="-1957.1844"
   transform="scale(1,-1)"
   ry="3.8769686"
   clip-path="none" /><rect
   style="fill:#c0c0c0;fill-opacity:1;stroke:#000000;stroke-width:0.75;stroke-dasharray:none"
   id="rect234"
   width="7.7539372"
   height="38.93504"
   x="333.2114"
   y="-1957.1844"
   transform="scale(1,-1)"
   ry="3.8769686"
   clip-path="none" /><path
   id="path277"
   style="fill:#c0c0c0;fill-opacity:1;stroke:#000000;stroke-width:0.750003;stroke-dasharray:none"
   d="m 251.07603,1934.1152 c -2.40006,0 -4.33155,-1.9314 -4.33155,-4.3315 v -7.0063 h -2.71142 v 7.0063 c 0,2.174 -1.58404,3.9639 -3.66651,4.2817 v -11.288 -4.8707 -0.05 h 10.70948 3.34277 10.70947 v 4.9205 h -10e-4 v 11.288 c -2.08246,-0.3178 -3.6665,-2.1077 -3.6665,-4.2817 v -7.0063 h -2.70993 v 7.0063 c 0,2.4001 -1.93148,4.3315 -4.33154,4.3315 z"
   clip-path="none" /><path
   id="path279"
   style="fill:#c0c0c0;fill-opacity:1;stroke:#000000;stroke-width:0.750003;stroke-dasharray:none"
   d="m 293.12659,1934.1152 c -2.40006,0 -4.33154,-1.9314 -4.33154,-4.3315 v -7.0063 h -2.71143 v 7.0063 c 0,2.174 -1.58404,3.9639 -3.6665,4.2817 v -11.288 -4.8707 -0.05 h 10.70947 3.34277 10.70948 v 4.9205 h -10e-4 v 11.288 c -2.08247,-0.3178 -3.66651,-2.1077 -3.66651,-4.2817 v -7.0063 h -2.70992 v 7.0063 c 0,2.4001 -1.93149,4.3315 -4.33155,4.3315 z"
   clip-path="none" /><path
   id="rect237"
   style="fill:#c0c0c0;fill-opacity:1;stroke:#000000;stroke-width:0.750003;stroke-dasharray:none"
   d="m 335.41689,1934.1152 c -2.40005,0 -4.33154,-1.9314 -4.33154,-4.3315 v -7.0063 h -2.71143 v 7.0063 c 0,2.174 -1.58404,3.9639 -3.6665,4.2817 v -11.288 -4.8707 -0.05 h 10.70947 3.34277 10.70948 v 4.9205 h -0.002 v 11.288 c -2.08247,-0.3178 -3.66651,-2.1077 -3.66651,-4.2817 v -7.0063 h -2.70992 v 7.0063 c 0,2.4001 -1.93149,4.3315 -4.33155,4.3315 z"
   clip-path="none" /><path
   id="path278"
   style="fill:#aa0000;fill-opacity:1;stroke:#000000;stroke-width:0.75;stroke-dasharray:none"
   d="m 236.8231,1917.8569 v -41.77 l 6.37793,-15.8833 v -4.2524 h 2.12549 v -2.8345 h -2.12549 v -2.8345 h 2.12549 v -2.8344 h -2.12549 v -2.8345 h 2.12549 v -2.8345 h -2.12549 v -2.8345 h 2.12549 v -2.8344 h -2.12549 v -2.8345 h 2.12549 v -2.8345 h -2.12549 v -2.8359 h 2.12549 v -2.8345 h -2.12549 v -7.0854 h 19.09277 v 7.0854 h -2.12549 v 2.8345 h 2.12549 v 2.8359 h -2.12549 v 2.8345 h 2.12549 v 2.8345 h -2.12549 v 2.8344 h 2.12549 v 2.8345 h -2.12549 v 2.8345 h 2.12549 v 2.8345 h -2.12549 v 2.8344 h 2.12549 v 2.8345 h -2.12549 v 2.8345 h 2.12549 v 4.2524 l 6.37793,15.8833 v 41.77 z m 11.51074,-61.9057 h 3.37061 v -2.8345 h -3.37061 z m 5.45654,0 h 3.38086 v -2.8345 h -3.38086 z m -5.45654,-5.669 h 3.37061 v -2.8344 h -3.37061 z m 5.45654,0 h 3.38086 v -2.8344 h -3.38086 z m -5.45654,-5.6689 h 3.37061 v -2.8345 h -3.37061 z m 5.45654,0 h 3.38086 v -2.8345 h -3.38086 z m -5.45654,-5.669 h 3.37061 v -2.8344 h -3.37061 z m 5.45654,0 h 3.38086 v -2.8344 h -3.38086 z m -5.45654,-5.6689 h 3.37061 v -2.8345 h -3.37061 z m 5.45654,0 h 3.38086 v -2.8345 h -3.38086 z m -5.45654,-5.6704 h 3.37061 v -2.8345 h -3.37061 z m 5.45654,0 h 3.38086 v -2.8345 h -3.38086 z"
   clip-path="none" /><path
   id="path281"
   style="fill:#008000;fill-opacity:1;stroke:#000000;stroke-width:0.75;stroke-dasharray:none"
   d="m 278.87366,1917.8569 v -41.77 l 6.37793,-15.8833 v -4.2524 h 2.12549 v -2.8345 h -2.12549 v -2.8345 h 2.12549 v -2.8344 h -2.12549 v -2.8345 h 2.12549 v -2.8345 h -2.12549 v -2.8345 h 2.12549 v -2.8344 h -2.12549 v -2.8345 h 2.12549 v -2.8345 h -2.12549 v -2.8359 h 2.12549 v -2.8345 h -2.12549 v -7.0854 h 19.09277 v 7.0854 h -2.12549 v 2.8345 h 2.12549 v 2.8359 h -2.12549 v 2.8345 h 2.12549 v 2.8345 h -2.12549 v 2.8344 h 2.12549 v 2.8345 h -2.12549 v 2.8345 h 2.12549 v 2.8345 h -2.12549 v 2.8344 h 2.12549 v 2.8345 h -2.12549 v 2.8345 h 2.12549 v 4.2524 l 6.37793,15.8833 v 41.77 z m 11.51074,-61.9057 h 3.37061 v -2.8345 h -3.37061 z m 5.45654,0 h 3.38086 v -2.8345 h -3.38086 z m -5.45654,-5.669 h 3.37061 v -2.8344 h -3.37061 z m 5.45654,0 h 3.38086 v -2.8344 h -3.38086 z m -5.45654,-5.6689 h 3.37061 v -2.8345 h -3.37061 z m 5.45654,0 h 3.38086 v -2.8345 h -3.38086 z m -5.45654,-5.669 h 3.37061 v -2.8344 h -3.37061 z m 5.45654,0 h 3.38086 v -2.8344 h -3.38086 z m -5.45654,-5.6689 h 3.37061 v -2.8345 h -3.37061 z m 5.45654,0 h 3.38086 v -2.8345 h -3.38086 z m -5.45654,-5.6704 h 3.37061 v -2.8345 h -3.37061 z m 5.45654,0 h 3.38086 v -2.8345 h -3.38086 z"
   clip-path="none" /><path
   id="rect238"
   style="fill:#0052ff;fill-opacity:1;stroke:#000000;stroke-width:0.75;stroke-dasharray:none"
   d="m 321.16396,1917.8569 v -41.77 l 6.37793,-15.8833 v -4.2524 h 2.12549 v -2.8345 h -2.12549 v -2.8345 h 2.12549 v -2.8344 h -2.12549 v -2.8345 h 2.12549 v -2.8345 h -2.12549 v -2.8345 h 2.12549 v -2.8344 h -2.12549 v -2.8345 h 2.12549 v -2.8345 h -2.12549 v -2.8359 h 2.12549 v -2.8345 h -2.12549 v -7.0854 h 19.09277 v 7.0854 h -2.12548 v 2.8345 h 2.12548 v 2.8359 h -2.12548 v 2.8345 h 2.12548 v 2.8345 h -2.12548 v 2.8344 h 2.12548 v 2.8345 h -2.12548 v 2.8345 h 2.12548 v 2.8345 h -2.12548 v 2.8344 h 2.12548 v 2.8345 h -2.12548 v 2.8345 h 2.12548 v 4.2524 l 6.37793,15.8833 v 41.77 z m 11.51074,-61.9057 h 3.37061 v -2.8345 h -3.37061 z m 5.45655,0 h 3.38086 v -2.8345 h -3.38086 z m -5.45655,-5.669 h 3.37061 v -2.8344 h -3.37061 z m 5.45655,0 h 3.38086 v -2.8344 h -3.38086 z m -5.45655,-5.6689 h 3.37061 v -2.8345 h -3.37061 z m 5.45655,0 h 3.38086 v -2.8345 h -3.38086 z m -5.45655,-5.669 h 3.37061 v -2.8344 h -3.37061 z m 5.45655,0 h 3.38086 v -2.8344 h -3.38086 z m -5.45655,-5.6689 h 3.37061 v -2.8345 h -3.37061 z m 5.45655,0 h 3.38086 v -2.8345 h -3.38086 z m -5.45655,-5.6704 h 3.37061 v -2.8345 h -3.37061 z m 5.45655,0 h 3.38086 v -2.8345 h -3.38086 z"
   clip-path="none" /><!-- Outer cylindrical part --><!-- Inner optical port --><!-- Optical emitter (glowing red light) --><!-- Connector back end --><!-- Detail lines for depth --><!-- Device Panel --><!-- TOSLINK Port Cutout --><!-- Inner Optical Port --><!-- Optical Emitter (glowing red light) --><!-- Protective Cover --><!-- Detail Lines for Depth --></g><metadata
     id="metadata1"><rdf:RDF><cc:Work
         rdf:about=""><dc:title>Open Connector Graphics</dc:title><dc:date>03/04/2025</dc:date><dc:creator><cc:Agent><dc:title>Wikke Andeweg</dc:title></cc:Agent></dc:creator><dc:rights><cc:Agent><dc:title>Creative Commons Attribution 4.0 International</dc:title></cc:Agent></dc:rights><dc:source>https://github.com/WyzzyMoon/OpenConnectorGraphics</dc:source></cc:Work></rdf:RDF></metadata></svg>
