<?xml version="1.0" encoding="UTF-8" standalone="no"?>
<!-- Created with Inkscape (http://www.inkscape.org/) -->

<svg
   version="1.1"
   id="svg2"
   width="75.781593"
   height="219.95406"
   viewBox="0 0 75.781596 219.95406"
   xml:space="preserve"
   xmlns="http://www.w3.org/2000/svg"
   xmlns:svg="http://www.w3.org/2000/svg"
   xmlns:rdf="http://www.w3.org/1999/02/22-rdf-syntax-ns#"
   xmlns:cc="http://creativecommons.org/ns#"
   xmlns:dc="http://purl.org/dc/elements/1.1/"><title
     id="title1">Open Connector Graphics</title><defs
     id="defs6"><linearGradient
       id="linearGradient5590"><stop
         id="stop5592"
         offset="0"
         style="stop-color:#a91616;stop-opacity:1;" /></linearGradient><linearGradient
       id="linearGradient5660"><stop
         id="stop5662"
         offset="0"
         style="stop-color:#000000;stop-opacity:1;" /></linearGradient><style
       type="text/css"
       id="style1">
	.st0{fill:none;stroke:#000000;stroke-width:7;stroke-miterlimit:10;}
	.st1{fill:none;stroke:#000000;stroke-width:3;stroke-miterlimit:10;}
	.st2{fill:none;stroke:#000000;stroke-width:4;stroke-miterlimit:10;}
</style></defs><g
     id="g2466"
     transform="matrix(1.3333333,0,0,-1.3333333,1118.6304,2611.128)"
     style="display:inline"><path
   d="m 1035.903,381.764 h -56.576 v 43.846 h 56.576 z"
   style="fill:#d1d3d4;fill-opacity:1;fill-rule:nonzero;stroke:#000000;stroke-width:0.951783;stroke-linecap:butt;stroke-linejoin:miter;stroke-miterlimit:10;stroke-dasharray:none;stroke-opacity:1"
   id="path4152"
   clip-path="none"
   transform="matrix(0.7883967,0,0,0.78759366,-1604.9007,1622.726)" /><path
   d="m 1000.177,405.983 h -5.032 v 5.032 h 5.032 z"
   style="fill:#939598;fill-opacity:1;fill-rule:nonzero;stroke:#000000;stroke-width:0.951783;stroke-linecap:butt;stroke-linejoin:miter;stroke-miterlimit:10;stroke-dasharray:none;stroke-opacity:1"
   id="path4180"
   clip-path="none"
   transform="matrix(0.7883967,0,0,0.78759366,-1604.9007,1622.726)" /><path
   d="m 1020.001,405.983 h -5.032 v 5.032 h 5.032 z"
   style="fill:#939598;fill-opacity:1;fill-rule:nonzero;stroke:#000000;stroke-width:0.951783;stroke-linecap:butt;stroke-linejoin:miter;stroke-miterlimit:10;stroke-dasharray:none;stroke-opacity:1"
   id="path4182"
   clip-path="none"
   transform="matrix(0.7883967,0,0,0.78759366,-1604.9007,1622.726)" /><path
   d="m -793.52695,1957.9339 v -34.5328"
   style="fill:none;stroke:#000000;stroke-width:0.75;stroke-linecap:butt;stroke-linejoin:miter;stroke-miterlimit:10;stroke-dasharray:none;stroke-opacity:1"
   id="path4186"
   clip-path="none" /><path
   d="m -811.59606,1957.5427 v -5.4186 h 2.12552 v -4.9162 h -2.12552 v -15.5227 h 2.12552 v -4.9886 h -2.12552 v -2.9039"
   style="fill:none;stroke:#000000;stroke-width:0.75;stroke-linecap:butt;stroke-linejoin:miter;stroke-miterlimit:10;stroke-dasharray:none;stroke-opacity:1"
   id="path4190"
   clip-path="none" /><path
   d="m -790.33877,1835.7837 h 2.69599 c 3.03074,0 5.4889,2.4573 5.4889,5.4889 v 82.3577 c 0,0.4766 -0.38681,0.8634 -0.86426,0.8634 h -54.96529 c -0.47746,0 -0.86337,-0.3868 -0.86337,-0.8634 v -82.3577 c 0,-3.0316 2.45726,-5.4889 5.4889,-5.4889 h 2.69509 z"
   style="fill:#1a1a1a;fill-opacity:1;fill-rule:nonzero;stroke:none;stroke-width:1"
   id="path2668"
   clip-path="none" /><path
   d="m 1019.861,266.543 h -22.035 v 32.729 h 22.035 z"
   style="fill:#1a1a1a;fill-opacity:1;fill-rule:nonzero;stroke:none;stroke-width:0.799562"
   id="path2770"
   clip-path="none"
   transform="matrix(0.8974658,0,0,1.7429255,-1714.7629,1328.8612)" /><path
   d="m -808.2372,1901.8935 h -5.60467 v -8.3177 l 5.40633,0.041 h 0.12295 c 5.23133,0.2199 5.53288,7.6715 0.0754,8.28"
   style="fill:#ffffff;fill-opacity:1;fill-rule:nonzero;stroke:none;stroke-width:1"
   id="path4100"
   clip-path="none" /><path
   d="m -806.56261,1909.2773 v 0.011 h -15.48218 v -23.2229 h 4.73772 v 18.6018 h 3.40857 0.0565 6.52009 0.0655 v -0.01 c 7.81334,-0.6381 8.79157,-13.1137 -0.23065,-13.8891 l -0.9217,0.016 -5.43326,0.014 v -4.7378 h 7.27935 v 0.012 c 6.06777,0.2334 10.91857,5.3354 10.91857,11.5998 0,6.2643 -4.8508,11.3673 -10.91857,11.6006"
   style="fill:#ffffff;fill-opacity:1;fill-rule:nonzero;stroke:none;stroke-width:1"
   id="path4104"
   clip-path="none" />








<style
   type="text/css"
   id="style1-5">
	.st0{fill:none;stroke:#000;stroke-width:2;}
	.st1{fill:#fff;stroke:#000;stroke-width:2;stroke-linejoin:round;}
	.st2{font-family:Liberation Sans,Arial;}
	.st3{font-size:17px;}
</style>










<!-- Outer cylindrical part --><!-- Inner optical port --><!-- Optical emitter (glowing red light) --><!-- Connector back end --><!-- Detail lines for depth --><!-- Device Panel --><!-- TOSLINK Port Cutout --><!-- Inner Optical Port --><!-- Optical Emitter (glowing red light) --><!-- Protective Cover --><!-- Detail Lines for Depth --></g><metadata
     id="metadata1"><rdf:RDF><cc:Work
         rdf:about=""><dc:title>Open Connector Graphics</dc:title><dc:date>03/04/2025</dc:date><dc:creator><cc:Agent><dc:title>Wikke Andeweg</dc:title></cc:Agent></dc:creator><dc:rights><cc:Agent><dc:title>Creative Commons Attribution 4.0 International</dc:title></cc:Agent></dc:rights><dc:source>https://github.com/WyzzyMoon/OpenConnectorGraphics</dc:source></cc:Work></rdf:RDF></metadata></svg>
