<?xml version="1.0" encoding="UTF-8" standalone="no"?>
<!-- Created with Inkscape (http://www.inkscape.org/) -->

<svg
   version="1.1"
   id="svg2"
   width="61.47924"
   height="31.243244"
   viewBox="0 0 61.479242 31.243245"
   xml:space="preserve"
   xmlns="http://www.w3.org/2000/svg"
   xmlns:svg="http://www.w3.org/2000/svg"
   xmlns:rdf="http://www.w3.org/1999/02/22-rdf-syntax-ns#"
   xmlns:cc="http://creativecommons.org/ns#"
   xmlns:dc="http://purl.org/dc/elements/1.1/"><title
     id="title1">Open Connector Graphics</title><defs
     id="defs6"><linearGradient
       id="linearGradient5590"><stop
         id="stop5592"
         offset="0"
         style="stop-color:#a91616;stop-opacity:1;" /></linearGradient><linearGradient
       id="linearGradient5660"><stop
         id="stop5662"
         offset="0"
         style="stop-color:#000000;stop-opacity:1;" /></linearGradient><style
       type="text/css"
       id="style1">
	.st0{fill:none;stroke:#000000;stroke-width:7;stroke-miterlimit:10;}
	.st1{fill:none;stroke:#000000;stroke-width:3;stroke-miterlimit:10;}
	.st2{fill:none;stroke:#000000;stroke-width:4;stroke-miterlimit:10;}
</style></defs><g
     id="g2466"
     transform="matrix(1.3333333,0,0,-1.3333333,-2731.6287,2699.0379)"
     style="display:inline">








<style
   type="text/css"
   id="style1-5">
	.st0{fill:none;stroke:#000;stroke-width:2;}
	.st1{fill:#fff;stroke:#000;stroke-width:2;stroke-linejoin:round;}
	.st2{font-family:Liberation Sans,Arial;}
	.st3{font-size:17px;}
</style>










<path
   id="path321"
   style="display:inline;fill:#333333;fill-opacity:1;stroke:#000000;stroke-width:0.75;stroke-dasharray:none"
   d="m 2063.1671,2023.9018 c -0.8539,-0.01 -1.7078,-0.037 -2.5689,-0.022 -1.8944,0.03 -3.8461,-0.2682 -5.5396,-1.1623 -4.6497,-2.2946 -7.1468,-8.4335 -5.396,-13.4698 0.6315,-2.5033 2.3823,-4.4999 4.3341,-5.99 2.21,-1.4602 4.8507,-2.0562 7.4626,-1.9668 1.4351,0.089 2.9276,-0.2086 4.334,0.1788 1.4064,1.3112 2.4397,3.0099 3.7026,4.4701 0.9185,0.894 2.3823,1.3708 3.5878,0.7748 1.4638,-0.7152 2.2101,-2.2946 3.2721,-3.4867 0.6888,-0.7152 1.1768,-2.0264 2.3249,-1.9668 2.6693,0.089 5.4247,-0.3576 7.9792,0.5364 3.6165,1.0728 6.6303,4.2317 7.4626,8.076 0.6028,2.1158 0.3157,4.3807 -0.287,6.4667 -1.2916,3.6357 -4.3915,6.6158 -8.0941,7.2714 -2.6119,0.447 -5.2525,0.2384 -7.8931,0.2086 -1.1481,-1.2815 -2.2388,-2.6821 -3.3295,-4.0231 -0.6601,-0.8642 -1.636,-1.5794 -2.7267,-1.6093 -1.0907,0.09 -2.0379,0.7451 -2.698,1.6093 -1.1768,1.3112 -2.0666,2.8608 -3.3582,3.9933 -0.8611,0.1043 -1.715,0.1192 -2.5688,0.1117 z"
   clip-path="none" /><circle
   style="fill:#000000;fill-opacity:1;stroke:#000000;stroke-width:0.75;stroke-dasharray:none"
   id="circle323"
   cx="2059.5896"
   cy="-2012.5648"
   r="2.969882"
   transform="scale(1,-1)"
   clip-path="none" /><circle
   style="fill:#000000;fill-opacity:1;stroke:#000000;stroke-width:0.75;stroke-dasharray:none"
   id="circle320"
   cx="2083.9675"
   cy="-2012.5648"
   r="2.969882"
   transform="scale(1,-1)"
   clip-path="none" /><!-- Outer cylindrical part --><!-- Inner optical port --><!-- Optical emitter (glowing red light) --><!-- Connector back end --><!-- Detail lines for depth --><!-- Device Panel --><!-- TOSLINK Port Cutout --><!-- Inner Optical Port --><!-- Optical Emitter (glowing red light) --><!-- Protective Cover --><!-- Detail Lines for Depth --></g><metadata
     id="metadata1"><rdf:RDF><cc:Work
         rdf:about=""><dc:title>Open Connector Graphics</dc:title><dc:date>03/04/2025</dc:date><dc:creator><cc:Agent><dc:title>Wikke Andeweg</dc:title></cc:Agent></dc:creator><dc:rights><cc:Agent><dc:title>Creative Commons Attribution 4.0 International</dc:title></cc:Agent></dc:rights><dc:source>https://github.com/WyzzyMoon/OpenConnectorGraphics</dc:source></cc:Work></rdf:RDF></metadata></svg>
