<?xml version="1.0" encoding="UTF-8" standalone="no"?>
<!-- Created with Inkscape (http://www.inkscape.org/) -->

<svg
   version="1.1"
   id="svg2"
   width="28.016235"
   height="18.110001"
   viewBox="0 0 28.016236 18.110001"
   xml:space="preserve"
   xmlns="http://www.w3.org/2000/svg"
   xmlns:svg="http://www.w3.org/2000/svg"
   xmlns:rdf="http://www.w3.org/1999/02/22-rdf-syntax-ns#"
   xmlns:cc="http://creativecommons.org/ns#"
   xmlns:dc="http://purl.org/dc/elements/1.1/"><title
     id="title1">Open Connector Graphics</title><defs
     id="defs6"><linearGradient
       id="linearGradient5590"><stop
         id="stop5592"
         offset="0"
         style="stop-color:#a91616;stop-opacity:1;" /></linearGradient><linearGradient
       id="linearGradient5660"><stop
         id="stop5662"
         offset="0"
         style="stop-color:#000000;stop-opacity:1;" /></linearGradient><style
       type="text/css"
       id="style1">
	.st0{fill:none;stroke:#000000;stroke-width:7;stroke-miterlimit:10;}
	.st1{fill:none;stroke:#000000;stroke-width:3;stroke-miterlimit:10;}
	.st2{fill:none;stroke:#000000;stroke-width:4;stroke-miterlimit:10;}
</style></defs><g
     id="g2466"
     transform="matrix(1.3333333,0,0,-1.3333333,990.71112,2676.2628)"
     style="display:inline"><path
   d="m -740.18679,1994.2001 -2.25832,2.2445 c -0.13543,0.1346 -0.21205,0.3185 -0.21205,0.5092 v 9.148 c 0,0.3985 0.32505,0.7215 0.72517,0.7215 h 18.80873 c 0.40089,0 0.72594,-0.323 0.72594,-0.7215 v -9.148 c 0,-0.1907 -0.0766,-0.3746 -0.21283,-0.5092 l -2.25754,-2.2445 c -0.13621,-0.1354 -0.32041,-0.2115 -0.51312,-0.2115 h -14.29287 c -0.1927,0 -0.3769,0.076 -0.51311,0.2115"
   style="fill:#939598;fill-opacity:1;fill-rule:nonzero;stroke:#000000;stroke-width:0.75;stroke-dasharray:none"
   id="path3446"
   clip-path="none" /><path
   d="m -740.18679,1994.2001 -2.25832,2.2445 c -0.13543,0.1346 -0.21205,0.3185 -0.21205,0.5092 v 9.148 c 0,0.3985 0.32505,0.7215 0.72517,0.7215 h 18.80873 c 0.40089,0 0.72594,-0.323 0.72594,-0.7215 v -9.148 c 0,-0.1907 -0.0766,-0.3746 -0.21283,-0.5092 l -2.25754,-2.2445 c -0.13621,-0.1354 -0.32041,-0.2115 -0.51312,-0.2115 h -14.29287 c -0.1927,0 -0.3769,0.076 -0.51311,0.2115 z"
   style="fill:none;stroke:#000000;stroke-width:0.75;stroke-linecap:butt;stroke-linejoin:miter;stroke-miterlimit:10;stroke-dasharray:none;stroke-opacity:1"
   id="path3450"
   clip-path="none" /><path
   d="m 1091.552,481.09 h -21.168 v 4.348 h 21.168 z"
   style="fill:#1a1a1a;fill-opacity:1;fill-rule:nonzero;stroke:#000000;stroke-width:0.972061;stroke-linecap:butt;stroke-linejoin:miter;stroke-miterlimit:10;stroke-dasharray:none;stroke-opacity:1"
   id="path3452"
   clip-path="none"
   transform="matrix(0.77392631,0,0,0.76919439,-1569.1165,1628.9287)" /><path
   d="m 1072.431,484.971 h -1.013 v 2.123 h 1.013 z"
   style="fill:#f9d640;fill-opacity:1;fill-rule:nonzero;stroke:#000000;stroke-width:0.32402;stroke-linecap:butt;stroke-linejoin:miter;stroke-miterlimit:10;stroke-dasharray:none;stroke-opacity:1"
   id="path3454"
   clip-path="none"
   transform="matrix(0.77392631,0,0,0.76919439,-1569.1165,1628.9287)" /><path
   d="m 1074.426,484.971 h -1.013 v 2.123 h 1.013 z"
   style="fill:#f9d640;fill-opacity:1;fill-rule:nonzero;stroke:#000000;stroke-width:0.32402;stroke-linecap:butt;stroke-linejoin:miter;stroke-miterlimit:10;stroke-dasharray:none;stroke-opacity:1"
   id="path3456"
   clip-path="none"
   transform="matrix(0.77392631,0,0,0.76919439,-1569.1165,1628.9287)" /><path
   d="m 1076.421,484.971 h -1.013 v 2.123 h 1.013 z"
   style="fill:#f9d640;fill-opacity:1;fill-rule:nonzero;stroke:#000000;stroke-width:0.32402;stroke-linecap:butt;stroke-linejoin:miter;stroke-miterlimit:10;stroke-dasharray:none;stroke-opacity:1"
   id="path3458"
   clip-path="none"
   transform="matrix(0.77392631,0,0,0.76919439,-1569.1165,1628.9287)" /><path
   d="m 1078.416,484.971 h -1.013 v 2.123 h 1.013 z"
   style="fill:#f9d640;fill-opacity:1;fill-rule:nonzero;stroke:#000000;stroke-width:0.32402;stroke-linecap:butt;stroke-linejoin:miter;stroke-miterlimit:10;stroke-dasharray:none;stroke-opacity:1"
   id="path3460"
   clip-path="none"
   transform="matrix(0.77392631,0,0,0.76919439,-1569.1165,1628.9287)" /><path
   d="m 1080.411,484.971 h -1.013 v 2.123 h 1.013 z"
   style="fill:#f9d640;fill-opacity:1;fill-rule:nonzero;stroke:#000000;stroke-width:0.32402;stroke-linecap:butt;stroke-linejoin:miter;stroke-miterlimit:10;stroke-dasharray:none;stroke-opacity:1"
   id="path3462"
   clip-path="none"
   transform="matrix(0.77392631,0,0,0.76919439,-1569.1165,1628.9287)" /><path
   d="m 1082.406,484.971 h -1.013 v 2.123 h 1.013 z"
   style="fill:#f9d640;fill-opacity:1;fill-rule:nonzero;stroke:#000000;stroke-width:0.32402;stroke-linecap:butt;stroke-linejoin:miter;stroke-miterlimit:10;stroke-dasharray:none;stroke-opacity:1"
   id="path3464"
   clip-path="none"
   transform="matrix(0.77392631,0,0,0.76919439,-1569.1165,1628.9287)" /><path
   d="m 1084.401,484.971 h -1.013 v 2.123 h 1.013 z"
   style="fill:#f9d640;fill-opacity:1;fill-rule:nonzero;stroke:#000000;stroke-width:0.32402;stroke-linecap:butt;stroke-linejoin:miter;stroke-miterlimit:10;stroke-dasharray:none;stroke-opacity:1"
   id="path3466"
   clip-path="none"
   transform="matrix(0.77392631,0,0,0.76919439,-1569.1165,1628.9287)" /><path
   d="m 1086.396,484.971 h -1.013 v 2.123 h 1.013 z"
   style="fill:#f9d640;fill-opacity:1;fill-rule:nonzero;stroke:#000000;stroke-width:0.32402;stroke-linecap:butt;stroke-linejoin:miter;stroke-miterlimit:10;stroke-dasharray:none;stroke-opacity:1"
   id="path3468"
   clip-path="none"
   transform="matrix(0.77392631,0,0,0.76919439,-1569.1165,1628.9287)" /><path
   d="m 1088.391,484.971 h -1.013 v 2.123 h 1.013 z"
   style="fill:#f9d640;fill-opacity:1;fill-rule:nonzero;stroke:#000000;stroke-width:0.32402;stroke-linecap:butt;stroke-linejoin:miter;stroke-miterlimit:10;stroke-dasharray:none;stroke-opacity:1"
   id="path3470"
   clip-path="none"
   transform="matrix(0.77392631,0,0,0.76919439,-1569.1165,1628.9287)" /><path
   d="m 1090.386,484.971 h -1.013 v 2.123 h 1.013 z"
   style="fill:#f9d640;fill-opacity:1;fill-rule:nonzero;stroke:#000000;stroke-width:0.32402;stroke-linecap:butt;stroke-linejoin:miter;stroke-miterlimit:10;stroke-dasharray:none;stroke-opacity:1"
   id="path3472"
   clip-path="none"
   transform="matrix(0.77392631,0,0,0.76919439,-1569.1165,1628.9287)" /><path
   d="m 1072.431,479.601 h -1.013 v 1.916 h 1.013 z"
   style="fill:#f9d640;fill-opacity:1;fill-rule:nonzero;stroke:#000000;stroke-width:0.32402;stroke-linecap:butt;stroke-linejoin:miter;stroke-miterlimit:10;stroke-dasharray:none;stroke-opacity:1"
   id="path3474"
   clip-path="none"
   transform="matrix(0.77392631,0,0,0.76919439,-1569.1165,1628.9287)" /><path
   d="m 1074.426,479.601 h -1.013 v 1.916 h 1.013 z"
   style="fill:#f9d640;fill-opacity:1;fill-rule:nonzero;stroke:#000000;stroke-width:0.32402;stroke-linecap:butt;stroke-linejoin:miter;stroke-miterlimit:10;stroke-dasharray:none;stroke-opacity:1"
   id="path3476"
   clip-path="none"
   transform="matrix(0.77392631,0,0,0.76919439,-1569.1165,1628.9287)" /><path
   d="m 1076.421,479.601 h -1.013 v 1.916 h 1.013 z"
   style="fill:#f9d640;fill-opacity:1;fill-rule:nonzero;stroke:#000000;stroke-width:0.32402;stroke-linecap:butt;stroke-linejoin:miter;stroke-miterlimit:10;stroke-dasharray:none;stroke-opacity:1"
   id="path3478"
   clip-path="none"
   transform="matrix(0.77392631,0,0,0.76919439,-1569.1165,1628.9287)" /><path
   d="m 1078.416,479.601 h -1.013 v 1.916 h 1.013 z"
   style="fill:#f9d640;fill-opacity:1;fill-rule:nonzero;stroke:#000000;stroke-width:0.32402;stroke-linecap:butt;stroke-linejoin:miter;stroke-miterlimit:10;stroke-dasharray:none;stroke-opacity:1"
   id="path3480"
   clip-path="none"
   transform="matrix(0.77392631,0,0,0.76919439,-1569.1165,1628.9287)" /><path
   d="m 1080.411,479.601 h -1.013 v 1.916 h 1.013 z"
   style="fill:#f9d640;fill-opacity:1;fill-rule:nonzero;stroke:#000000;stroke-width:0.32402;stroke-linecap:butt;stroke-linejoin:miter;stroke-miterlimit:10;stroke-dasharray:none;stroke-opacity:1"
   id="path3482"
   clip-path="none"
   transform="matrix(0.77392631,0,0,0.76919439,-1569.1165,1628.9287)" /><path
   d="m 1082.406,479.601 h -1.013 v 1.916 h 1.013 z"
   style="fill:#f9d640;fill-opacity:1;fill-rule:nonzero;stroke:#000000;stroke-width:0.32402;stroke-linecap:butt;stroke-linejoin:miter;stroke-miterlimit:10;stroke-dasharray:none;stroke-opacity:1"
   id="path3484"
   clip-path="none"
   transform="matrix(0.77392631,0,0,0.76919439,-1569.1165,1628.9287)" /><path
   d="m 1084.401,479.601 h -1.013 v 1.916 h 1.013 z"
   style="fill:#f9d640;fill-opacity:1;fill-rule:nonzero;stroke:#000000;stroke-width:0.32402;stroke-linecap:butt;stroke-linejoin:miter;stroke-miterlimit:10;stroke-dasharray:none;stroke-opacity:1"
   id="path3486"
   clip-path="none"
   transform="matrix(0.77392631,0,0,0.76919439,-1569.1165,1628.9287)" /><path
   d="m 1086.396,479.601 h -1.013 v 1.916 h 1.013 z"
   style="fill:#f9d640;fill-opacity:1;fill-rule:nonzero;stroke:#000000;stroke-width:0.32402;stroke-linecap:butt;stroke-linejoin:miter;stroke-miterlimit:10;stroke-dasharray:none;stroke-opacity:1"
   id="path3488"
   clip-path="none"
   transform="matrix(0.77392631,0,0,0.76919439,-1569.1165,1628.9287)" /><path
   d="m 1088.391,479.601 h -1.013 v 1.916 h 1.013 z"
   style="fill:#f9d640;fill-opacity:1;fill-rule:nonzero;stroke:#000000;stroke-width:0.32402;stroke-linecap:butt;stroke-linejoin:miter;stroke-miterlimit:10;stroke-dasharray:none;stroke-opacity:1"
   id="path3490"
   clip-path="none"
   transform="matrix(0.77392631,0,0,0.76919439,-1569.1165,1628.9287)" /><path
   d="m 1090.386,479.601 h -1.013 v 1.916 h 1.013 z"
   style="fill:#f9d640;fill-opacity:1;fill-rule:nonzero;stroke:#000000;stroke-width:0.32402;stroke-linecap:butt;stroke-linejoin:miter;stroke-miterlimit:10;stroke-dasharray:none;stroke-opacity:1"
   id="path3492"
   clip-path="none"
   transform="matrix(0.77392631,0,0,0.76919439,-1569.1165,1628.9287)" />








<style
   type="text/css"
   id="style1-5">
	.st0{fill:none;stroke:#000;stroke-width:2;}
	.st1{fill:#fff;stroke:#000;stroke-width:2;stroke-linejoin:round;}
	.st2{font-family:Liberation Sans,Arial;}
	.st3{font-size:17px;}
</style>










<!-- Outer cylindrical part --><!-- Inner optical port --><!-- Optical emitter (glowing red light) --><!-- Connector back end --><!-- Detail lines for depth --><!-- Device Panel --><!-- TOSLINK Port Cutout --><!-- Inner Optical Port --><!-- Optical Emitter (glowing red light) --><!-- Protective Cover --><!-- Detail Lines for Depth --></g><metadata
     id="metadata1"><rdf:RDF><cc:Work
         rdf:about=""><dc:title>Open Connector Graphics</dc:title><dc:date>03/04/2025</dc:date><dc:creator><cc:Agent><dc:title>Wikke Andeweg</dc:title></cc:Agent></dc:creator><dc:rights><cc:Agent><dc:title>Creative Commons Attribution 4.0 International</dc:title></cc:Agent></dc:rights><dc:source>https://github.com/WyzzyMoon/OpenConnectorGraphics</dc:source></cc:Work></rdf:RDF></metadata></svg>
