<?xml version="1.0" encoding="UTF-8" standalone="no"?>
<!-- Created with Inkscape (http://www.inkscape.org/) -->

<svg
   version="1.1"
   id="svg2"
   width="66.765602"
   height="48.192703"
   viewBox="0 0 66.765604 48.192704"
   xml:space="preserve"
   xmlns="http://www.w3.org/2000/svg"
   xmlns:svg="http://www.w3.org/2000/svg"
   xmlns:rdf="http://www.w3.org/1999/02/22-rdf-syntax-ns#"
   xmlns:cc="http://creativecommons.org/ns#"
   xmlns:dc="http://purl.org/dc/elements/1.1/"><title
     id="title1">Open Connector Graphics</title><defs
     id="defs6"><linearGradient
       id="linearGradient5590"><stop
         id="stop5592"
         offset="0"
         style="stop-color:#a91616;stop-opacity:1;" /></linearGradient><linearGradient
       id="linearGradient5660"><stop
         id="stop5662"
         offset="0"
         style="stop-color:#000000;stop-opacity:1;" /></linearGradient><style
       type="text/css"
       id="style1">
	.st0{fill:none;stroke:#000000;stroke-width:7;stroke-miterlimit:10;}
	.st1{fill:none;stroke:#000000;stroke-width:3;stroke-miterlimit:10;}
	.st2{fill:none;stroke:#000000;stroke-width:4;stroke-miterlimit:10;}
</style></defs><g
     id="g2466"
     transform="matrix(1.3333333,0,0,-1.3333333,-2818.4725,2715.3927)"
     style="display:inline">








<style
   type="text/css"
   id="style1-5">
	.st0{fill:none;stroke:#000;stroke-width:2;}
	.st1{fill:#fff;stroke:#000;stroke-width:2;stroke-linejoin:round;}
	.st2{font-family:Liberation Sans,Arial;}
	.st3{font-size:17px;}
</style>










<path
   d="m 2135.9467,2035.8231 c 3.3376,0.8344 7.0089,0.1335 9.8125,-1.8356 2.4365,-1.6355 4.2054,-4.2054 4.9063,-7.009 0.3672,-1.235 0.067,-2.6034 0.6342,-3.7715 0.5674,-1.0347 1.869,-0.8344 2.8369,-0.9679 5.407,-0.6008 9.8794,-5.8075 9.3787,-11.2478 -0.067,-6.0745 -6.1745,-11.1143 -12.1489,-10.0796 -4.6393,0.5674 -8.611,4.5058 -9.2118,9.1451 -0.067,0.9345 -0.6341,1.9024 -1.6688,1.9358 -1.2683,0.033 -2.57,0.2002 -3.8049,-0.1669 -0.8678,-0.3004 -1.068,-1.3017 -1.2015,-2.1027 -0.5007,-3.1374 -2.5366,-5.9076 -5.2067,-7.5096 -2.1694,-1.1682 -4.7394,-1.6355 -7.1425,-1.1682 -3.4377,0.534 -6.4082,3.0039 -7.9101,6.0745 -1.0013,2.3029 -1.3351,5.0064 -0.5674,7.4428 1.1681,4.4391 5.5738,7.7099 10.1463,7.7767 1.4686,-0.1001 2.036,1.5019 1.9692,2.7035 0.2336,5.1065 4.2054,9.7124 9.1785,10.7804 z"
   id="path36-9"
   style="display:inline;fill:#1a1a1a;fill-opacity:1;stroke:#000000;stroke-width:0.75;stroke-dasharray:none"
   clip-path="none" /><circle
   style="fill:#f9d640;fill-opacity:1;stroke:#000000;stroke-width:0.75;stroke-dasharray:none"
   id="path315"
   cx="2138.8884"
   cy="-2024.3014"
   r="5.0108271"
   transform="scale(1,-1)"
   clip-path="none" /><circle
   style="fill:#f9d640;fill-opacity:1;stroke:#000000;stroke-width:0.75;stroke-dasharray:none"
   id="path313"
   cx="2125.0115"
   cy="-2011.3679"
   r="3.7352369"
   transform="scale(1,-1)"
   clip-path="none" /><circle
   style="fill:#f9d640;fill-opacity:1;stroke:#000000;stroke-width:0.75;stroke-dasharray:none"
   id="path314"
   cx="2152.7732"
   cy="-2011.5455"
   r="3.7352369"
   transform="scale(1,-1)"
   clip-path="none" /><!-- Outer cylindrical part --><!-- Inner optical port --><!-- Optical emitter (glowing red light) --><!-- Connector back end --><!-- Detail lines for depth --><!-- Device Panel --><!-- TOSLINK Port Cutout --><!-- Inner Optical Port --><!-- Optical Emitter (glowing red light) --><!-- Protective Cover --><!-- Detail Lines for Depth --></g><metadata
     id="metadata1"><rdf:RDF><cc:Work
         rdf:about=""><dc:title>Open Connector Graphics</dc:title><dc:date>03/04/2025</dc:date><dc:creator><cc:Agent><dc:title>Wikke Andeweg</dc:title></cc:Agent></dc:creator><dc:rights><cc:Agent><dc:title>Creative Commons Attribution 4.0 International</dc:title></cc:Agent></dc:rights><dc:source>https://github.com/WyzzyMoon/OpenConnectorGraphics</dc:source></cc:Work></rdf:RDF></metadata></svg>
