<?xml version="1.0" encoding="UTF-8" standalone="no"?>
<!-- Created with Inkscape (http://www.inkscape.org/) -->

<svg
   version="1.1"
   id="svg2"
   width="30.637529"
   height="9.4657698"
   viewBox="0 0 30.63753 9.4657699"
   xml:space="preserve"
   xmlns="http://www.w3.org/2000/svg"
   xmlns:svg="http://www.w3.org/2000/svg"
   xmlns:rdf="http://www.w3.org/1999/02/22-rdf-syntax-ns#"
   xmlns:cc="http://creativecommons.org/ns#"
   xmlns:dc="http://purl.org/dc/elements/1.1/"><title
     id="title1">Open Connector Graphics</title><defs
     id="defs6"><linearGradient
       id="linearGradient5590"><stop
         id="stop5592"
         offset="0"
         style="stop-color:#a91616;stop-opacity:1;" /></linearGradient><linearGradient
       id="linearGradient5660"><stop
         id="stop5662"
         offset="0"
         style="stop-color:#000000;stop-opacity:1;" /></linearGradient><style
       type="text/css"
       id="style1">
	.st0{fill:none;stroke:#000000;stroke-width:7;stroke-miterlimit:10;}
	.st1{fill:none;stroke:#000000;stroke-width:3;stroke-miterlimit:10;}
	.st2{fill:none;stroke:#000000;stroke-width:4;stroke-miterlimit:10;}
</style></defs><g
     id="g2466"
     transform="matrix(1.3333333,0,0,-1.3333333,1564.8272,2667.6186)"
     style="display:inline"><path
   d="m -1153.9774,1994.1061 h -16.3077 c -1.5609,0 -2.8265,1.2224 -2.8265,2.73 v 0.6566 c 0,1.5076 1.2656,2.7299 2.8265,2.7299 h 16.3077 c 1.5609,0 2.8265,-1.2223 2.8265,-2.7299 v -0.6566 c 0,-1.5076 -1.2656,-2.73 -2.8265,-2.73 z"
   style="fill:#d1d3d4;fill-opacity:1;stroke:#000000;stroke-width:1;stroke-linecap:butt;stroke-linejoin:miter;stroke-miterlimit:10;stroke-dasharray:none;stroke-opacity:1"
   id="path2846"
   clip-path="none" /><path
   d="m -1153.7818,1996.1901 h -16.7417 c -0.5082,0 -0.9195,0.3973 -0.9195,0.8881 v 0.1724 c 0,0.4902 0.4113,0.8881 0.9195,0.8881 h 16.7417 c 0.5075,0 0.9195,-0.3979 0.9195,-0.8881 v -0.1724 c 0,-0.4908 -0.412,-0.8881 -0.9195,-0.8881"
   style="fill:#939598;fill-opacity:1;fill-rule:nonzero;stroke:#000000;stroke-width:1"
   id="path2850"
   clip-path="none" /><path
   d="m -1153.7818,1996.1901 h -16.7417 c -0.5082,0 -0.9195,0.3973 -0.9195,0.8881 v 0.1724 c 0,0.4902 0.4113,0.8881 0.9195,0.8881 h 16.7417 c 0.5075,0 0.9195,-0.3979 0.9195,-0.8881 v -0.1724 c 0,-0.4908 -0.412,-0.8881 -0.9195,-0.8881 z"
   style="fill:none;stroke:#000000;stroke-width:1;stroke-linecap:butt;stroke-linejoin:miter;stroke-miterlimit:10;stroke-dasharray:none;stroke-opacity:1"
   id="path2854"
   clip-path="none" /><path
   d="m 662.826,478.739 h -1.082 v 1.06 h 1.082 z"
   style="fill:#f9d640;fill-opacity:1;fill-rule:nonzero;stroke:#000000;stroke-width:0.370439;stroke-linecap:butt;stroke-linejoin:miter;stroke-miterlimit:10;stroke-dasharray:none;stroke-opacity:1"
   id="path2856"
   clip-path="none"
   transform="matrix(0.68669889,0,0,0.66325551,-1624.7292,1679.8042)" /><path
   d="m 664.918,478.739 h -1.082 v 1.06 h 1.082 z"
   style="fill:#f9d640;fill-opacity:1;fill-rule:nonzero;stroke:#000000;stroke-width:0.370439;stroke-linecap:butt;stroke-linejoin:miter;stroke-miterlimit:10;stroke-dasharray:none;stroke-opacity:1"
   id="path2858"
   clip-path="none"
   transform="matrix(0.68669889,0,0,0.66325551,-1624.7292,1679.8042)" /><path
   d="m 667.009,478.739 h -1.082 v 1.06 h 1.082 z"
   style="fill:#f9d640;fill-opacity:1;fill-rule:nonzero;stroke:#000000;stroke-width:0.370439;stroke-linecap:butt;stroke-linejoin:miter;stroke-miterlimit:10;stroke-dasharray:none;stroke-opacity:1"
   id="path2860"
   clip-path="none"
   transform="matrix(0.68669889,0,0,0.66325551,-1624.7292,1679.8042)" /><path
   d="m 669.1,478.739 h -1.082 v 1.06 h 1.082 z"
   style="fill:#f9d640;fill-opacity:1;fill-rule:nonzero;stroke:#000000;stroke-width:0.370439;stroke-linecap:butt;stroke-linejoin:miter;stroke-miterlimit:10;stroke-dasharray:none;stroke-opacity:1"
   id="path2862"
   clip-path="none"
   transform="matrix(0.68669889,0,0,0.66325551,-1624.7292,1679.8042)" /><path
   d="m 671.192,478.739 h -1.082 v 1.06 h 1.082 z"
   style="fill:#f9d640;fill-opacity:1;fill-rule:nonzero;stroke:#000000;stroke-width:0.370439;stroke-linecap:butt;stroke-linejoin:miter;stroke-miterlimit:10;stroke-dasharray:none;stroke-opacity:1"
   id="path2864"
   clip-path="none"
   transform="matrix(0.68669889,0,0,0.66325551,-1624.7292,1679.8042)" /><path
   d="m 673.283,478.739 h -1.082 v 1.06 h 1.082 z"
   style="fill:#f9d640;fill-opacity:1;fill-rule:nonzero;stroke:#000000;stroke-width:0.370439;stroke-linecap:butt;stroke-linejoin:miter;stroke-miterlimit:10;stroke-dasharray:none;stroke-opacity:1"
   id="path2866"
   clip-path="none"
   transform="matrix(0.68669889,0,0,0.66325551,-1624.7292,1679.8042)" /><path
   d="m 675.374,478.739 h -1.082 v 1.06 h 1.082 z"
   style="fill:#f9d640;fill-opacity:1;fill-rule:nonzero;stroke:#000000;stroke-width:0.370439;stroke-linecap:butt;stroke-linejoin:miter;stroke-miterlimit:10;stroke-dasharray:none;stroke-opacity:1"
   id="path2868"
   clip-path="none"
   transform="matrix(0.68669889,0,0,0.66325551,-1624.7292,1679.8042)" /><path
   d="m 677.466,478.739 h -1.082 v 1.06 h 1.082 z"
   style="fill:#f9d640;fill-opacity:1;fill-rule:nonzero;stroke:#000000;stroke-width:0.370439;stroke-linecap:butt;stroke-linejoin:miter;stroke-miterlimit:10;stroke-dasharray:none;stroke-opacity:1"
   id="path2870"
   clip-path="none"
   transform="matrix(0.68669889,0,0,0.66325551,-1624.7292,1679.8042)" /><path
   d="m 679.557,478.739 h -1.082 v 1.06 h 1.082 z"
   style="fill:#f9d640;fill-opacity:1;fill-rule:nonzero;stroke:#000000;stroke-width:0.370439;stroke-linecap:butt;stroke-linejoin:miter;stroke-miterlimit:10;stroke-dasharray:none;stroke-opacity:1"
   id="path2872"
   clip-path="none"
   transform="matrix(0.68669889,0,0,0.66325551,-1624.7292,1679.8042)" /><path
   d="m 681.648,478.739 h -1.082 v 1.06 h 1.082 z"
   style="fill:#f9d640;fill-opacity:1;fill-rule:nonzero;stroke:#000000;stroke-width:0.370439;stroke-linecap:butt;stroke-linejoin:miter;stroke-miterlimit:10;stroke-dasharray:none;stroke-opacity:1"
   id="path2874"
   clip-path="none"
   transform="matrix(0.68669889,0,0,0.66325551,-1624.7292,1679.8042)" /><path
   d="m 683.74,478.739 h -1.082 v 1.06 h 1.082 z"
   style="fill:#f9d640;fill-opacity:1;fill-rule:nonzero;stroke:#000000;stroke-width:0.370439;stroke-linecap:butt;stroke-linejoin:miter;stroke-miterlimit:10;stroke-dasharray:none;stroke-opacity:1"
   id="path2876"
   clip-path="none"
   transform="matrix(0.68669889,0,0,0.66325551,-1624.7292,1679.8042)" /><path
   d="m 685.831,478.739 h -1.082 v 1.06 h 1.082 z"
   style="fill:#f9d640;fill-opacity:1;fill-rule:nonzero;stroke:#000000;stroke-width:0.370439;stroke-linecap:butt;stroke-linejoin:miter;stroke-miterlimit:10;stroke-dasharray:none;stroke-opacity:1"
   id="path2878"
   clip-path="none"
   transform="matrix(0.68669889,0,0,0.66325551,-1624.7292,1679.8042)" /><path
   d="m 662.826,477.019 h -1.082 v 1.06 h 1.082 z"
   style="fill:#f9d640;fill-opacity:1;fill-rule:nonzero;stroke:#000000;stroke-width:0.370439;stroke-linecap:butt;stroke-linejoin:miter;stroke-miterlimit:10;stroke-dasharray:none;stroke-opacity:1"
   id="path2880"
   clip-path="none"
   transform="matrix(0.68669889,0,0,0.66325551,-1624.7292,1679.8042)" /><path
   d="m 664.918,477.019 h -1.082 v 1.06 h 1.082 z"
   style="fill:#f9d640;fill-opacity:1;fill-rule:nonzero;stroke:#000000;stroke-width:0.370439;stroke-linecap:butt;stroke-linejoin:miter;stroke-miterlimit:10;stroke-dasharray:none;stroke-opacity:1"
   id="path2882"
   clip-path="none"
   transform="matrix(0.68669889,0,0,0.66325551,-1624.7292,1679.8042)" /><path
   d="m 667.009,477.019 h -1.082 v 1.06 h 1.082 z"
   style="fill:#f9d640;fill-opacity:1;fill-rule:nonzero;stroke:#000000;stroke-width:0.370439;stroke-linecap:butt;stroke-linejoin:miter;stroke-miterlimit:10;stroke-dasharray:none;stroke-opacity:1"
   id="path2884"
   clip-path="none"
   transform="matrix(0.68669889,0,0,0.66325551,-1624.7292,1679.8042)" /><path
   d="m 669.1,477.019 h -1.082 v 1.06 h 1.082 z"
   style="fill:#f9d640;fill-opacity:1;fill-rule:nonzero;stroke:#000000;stroke-width:0.370439;stroke-linecap:butt;stroke-linejoin:miter;stroke-miterlimit:10;stroke-dasharray:none;stroke-opacity:1"
   id="path2886"
   clip-path="none"
   transform="matrix(0.68669889,0,0,0.66325551,-1624.7292,1679.8042)" /><path
   d="m 671.192,477.019 h -1.082 v 1.06 h 1.082 z"
   style="fill:#f9d640;fill-opacity:1;fill-rule:nonzero;stroke:#000000;stroke-width:0.370439;stroke-linecap:butt;stroke-linejoin:miter;stroke-miterlimit:10;stroke-dasharray:none;stroke-opacity:1"
   id="path2888"
   clip-path="none"
   transform="matrix(0.68669889,0,0,0.66325551,-1624.7292,1679.8042)" /><path
   d="m 673.283,477.019 h -1.082 v 1.06 h 1.082 z"
   style="fill:#f9d640;fill-opacity:1;fill-rule:nonzero;stroke:#000000;stroke-width:0.370439;stroke-linecap:butt;stroke-linejoin:miter;stroke-miterlimit:10;stroke-dasharray:none;stroke-opacity:1"
   id="path2890"
   clip-path="none"
   transform="matrix(0.68669889,0,0,0.66325551,-1624.7292,1679.8042)" /><path
   d="m 675.374,477.019 h -1.082 v 1.06 h 1.082 z"
   style="fill:#f9d640;fill-opacity:1;fill-rule:nonzero;stroke:#000000;stroke-width:0.370439;stroke-linecap:butt;stroke-linejoin:miter;stroke-miterlimit:10;stroke-dasharray:none;stroke-opacity:1"
   id="path2892"
   clip-path="none"
   transform="matrix(0.68669889,0,0,0.66325551,-1624.7292,1679.8042)" /><path
   d="m 677.466,477.019 h -1.082 v 1.06 h 1.082 z"
   style="fill:#f9d640;fill-opacity:1;fill-rule:nonzero;stroke:#000000;stroke-width:0.370439;stroke-linecap:butt;stroke-linejoin:miter;stroke-miterlimit:10;stroke-dasharray:none;stroke-opacity:1"
   id="path2894"
   clip-path="none"
   transform="matrix(0.68669889,0,0,0.66325551,-1624.7292,1679.8042)" /><path
   d="m 679.557,477.019 h -1.082 v 1.06 h 1.082 z"
   style="fill:#f9d640;fill-opacity:1;fill-rule:nonzero;stroke:#000000;stroke-width:0.370439;stroke-linecap:butt;stroke-linejoin:miter;stroke-miterlimit:10;stroke-dasharray:none;stroke-opacity:1"
   id="path2896"
   clip-path="none"
   transform="matrix(0.68669889,0,0,0.66325551,-1624.7292,1679.8042)" /><path
   d="m 681.648,477.019 h -1.082 v 1.06 h 1.082 z"
   style="fill:#f9d640;fill-opacity:1;fill-rule:nonzero;stroke:#000000;stroke-width:0.370439;stroke-linecap:butt;stroke-linejoin:miter;stroke-miterlimit:10;stroke-dasharray:none;stroke-opacity:1"
   id="path2898"
   clip-path="none"
   transform="matrix(0.68669889,0,0,0.66325551,-1624.7292,1679.8042)" /><path
   d="m 683.74,477.019 h -1.082 v 1.06 h 1.082 z"
   style="fill:#f9d640;fill-opacity:1;fill-rule:nonzero;stroke:#000000;stroke-width:0.370439;stroke-linecap:butt;stroke-linejoin:miter;stroke-miterlimit:10;stroke-dasharray:none;stroke-opacity:1"
   id="path2900"
   clip-path="none"
   transform="matrix(0.68669889,0,0,0.66325551,-1624.7292,1679.8042)" /><path
   d="m 685.831,477.019 h -1.082 v 1.06 h 1.082 z"
   style="fill:#f9d640;fill-opacity:1;fill-rule:nonzero;stroke:#000000;stroke-width:0.370439;stroke-linecap:butt;stroke-linejoin:miter;stroke-miterlimit:10;stroke-dasharray:none;stroke-opacity:1"
   id="path2902"
   clip-path="none"
   transform="matrix(0.68669889,0,0,0.66325551,-1624.7292,1679.8042)" />








<style
   type="text/css"
   id="style1-5">
	.st0{fill:none;stroke:#000;stroke-width:2;}
	.st1{fill:#fff;stroke:#000;stroke-width:2;stroke-linejoin:round;}
	.st2{font-family:Liberation Sans,Arial;}
	.st3{font-size:17px;}
</style>










<!-- Outer cylindrical part --><!-- Inner optical port --><!-- Optical emitter (glowing red light) --><!-- Connector back end --><!-- Detail lines for depth --><!-- Device Panel --><!-- TOSLINK Port Cutout --><!-- Inner Optical Port --><!-- Optical Emitter (glowing red light) --><!-- Protective Cover --><!-- Detail Lines for Depth --></g><metadata
     id="metadata1"><rdf:RDF><cc:Work
         rdf:about=""><dc:title>Open Connector Graphics</dc:title><dc:date>03/04/2025</dc:date><dc:creator><cc:Agent><dc:title>Wikke Andeweg</dc:title></cc:Agent></dc:creator><dc:rights><cc:Agent><dc:title>Creative Commons Attribution 4.0 International</dc:title></cc:Agent></dc:rights><dc:source>https://github.com/WyzzyMoon/OpenConnectorGraphics</dc:source></cc:Work></rdf:RDF></metadata></svg>
