<?xml version="1.0" encoding="UTF-8" standalone="no"?>
<!-- Created with Inkscape (http://www.inkscape.org/) -->

<svg
   version="1.1"
   id="svg2"
   width="56.692886"
   height="219.62764"
   viewBox="0 0 56.692888 219.62764"
   xml:space="preserve"
   xmlns="http://www.w3.org/2000/svg"
   xmlns:svg="http://www.w3.org/2000/svg"
   xmlns:rdf="http://www.w3.org/1999/02/22-rdf-syntax-ns#"
   xmlns:cc="http://creativecommons.org/ns#"
   xmlns:dc="http://purl.org/dc/elements/1.1/"><title
     id="title1">Open Connector Graphics</title><defs
     id="defs6"><linearGradient
       id="linearGradient5590"><stop
         id="stop5592"
         offset="0"
         style="stop-color:#a91616;stop-opacity:1;" /></linearGradient><linearGradient
       id="linearGradient5660"><stop
         id="stop5662"
         offset="0"
         style="stop-color:#000000;stop-opacity:1;" /></linearGradient><style
       type="text/css"
       id="style1">
	.st0{fill:none;stroke:#000000;stroke-width:7;stroke-miterlimit:10;}
	.st1{fill:none;stroke:#000000;stroke-width:3;stroke-miterlimit:10;}
	.st2{fill:none;stroke:#000000;stroke-width:4;stroke-miterlimit:10;}
</style></defs><g
     id="g2466"
     transform="matrix(1.3333333,0,0,-1.3333333,1923.79,2611.078)"
     style="display:inline"><path
   d="m -1400.3228,1958.3086 h -3.6926 -35.1372 -3.6899 v -42.5197 l 3.6637,-3.6637 h 0.03 v -10.512 l 7.4364,-27.4376 h 10.1285 v 0 0 h 10.1285 l 7.4371,27.4376 v 10.512 0 l 3.6637,3.6637 h 0.026 z"
   style="fill:#1a1a1a;fill-opacity:1;fill-rule:nonzero;stroke:none;stroke-width:1"
   id="path2818"
   clip-path="none" /><path
   d="m -1424.7612,1895.7462 c 0,-0.8687 0.255,-1.7999 0.7919,-2.4822 0.4132,-0.5255 1.0578,-0.915 1.7145,-1.0395 0.5087,-0.097 1.1169,-0.049 1.5314,0.2624 0.7025,0.5275 0.7502,1.5899 1.1539,2.3698 0.3997,0.7731 0.356,0.8471 0.7631,0.9393 0.3344,0.075 0.73,-0.1649 0.9729,-0.4064 0.1844,-0.183 0.2631,-0.4555 0.3297,-0.7072 0.051,-0.1924 0.077,-0.3983 0.048,-0.5955 -0.049,-0.3256 -0.1057,-0.7118 -0.362,-0.9184 -0.2961,-0.2389 -1.1264,-0.1844 -1.1264,-0.1844 v -1.6734 c 0,0 1.306,-0.1325 1.8349,0.181 0.43,0.2551 0.6702,0.7698 0.8451,1.2381 0.1527,0.4077 0.1911,0.8639 0.1501,1.2973 -0.073,0.7764 -0.2752,1.5791 -0.7012,2.2332 -0.329,0.5046 -0.8087,0.9433 -1.3578,1.1916 -0.3761,0.1702 -0.8989,0.1736 -1.2306,0.1588 -0.3318,-0.015 -1.0786,-0.401 -1.3195,-1.0194 -0.2402,-0.6157 -0.3351,-1.7023 -0.7395,-2.2621 -0.2173,-0.3015 -0.3539,-0.3903 -0.7253,-0.4011 -0.3627,-0.011 -0.8337,0.3654 -1.0402,0.6642 -0.1918,0.2778 -0.212,0.623 -0.1804,0.9594 0.028,0.3082 0.1117,0.7308 0.3688,0.8519 0.2563,0.1204 0.8175,0.1245 0.8175,0.1245 v 1.5448 c -1.3282,0 -1.5126,-0.1413 -2.0092,-0.6432 -0.4138,-0.4179 -0.5308,-1.0954 -0.5295,-1.6835 m -1.2307,16.8826 c 0,-0.5962 0.3782,-1.0988 0.9097,-1.2852 v -1.9189 c 0,-0.6123 0.3385,-1.2529 0.7321,-1.6613 0,-7e-4 0,7e-4 0,0 0.01,-0.01 3.042,-2.9431 3.042,-2.9431 0.1857,-0.2314 0.3156,-0.5336 0.323,-0.8451 v -1.7534 c -0.1158,-0.4872 -0.2443,-0.9918 -0.4798,-1.3182 -0.2173,-0.3014 -0.3539,-0.3889 -0.7253,-0.3996 -0.3627,-0.01 -0.8337,0.366 -1.0402,0.6641 -0.1918,0.2785 -0.212,0.6217 -0.181,0.9581 0.029,0.3082 0.1123,0.7314 0.3694,0.8518 0.2563,0.1205 0.8175,0.1265 0.8175,0.1265 v 1.5429 c -1.3282,0 -1.5126,-0.1413 -2.0092,-0.6433 -0.4138,-0.4178 -0.5308,-1.094 -0.5295,-1.6814 0,-0.8687 0.257,-1.7999 0.794,-2.4829 0.4131,-0.5248 1.0557,-0.9164 1.7124,-1.0409 0.5087,-0.097 1.1169,-0.046 1.5314,0.2645 0.7025,0.5275 0.7502,1.5879 1.1539,2.3677 0.3997,0.7732 0.356,0.8485 0.7631,0.9407 0.3344,0.076 0.73,-0.1662 0.9729,-0.4078 0.1844,-0.183 0.2631,-0.4555 0.3297,-0.7071 0.051,-0.1925 0.077,-0.3984 0.048,-0.5955 -0.049,-0.3257 -0.1057,-0.7119 -0.362,-0.9184 -0.2961,-0.2389 -1.1264,-0.1844 -1.1264,-0.1844 v -1.6734 c 0,0 1.306,-0.1325 1.8349,0.181 0.43,0.255 0.6702,0.7697 0.8451,1.2381 0.1521,0.4077 0.1911,0.8639 0.1501,1.2972 -0.073,0.7772 -0.2752,1.5792 -0.7018,2.2332 -0.3284,0.5047 -0.8081,0.9454 -1.3572,1.193 -0.3761,0.1702 -0.8989,0.1722 -1.2306,0.1574 -0.1622,-0.01 -0.4226,-0.1029 -0.6763,-0.2718 0,1.1903 0,2.4445 0,3.4814 0.01,0.3108 0.1373,0.6123 0.323,0.843 0,0 3.2028,2.8785 3.2129,2.8873 0.5457,0.5665 0.5632,1.1573 0.5686,1.4338 v 2.1188 h 0.9097 v 2.7318 h -2.7312 v -2.7318 h 0.9097 v -2.1444 c -0.01,-0.3115 -0.1271,-0.6149 -0.3122,-0.8464 l -2.8805,-2.4943 0.01,10.2651 h 0.9103 l -1.3658,2.3664 -1.3659,-2.3664 h 0.9097 v -13.6832 l -2.8684,2.7776 c -0.185,0.2314 -0.3115,0.5356 -0.3189,0.8471 0,1.2602 6e-4,1.6687 0,1.9445 0.5322,0.1864 0.9097,0.689 0.9097,1.2852 0,0.7549 -0.611,1.3659 -1.3659,1.3659 -0.755,0 -1.3653,-0.611 -1.3653,-1.3659 z m 0.9293,5.1386 c -0.053,-0.3768 -0.2436,-0.7711 -0.6177,-0.9158 -0.3977,-0.1803 -0.7058,-0.1245 -0.7058,-0.1245 v 0.7193 c 0,0 0.5086,0.09 0.6607,0.3075 0.2718,0.3418 0.1258,0.9313 -0.2987,1.0712 -0.4105,0.1669 -0.8626,0.1211 -1.2946,0.113 -0.3452,-0.028 -0.7731,-0.044 -0.975,-0.3747 -0.084,-0.1635 -0.098,-0.3614 -0.063,-0.539 0.1151,-0.3647 0.1844,-0.4165 0.652,-0.5524 l -0.011,-0.6695 -3.2869,-0.01 c 0,0 0,2.5811 -0.01,2.6329 h 0.6884 l -0.01,-1.8584 h 1.6909 c 0,0 -0.2469,0.2618 -0.2664,0.4125 -0.1178,0.2631 -0.1144,0.5632 -0.07,0.8424 0.1083,0.4286 0.5208,0.6964 0.9333,0.7798 0.4696,0.1137 0.9547,0.096 1.4331,0.086 0.4488,-0.042 0.94,-0.1434 1.2462,-0.504 0.2415,-0.3001 0.3088,-0.5612 0.3068,-1.0725 0,-0.1561 0,-0.2288 -0.01,-0.3425 z"
   style="fill:#ffffff;fill-opacity:1;fill-rule:nonzero;stroke:none;stroke-width:1"
   id="path4140"
   clip-path="none" /><rect
   style="fill:#1a1a1a;fill-opacity:1;stroke:none;stroke-width:0.750001;stroke-dasharray:none"
   id="rect173"
   width="12.849434"
   height="81.640297"
   x="-1428.0074"
   y="-1875.0662"
   transform="scale(1,-1)"
   clip-path="none" />








<style
   type="text/css"
   id="style1-5">
	.st0{fill:none;stroke:#000;stroke-width:2;}
	.st1{fill:#fff;stroke:#000;stroke-width:2;stroke-linejoin:round;}
	.st2{font-family:Liberation Sans,Arial;}
	.st3{font-size:17px;}
</style>










<!-- Outer cylindrical part --><!-- Inner optical port --><!-- Optical emitter (glowing red light) --><!-- Connector back end --><!-- Detail lines for depth --><!-- Device Panel --><!-- TOSLINK Port Cutout --><!-- Inner Optical Port --><!-- Optical Emitter (glowing red light) --><!-- Protective Cover --><!-- Detail Lines for Depth --></g><metadata
     id="metadata1"><rdf:RDF><cc:Work
         rdf:about=""><dc:title>Open Connector Graphics</dc:title><dc:date>03/04/2025</dc:date><dc:creator><cc:Agent><dc:title>Wikke Andeweg</dc:title></cc:Agent></dc:creator><dc:rights><cc:Agent><dc:title>Creative Commons Attribution 4.0 International</dc:title></cc:Agent></dc:rights><dc:source>https://github.com/WyzzyMoon/OpenConnectorGraphics</dc:source></cc:Work></rdf:RDF></metadata></svg>
