<?xml version="1.0" encoding="UTF-8" standalone="no"?>
<!-- Created with Inkscape (http://www.inkscape.org/) -->

<svg
   version="1.1"
   id="svg2"
   width="52.581207"
   height="16.833939"
   viewBox="0 0 52.581209 16.833939"
   xml:space="preserve"
   xmlns="http://www.w3.org/2000/svg"
   xmlns:svg="http://www.w3.org/2000/svg"
   xmlns:rdf="http://www.w3.org/1999/02/22-rdf-syntax-ns#"
   xmlns:cc="http://creativecommons.org/ns#"
   xmlns:dc="http://purl.org/dc/elements/1.1/"><title
     id="title1">Open Connector Graphics</title><defs
     id="defs6"><linearGradient
       id="linearGradient5590"><stop
         id="stop5592"
         offset="0"
         style="stop-color:#a91616;stop-opacity:1;" /></linearGradient><linearGradient
       id="linearGradient5660"><stop
         id="stop5662"
         offset="0"
         style="stop-color:#000000;stop-opacity:1;" /></linearGradient><style
       type="text/css"
       id="style1">
	.st0{fill:none;stroke:#000000;stroke-width:7;stroke-miterlimit:10;}
	.st1{fill:none;stroke:#000000;stroke-width:3;stroke-miterlimit:10;}
	.st2{fill:none;stroke:#000000;stroke-width:4;stroke-miterlimit:10;}
</style></defs><g
     id="g2466"
     transform="matrix(1.3333333,0,0,-1.3333333,1398.0628,2674.9868)"
     style="display:inline"><path
   d="m -1031.7417,1993.9893 h 16.0101 c 0.3082,0 0.6029,0.1293 0.8109,0.3564 l 2.8109,3.0653 c 0.1658,0.1804 0.3873,0.3007 0.63,0.3413 l 1.0754,0.179 c 0.5298,0.088 0.9179,0.5451 0.9179,1.0811 v 5.757 c 0,0.606 -0.4921,1.0962 -1.0988,1.0962 h -21.1564 5.8253 -21.1564 c -0.6067,0 -1.0988,-0.4902 -1.0988,-1.0962 v -5.757 c 0,-0.536 0.3889,-0.9932 0.9187,-1.0811 l 1.0746,-0.179 c 0.2426,-0.041 0.4642,-0.1609 0.6307,-0.3413 l 2.8102,-3.0653 c 0.2087,-0.2271 0.5026,-0.3564 0.8109,-0.3564 h 16.0101"
   style="fill:#1a1a1a;fill-opacity:1;fill-rule:nonzero;stroke:#000000;stroke-width:0.75;stroke-linecap:butt;stroke-linejoin:miter;stroke-miterlimit:10;stroke-dasharray:none;stroke-opacity:1"
   id="path3166"
   clip-path="none" /><path
   d="m -1028.9146,1997.8741 h 14.7049 l 3.4379,2.0533 v 1.6541 h -18.1428 0.1711 -18.1428 v -1.6541 l 3.4379,-2.0533 h 14.7049"
   style="fill:#939598;fill-opacity:1;fill-rule:nonzero;stroke:#000000;stroke-width:0.75;stroke-linecap:butt;stroke-linejoin:miter;stroke-miterlimit:10;stroke-dasharray:none;stroke-opacity:1"
   id="path3170"
   clip-path="none" /><path
   d="m 781.173,477.664 h -1.353 v 1.325 h 1.353 z"
   style="fill:#f9d640;fill-opacity:1;fill-rule:nonzero;stroke:#000000;stroke-width:0.664254;stroke-linecap:butt;stroke-linejoin:miter;stroke-miterlimit:10;stroke-dasharray:none;stroke-opacity:1"
   id="path3172"
   clip-path="none"
   transform="matrix(0.7535949,0,0,0.75185542,-1630.0165,1641.9482)" /><path
   d="m 781.257,480.354 h -1.878 v 1.84 h 1.878 z"
   style="fill:#939598;fill-opacity:1;fill-rule:nonzero;stroke:#000000;stroke-width:0.664254;stroke-linecap:butt;stroke-linejoin:miter;stroke-miterlimit:10;stroke-dasharray:none;stroke-opacity:1"
   id="path3174"
   clip-path="none"
   transform="matrix(0.7535949,0,0,0.75185542,-1630.0165,1641.9482)" /><path
   d="m 785.109,480.354 h -1.878 v 1.84 h 1.878 z"
   style="fill:#939598;fill-opacity:1;fill-rule:nonzero;stroke:#000000;stroke-width:0.664254;stroke-linecap:butt;stroke-linejoin:miter;stroke-miterlimit:10;stroke-dasharray:none;stroke-opacity:1"
   id="path3176"
   clip-path="none"
   transform="matrix(0.7535949,0,0,0.75185542,-1630.0165,1641.9482)" /><path
   d="m 788.96,480.354 h -1.878 v 1.84 h 1.878 z"
   style="fill:#939598;fill-opacity:1;fill-rule:nonzero;stroke:#000000;stroke-width:0.664254;stroke-linecap:butt;stroke-linejoin:miter;stroke-miterlimit:10;stroke-dasharray:none;stroke-opacity:1"
   id="path3178"
   clip-path="none"
   transform="matrix(0.7535949,0,0,0.75185542,-1630.0165,1641.9482)" /><path
   d="m 792.812,480.354 h -1.878 v 1.84 h 1.878 z"
   style="fill:#939598;fill-opacity:1;fill-rule:nonzero;stroke:#000000;stroke-width:0.664254;stroke-linecap:butt;stroke-linejoin:miter;stroke-miterlimit:10;stroke-dasharray:none;stroke-opacity:1"
   id="path3180"
   clip-path="none"
   transform="matrix(0.7535949,0,0,0.75185542,-1630.0165,1641.9482)" /><path
   d="m 796.663,480.354 h -1.878 v 1.84 h 1.878 z"
   style="fill:#939598;fill-opacity:1;fill-rule:nonzero;stroke:#000000;stroke-width:0.664254;stroke-linecap:butt;stroke-linejoin:miter;stroke-miterlimit:10;stroke-dasharray:none;stroke-opacity:1"
   id="path3182"
   clip-path="none"
   transform="matrix(0.7535949,0,0,0.75185542,-1630.0165,1641.9482)" /><path
   d="m 800.515,480.354 h -1.878 v 1.84 h 1.878 z"
   style="fill:#939598;fill-opacity:1;fill-rule:nonzero;stroke:#000000;stroke-width:0.664254;stroke-linecap:butt;stroke-linejoin:miter;stroke-miterlimit:10;stroke-dasharray:none;stroke-opacity:1"
   id="path3184"
   clip-path="none"
   transform="matrix(0.7535949,0,0,0.75185542,-1630.0165,1641.9482)" /><path
   d="m 804.367,480.354 h -1.878 v 1.84 h 1.878 z"
   style="fill:#939598;fill-opacity:1;fill-rule:nonzero;stroke:#000000;stroke-width:0.664254;stroke-linecap:butt;stroke-linejoin:miter;stroke-miterlimit:10;stroke-dasharray:none;stroke-opacity:1"
   id="path3186"
   clip-path="none"
   transform="matrix(0.7535949,0,0,0.75185542,-1630.0165,1641.9482)" /><path
   d="m 808.218,480.354 h -1.878 v 1.84 h 1.878 z"
   style="fill:#939598;fill-opacity:1;fill-rule:nonzero;stroke:#000000;stroke-width:0.664254;stroke-linecap:butt;stroke-linejoin:miter;stroke-miterlimit:10;stroke-dasharray:none;stroke-opacity:1"
   id="path3188"
   clip-path="none"
   transform="matrix(0.7535949,0,0,0.75185542,-1630.0165,1641.9482)" /><path
   d="m 812.07,480.354 h -1.878 v 1.84 h 1.878 z"
   style="fill:#939598;fill-opacity:1;fill-rule:nonzero;stroke:#000000;stroke-width:0.664254;stroke-linecap:butt;stroke-linejoin:miter;stroke-miterlimit:10;stroke-dasharray:none;stroke-opacity:1"
   id="path3190"
   clip-path="none"
   transform="matrix(0.7535949,0,0,0.75185542,-1630.0165,1641.9482)" /><path
   d="m 783.272,469.607 h -1.878 v 1.84 h 1.878 z"
   style="fill:#939598;fill-opacity:1;fill-rule:nonzero;stroke:#000000;stroke-width:0.664254;stroke-linecap:butt;stroke-linejoin:miter;stroke-miterlimit:10;stroke-dasharray:none;stroke-opacity:1"
   id="path3192"
   clip-path="none"
   transform="matrix(0.7535949,0,0,0.75185542,-1630.0165,1641.9482)" /><path
   d="m 787.124,469.607 h -1.878 v 1.84 h 1.878 z"
   style="fill:#939598;fill-opacity:1;fill-rule:nonzero;stroke:#000000;stroke-width:0.664254;stroke-linecap:butt;stroke-linejoin:miter;stroke-miterlimit:10;stroke-dasharray:none;stroke-opacity:1"
   id="path3194"
   clip-path="none"
   transform="matrix(0.7535949,0,0,0.75185542,-1630.0165,1641.9482)" /><path
   d="m 790.975,469.607 h -1.878 v 1.84 h 1.878 z"
   style="fill:#939598;fill-opacity:1;fill-rule:nonzero;stroke:#000000;stroke-width:0.664254;stroke-linecap:butt;stroke-linejoin:miter;stroke-miterlimit:10;stroke-dasharray:none;stroke-opacity:1"
   id="path3196"
   clip-path="none"
   transform="matrix(0.7535949,0,0,0.75185542,-1630.0165,1641.9482)" /><path
   d="m 794.827,469.607 h -1.878 v 1.84 h 1.878 z"
   style="fill:#939598;fill-opacity:1;fill-rule:nonzero;stroke:#000000;stroke-width:0.664254;stroke-linecap:butt;stroke-linejoin:miter;stroke-miterlimit:10;stroke-dasharray:none;stroke-opacity:1"
   id="path3198"
   clip-path="none"
   transform="matrix(0.7535949,0,0,0.75185542,-1630.0165,1641.9482)" /><path
   d="M 798.678,469.607 H 796.8 v 1.84 h 1.878 z"
   style="fill:#939598;fill-opacity:1;fill-rule:nonzero;stroke:#000000;stroke-width:0.664254;stroke-linecap:butt;stroke-linejoin:miter;stroke-miterlimit:10;stroke-dasharray:none;stroke-opacity:1"
   id="path3200"
   clip-path="none"
   transform="matrix(0.7535949,0,0,0.75185542,-1630.0165,1641.9482)" /><path
   d="m 802.53,469.607 h -1.878 v 1.84 h 1.878 z"
   style="fill:#939598;fill-opacity:1;fill-rule:nonzero;stroke:#000000;stroke-width:0.664254;stroke-linecap:butt;stroke-linejoin:miter;stroke-miterlimit:10;stroke-dasharray:none;stroke-opacity:1"
   id="path3202"
   clip-path="none"
   transform="matrix(0.7535949,0,0,0.75185542,-1630.0165,1641.9482)" /><path
   d="m 806.382,469.607 h -1.878 v 1.84 h 1.878 z"
   style="fill:#939598;fill-opacity:1;fill-rule:nonzero;stroke:#000000;stroke-width:0.664254;stroke-linecap:butt;stroke-linejoin:miter;stroke-miterlimit:10;stroke-dasharray:none;stroke-opacity:1"
   id="path3204"
   clip-path="none"
   transform="matrix(0.7535949,0,0,0.75185542,-1630.0165,1641.9482)" /><path
   d="m 810.233,469.607 h -1.878 v 1.84 h 1.878 z"
   style="fill:#939598;fill-opacity:1;fill-rule:nonzero;stroke:#000000;stroke-width:0.664254;stroke-linecap:butt;stroke-linejoin:miter;stroke-miterlimit:10;stroke-dasharray:none;stroke-opacity:1"
   id="path3206"
   clip-path="none"
   transform="matrix(0.7535949,0,0,0.75185542,-1630.0165,1641.9482)" /><path
   d="m 814.085,469.607 h -1.878 v 1.84 h 1.878 z"
   style="fill:#939598;fill-opacity:1;fill-rule:nonzero;stroke:#000000;stroke-width:0.664254;stroke-linecap:butt;stroke-linejoin:miter;stroke-miterlimit:10;stroke-dasharray:none;stroke-opacity:1"
   id="path3208"
   clip-path="none"
   transform="matrix(0.7535949,0,0,0.75185542,-1630.0165,1641.9482)" /><path
   d="m 815.921,480.354 h -1.878 v 1.84 h 1.878 z"
   style="fill:#939598;fill-opacity:1;fill-rule:nonzero;stroke:#000000;stroke-width:0.664254;stroke-linecap:butt;stroke-linejoin:miter;stroke-miterlimit:10;stroke-dasharray:none;stroke-opacity:1"
   id="path3210"
   clip-path="none"
   transform="matrix(0.7535949,0,0,0.75185542,-1630.0165,1641.9482)" /><path
   d="m 785.005,477.664 h -1.353 v 1.325 h 1.353 z"
   style="fill:#f9d640;fill-opacity:1;fill-rule:nonzero;stroke:#000000;stroke-width:0.664254;stroke-linecap:butt;stroke-linejoin:miter;stroke-miterlimit:10;stroke-dasharray:none;stroke-opacity:1"
   id="path3212"
   clip-path="none"
   transform="matrix(0.7535949,0,0,0.75185542,-1630.0165,1641.9482)" /><path
   d="m 788.836,477.664 h -1.353 v 1.325 h 1.353 z"
   style="fill:#f9d640;fill-opacity:1;fill-rule:nonzero;stroke:#000000;stroke-width:0.664254;stroke-linecap:butt;stroke-linejoin:miter;stroke-miterlimit:10;stroke-dasharray:none;stroke-opacity:1"
   id="path3214"
   clip-path="none"
   transform="matrix(0.7535949,0,0,0.75185542,-1630.0165,1641.9482)" /><path
   d="m 792.668,477.664 h -1.353 v 1.325 h 1.353 z"
   style="fill:#f9d640;fill-opacity:1;fill-rule:nonzero;stroke:#000000;stroke-width:0.664254;stroke-linecap:butt;stroke-linejoin:miter;stroke-miterlimit:10;stroke-dasharray:none;stroke-opacity:1"
   id="path3216"
   clip-path="none"
   transform="matrix(0.7535949,0,0,0.75185542,-1630.0165,1641.9482)" /><path
   d="m 796.5,477.664 h -1.353 v 1.325 h 1.353 z"
   style="fill:#f9d640;fill-opacity:1;fill-rule:nonzero;stroke:#000000;stroke-width:0.664254;stroke-linecap:butt;stroke-linejoin:miter;stroke-miterlimit:10;stroke-dasharray:none;stroke-opacity:1"
   id="path3218"
   clip-path="none"
   transform="matrix(0.7535949,0,0,0.75185542,-1630.0165,1641.9482)" /><path
   d="m 800.332,477.664 h -1.353 v 1.325 h 1.353 z"
   style="fill:#f9d640;fill-opacity:1;fill-rule:nonzero;stroke:#000000;stroke-width:0.664254;stroke-linecap:butt;stroke-linejoin:miter;stroke-miterlimit:10;stroke-dasharray:none;stroke-opacity:1"
   id="path3220"
   clip-path="none"
   transform="matrix(0.7535949,0,0,0.75185542,-1630.0165,1641.9482)" /><path
   d="m 804.164,477.664 h -1.353 v 1.325 h 1.353 z"
   style="fill:#f9d640;fill-opacity:1;fill-rule:nonzero;stroke:#000000;stroke-width:0.664254;stroke-linecap:butt;stroke-linejoin:miter;stroke-miterlimit:10;stroke-dasharray:none;stroke-opacity:1"
   id="path3222"
   clip-path="none"
   transform="matrix(0.7535949,0,0,0.75185542,-1630.0165,1641.9482)" /><path
   d="m 807.995,477.664 h -1.353 v 1.325 h 1.353 z"
   style="fill:#f9d640;fill-opacity:1;fill-rule:nonzero;stroke:#000000;stroke-width:0.664254;stroke-linecap:butt;stroke-linejoin:miter;stroke-miterlimit:10;stroke-dasharray:none;stroke-opacity:1"
   id="path3224"
   clip-path="none"
   transform="matrix(0.7535949,0,0,0.75185542,-1630.0165,1641.9482)" /><path
   d="m 811.827,477.664 h -1.353 v 1.325 h 1.353 z"
   style="fill:#f9d640;fill-opacity:1;fill-rule:nonzero;stroke:#000000;stroke-width:0.664254;stroke-linecap:butt;stroke-linejoin:miter;stroke-miterlimit:10;stroke-dasharray:none;stroke-opacity:1"
   id="path3226"
   clip-path="none"
   transform="matrix(0.7535949,0,0,0.75185542,-1630.0165,1641.9482)" /><path
   d="m 815.659,477.664 h -1.353 v 1.325 h 1.353 z"
   style="fill:#f9d640;fill-opacity:1;fill-rule:nonzero;stroke:#000000;stroke-width:0.664254;stroke-linecap:butt;stroke-linejoin:miter;stroke-miterlimit:10;stroke-dasharray:none;stroke-opacity:1"
   id="path3228"
   clip-path="none"
   transform="matrix(0.7535949,0,0,0.75185542,-1630.0165,1641.9482)" /><path
   d="m 783.089,472.734 h -1.353 v 1.325 h 1.353 z"
   style="fill:#f9d640;fill-opacity:1;fill-rule:nonzero;stroke:#000000;stroke-width:0.664254;stroke-linecap:butt;stroke-linejoin:miter;stroke-miterlimit:10;stroke-dasharray:none;stroke-opacity:1"
   id="path3230"
   clip-path="none"
   transform="matrix(0.7535949,0,0,0.75185542,-1630.0165,1641.9482)" /><path
   d="m 786.921,472.734 h -1.353 v 1.325 h 1.353 z"
   style="fill:#f9d640;fill-opacity:1;fill-rule:nonzero;stroke:#000000;stroke-width:0.664254;stroke-linecap:butt;stroke-linejoin:miter;stroke-miterlimit:10;stroke-dasharray:none;stroke-opacity:1"
   id="path3232"
   clip-path="none"
   transform="matrix(0.7535949,0,0,0.75185542,-1630.0165,1641.9482)" /><path
   d="m 790.752,472.734 h -1.353 v 1.325 h 1.353 z"
   style="fill:#f9d640;fill-opacity:1;fill-rule:nonzero;stroke:#000000;stroke-width:0.664254;stroke-linecap:butt;stroke-linejoin:miter;stroke-miterlimit:10;stroke-dasharray:none;stroke-opacity:1"
   id="path3234"
   clip-path="none"
   transform="matrix(0.7535949,0,0,0.75185542,-1630.0165,1641.9482)" /><path
   d="m 794.584,472.734 h -1.353 v 1.325 h 1.353 z"
   style="fill:#f9d640;fill-opacity:1;fill-rule:nonzero;stroke:#000000;stroke-width:0.664254;stroke-linecap:butt;stroke-linejoin:miter;stroke-miterlimit:10;stroke-dasharray:none;stroke-opacity:1"
   id="path3236"
   clip-path="none"
   transform="matrix(0.7535949,0,0,0.75185542,-1630.0165,1641.9482)" /><path
   d="m 798.416,472.734 h -1.353 v 1.325 h 1.353 z"
   style="fill:#f9d640;fill-opacity:1;fill-rule:nonzero;stroke:#000000;stroke-width:0.664254;stroke-linecap:butt;stroke-linejoin:miter;stroke-miterlimit:10;stroke-dasharray:none;stroke-opacity:1"
   id="path3238"
   clip-path="none"
   transform="matrix(0.7535949,0,0,0.75185542,-1630.0165,1641.9482)" /><path
   d="m 802.248,472.734 h -1.353 v 1.325 h 1.353 z"
   style="fill:#f9d640;fill-opacity:1;fill-rule:nonzero;stroke:#000000;stroke-width:0.664254;stroke-linecap:butt;stroke-linejoin:miter;stroke-miterlimit:10;stroke-dasharray:none;stroke-opacity:1"
   id="path3240"
   clip-path="none"
   transform="matrix(0.7535949,0,0,0.75185542,-1630.0165,1641.9482)" /><path
   d="m 806.079,472.734 h -1.353 v 1.325 h 1.353 z"
   style="fill:#f9d640;fill-opacity:1;fill-rule:nonzero;stroke:#000000;stroke-width:0.664254;stroke-linecap:butt;stroke-linejoin:miter;stroke-miterlimit:10;stroke-dasharray:none;stroke-opacity:1"
   id="path3242"
   clip-path="none"
   transform="matrix(0.7535949,0,0,0.75185542,-1630.0165,1641.9482)" /><path
   d="m 809.911,472.734 h -1.353 v 1.325 h 1.353 z"
   style="fill:#f9d640;fill-opacity:1;fill-rule:nonzero;stroke:#000000;stroke-width:0.664254;stroke-linecap:butt;stroke-linejoin:miter;stroke-miterlimit:10;stroke-dasharray:none;stroke-opacity:1"
   id="path3244"
   clip-path="none"
   transform="matrix(0.7535949,0,0,0.75185542,-1630.0165,1641.9482)" /><path
   d="m 813.743,472.734 h -1.353 v 1.325 h 1.353 z"
   style="fill:#f9d640;fill-opacity:1;fill-rule:nonzero;stroke:#000000;stroke-width:0.664254;stroke-linecap:butt;stroke-linejoin:miter;stroke-miterlimit:10;stroke-dasharray:none;stroke-opacity:1"
   id="path3246"
   clip-path="none"
   transform="matrix(0.7535949,0,0,0.75185542,-1630.0165,1641.9482)" />








<style
   type="text/css"
   id="style1-5">
	.st0{fill:none;stroke:#000;stroke-width:2;}
	.st1{fill:#fff;stroke:#000;stroke-width:2;stroke-linejoin:round;}
	.st2{font-family:Liberation Sans,Arial;}
	.st3{font-size:17px;}
</style>










<!-- Outer cylindrical part --><!-- Inner optical port --><!-- Optical emitter (glowing red light) --><!-- Connector back end --><!-- Detail lines for depth --><!-- Device Panel --><!-- TOSLINK Port Cutout --><!-- Inner Optical Port --><!-- Optical Emitter (glowing red light) --><!-- Protective Cover --><!-- Detail Lines for Depth --></g><metadata
     id="metadata1"><rdf:RDF><cc:Work
         rdf:about=""><dc:title>Open Connector Graphics</dc:title><dc:date>03/04/2025</dc:date><dc:creator><cc:Agent><dc:title>Wikke Andeweg</dc:title></cc:Agent></dc:creator><dc:rights><cc:Agent><dc:title>Creative Commons Attribution 4.0 International</dc:title></cc:Agent></dc:rights><dc:source>https://github.com/WyzzyMoon/OpenConnectorGraphics</dc:source></cc:Work></rdf:RDF></metadata></svg>
