<?xml version="1.0" encoding="UTF-8" standalone="no"?>
<!-- Created with Inkscape (http://www.inkscape.org/) -->

<svg
   version="1.1"
   id="svg2"
   width="81.109367"
   height="56.39843"
   viewBox="0 0 81.10937 56.398431"
   xml:space="preserve"
   xmlns="http://www.w3.org/2000/svg"
   xmlns:svg="http://www.w3.org/2000/svg"
   xmlns:rdf="http://www.w3.org/1999/02/22-rdf-syntax-ns#"
   xmlns:cc="http://creativecommons.org/ns#"
   xmlns:dc="http://purl.org/dc/elements/1.1/"><title
     id="title1">Open Connector Graphics</title><defs
     id="defs6"><linearGradient
       id="linearGradient5590"><stop
         id="stop5592"
         offset="0"
         style="stop-color:#a91616;stop-opacity:1;" /></linearGradient><linearGradient
       id="linearGradient5660"><stop
         id="stop5662"
         offset="0"
         style="stop-color:#000000;stop-opacity:1;" /></linearGradient><style
       type="text/css"
       id="style1">
	.st0{fill:none;stroke:#000000;stroke-width:7;stroke-miterlimit:10;}
	.st1{fill:none;stroke:#000000;stroke-width:3;stroke-miterlimit:10;}
	.st2{fill:none;stroke:#000000;stroke-width:4;stroke-miterlimit:10;}
</style></defs><g
     id="g2466"
     transform="matrix(1.3333333,0,0,-1.3333333,-2903.9275,2719.6481)"
     style="display:inline">








<style
   type="text/css"
   id="style1-5">
	.st0{fill:none;stroke:#000;stroke-width:2;}
	.st1{fill:#fff;stroke:#000;stroke-width:2;stroke-linejoin:round;}
	.st2{font-family:Liberation Sans,Arial;}
	.st3{font-size:17px;}
</style>










<path
   id="rect325"
   style="display:inline;fill:#1a1a1a;fill-opacity:1;stroke:#000000;stroke-width:0.75;stroke-dasharray:none"
   d="m 2196.5055,2039.3612 a 5.1495278,5.1495278 0 0 1 -3.5112,-1.3828 l -12.1377,-11.313 a 7.9698617,7.9698617 0 0 1 -2.5356,-5.83 v -18.8042 c 0,-2.33 1.8888,-4.2188 4.2187,-4.2188 h 25.8223 25.8223 c 2.3299,0 4.2187,1.8888 4.2187,4.2188 v 18.8042 a 7.9698617,7.9698617 0 0 1 -2.5356,5.83 l -12.1377,11.313 a 5.1495278,5.1495278 0 0 1 -3.5113,1.3828 h -11.8564 z"
   clip-path="none" /><path
   d="m 2205.4199,2035.8231 c 3.3376,0.8344 7.009,0.1335 9.8126,-1.8356 2.4364,-1.6355 4.2054,-4.2054 4.9063,-7.009 0.3671,-1.235 0.067,-2.6034 0.6341,-3.7715 0.5674,-1.0347 1.8691,-0.8344 2.837,-0.9679 5.4069,-0.6008 9.8793,-5.8075 9.3787,-11.2478 -0.067,-6.0745 -6.1746,-11.1143 -12.1489,-10.0796 -4.6393,0.5674 -8.6111,4.5058 -9.2118,9.1451 -0.067,0.9345 -0.6342,1.9024 -1.6689,1.9358 -1.2682,0.033 -2.5699,0.2002 -3.8048,-0.1669 -0.8678,-0.3004 -1.0681,-1.3017 -1.2016,-2.1027 -0.5006,-3.1374 -2.5366,-5.9076 -5.2067,-7.5096 -2.1694,-1.1682 -4.7394,-1.6355 -7.1424,-1.1682 -3.4378,0.534 -6.4083,3.0039 -7.9102,6.0745 -1.0013,2.3029 -1.335,5.0064 -0.5674,7.4428 1.1682,4.4391 5.5738,7.7099 10.1464,7.7767 1.4685,-0.1001 2.0359,1.5019 1.9692,2.7035 0.2336,5.1065 4.2053,9.7124 9.1784,10.7804 z"
   id="path329"
   style="display:inline;fill:#333333;fill-opacity:1;stroke:#000000;stroke-width:0.75;stroke-dasharray:none"
   clip-path="none" /><circle
   style="fill:#000000;fill-opacity:1;stroke:#000000;stroke-width:0.75;stroke-dasharray:none"
   id="circle329"
   cx="2208.3616"
   cy="-2024.3014"
   r="5.0108271"
   transform="scale(1,-1)"
   clip-path="none" /><circle
   style="fill:#000000;fill-opacity:1;stroke:#000000;stroke-width:0.75;stroke-dasharray:none"
   id="circle330"
   cx="2194.4849"
   cy="-2011.3679"
   r="3.7352369"
   transform="scale(1,-1)"
   clip-path="none" /><circle
   style="fill:#000000;fill-opacity:1;stroke:#000000;stroke-width:0.75;stroke-dasharray:none"
   id="circle331"
   cx="2222.2463"
   cy="-2011.5455"
   r="3.7352369"
   transform="scale(1,-1)"
   clip-path="none" /><!-- Outer cylindrical part --><!-- Inner optical port --><!-- Optical emitter (glowing red light) --><!-- Connector back end --><!-- Detail lines for depth --><!-- Device Panel --><!-- TOSLINK Port Cutout --><!-- Inner Optical Port --><!-- Optical Emitter (glowing red light) --><!-- Protective Cover --><!-- Detail Lines for Depth --></g><metadata
     id="metadata1"><rdf:RDF><cc:Work
         rdf:about=""><dc:title>Open Connector Graphics</dc:title><dc:date>03/04/2025</dc:date><dc:creator><cc:Agent><dc:title>Wikke Andeweg</dc:title></cc:Agent></dc:creator><dc:rights><cc:Agent><dc:title>Creative Commons Attribution 4.0 International</dc:title></cc:Agent></dc:rights><dc:source>https://github.com/WyzzyMoon/OpenConnectorGraphics</dc:source></cc:Work></rdf:RDF></metadata></svg>
