<?xml version="1.0" encoding="UTF-8" standalone="no"?>
<!-- Created with Inkscape (http://www.inkscape.org/) -->

<svg
   version="1.1"
   id="svg2"
   width="33.682758"
   height="33.683323"
   viewBox="0 0 33.682759 33.683323"
   xml:space="preserve"
   xmlns="http://www.w3.org/2000/svg"
   xmlns:svg="http://www.w3.org/2000/svg"
   xmlns:rdf="http://www.w3.org/1999/02/22-rdf-syntax-ns#"
   xmlns:cc="http://creativecommons.org/ns#"
   xmlns:dc="http://purl.org/dc/elements/1.1/"><title
     id="title1">Open Connector Graphics</title><defs
     id="defs6"><linearGradient
       id="linearGradient5590"><stop
         id="stop5592"
         offset="0"
         style="stop-color:#a91616;stop-opacity:1;" /></linearGradient><linearGradient
       id="linearGradient5660"><stop
         id="stop5662"
         offset="0"
         style="stop-color:#000000;stop-opacity:1;" /></linearGradient><style
       type="text/css"
       id="style1">
	.st0{fill:none;stroke:#000000;stroke-width:7;stroke-miterlimit:10;}
	.st1{fill:none;stroke:#000000;stroke-width:3;stroke-miterlimit:10;}
	.st2{fill:none;stroke:#000000;stroke-width:4;stroke-miterlimit:10;}
</style></defs><g
     id="g2466"
     transform="matrix(1.3333333,0,0,-1.3333333,-502.41078,2690.8361)"
     style="display:inline">








<style
   type="text/css"
   id="style1-5">
	.st0{fill:none;stroke:#000;stroke-width:2;}
	.st1{fill:#fff;stroke:#000;stroke-width:2;stroke-linejoin:round;}
	.st2{font-family:Liberation Sans,Arial;}
	.st3{font-size:17px;}
</style>










<!-- Outer cylindrical part --><!-- Inner optical port --><!-- Optical emitter (glowing red light) --><!-- Connector back end --><!-- Detail lines for depth --><!-- Device Panel --><!-- TOSLINK Port Cutout --><!-- Inner Optical Port --><!-- Optical Emitter (glowing red light) --><!-- Protective Cover --><!-- Detail Lines for Depth --><path
   d="m 377.18296,2005.4956 c 0,-6.7688 5.48705,-12.256 12.25578,-12.2559 6.76879,0 12.25629,5.487 12.25629,12.2559 0,6.7688 -5.48765,12.2566 -12.25637,12.2566 -6.76872,-2e-4 -12.25577,-5.4878 -12.2557,-12.2566 z"
   style="fill:#939598;fill-opacity:1;stroke:#000000;stroke-width:0.749996;stroke-dasharray:none"
   id="path3"
   clip-path="none" /><path
   d="m 397.20321,2013.2898 c -1.59258,1.5924 -3.55115,2.5951 -5.60451,3.0094 v -1.9483 h -0.0617 -4.25779 -0.0617 v 1.9481 c -2.05358,-0.4145 -4.012,-1.4173 -5.60421,-3.0097 -3.64252,-3.6424 -4.2018,-9.1992 -1.68031,-13.4309 h 3.83723 v -3.8385 c 3.46275,-2.0639 7.81265,-2.0639 11.2754,-10e-5 v 3.8384 h 3.83745 c 2.52187,4.232 1.96288,9.7891 -1.67971,13.4317 z"
   style="fill:#1a1a1a;fill-opacity:1;stroke:#000000;stroke-width:0.749996;stroke-dasharray:none"
   id="path5"
   clip-path="none" /><rect
   width="3.2085979"
   height="6.7622271"
   x="1996.5731"
   y="386.02701"
   style="fill:#000000;stroke:#000000;stroke-width:0.749996;stroke-dasharray:none"
   id="rect7"
   transform="matrix(0,1,1,0,0,0)"
   clip-path="none" /><ellipse
   cx="383.75552"
   cy="-2010.184"
   style="fill:#000000;stroke:#000000;stroke-width:0.749996;stroke-dasharray:none"
   id="circle11"
   transform="scale(1,-1)"
   rx="1.206619"
   ry="1.2066193"
   clip-path="none" /><ellipse
   cx="382.32745"
   cy="-2004.5325"
   style="fill:#000000;stroke:#000000;stroke-width:0.749996;stroke-dasharray:none"
   id="circle13"
   transform="scale(1,-1)"
   rx="1.206619"
   ry="1.2066193"
   clip-path="none" /><ellipse
   cx="396.4819"
   cy="-2004.5325"
   style="fill:#000000;stroke:#000000;stroke-width:0.749996;stroke-dasharray:none"
   id="circle15"
   transform="scale(1,-1)"
   rx="1.206619"
   ry="1.2066193"
   clip-path="none" /><ellipse
   cx="395.05347"
   cy="-2010.184"
   style="fill:#000000;stroke:#000000;stroke-width:0.749996;stroke-dasharray:none"
   id="circle19"
   transform="scale(1,-1)"
   rx="1.206619"
   ry="1.2066193"
   clip-path="none" /></g><metadata
     id="metadata1"><rdf:RDF><cc:Work
         rdf:about=""><dc:title>Open Connector Graphics</dc:title><dc:date>03/04/2025</dc:date><dc:creator><cc:Agent><dc:title>Wikke Andeweg</dc:title></cc:Agent></dc:creator><dc:rights><cc:Agent><dc:title>Creative Commons Attribution 4.0 International</dc:title></cc:Agent></dc:rights><dc:source>https://github.com/WyzzyMoon/OpenConnectorGraphics</dc:source></cc:Work></rdf:RDF></metadata></svg>
