<?xml version="1.0" encoding="UTF-8" standalone="no"?>
<!-- Created with Inkscape (http://www.inkscape.org/) -->

<svg
   version="1.1"
   id="svg2"
   width="34.060001"
   height="18.489832"
   viewBox="0 0 34.060002 18.489832"
   xml:space="preserve"
   xmlns="http://www.w3.org/2000/svg"
   xmlns:svg="http://www.w3.org/2000/svg"
   xmlns:rdf="http://www.w3.org/1999/02/22-rdf-syntax-ns#"
   xmlns:cc="http://creativecommons.org/ns#"
   xmlns:dc="http://purl.org/dc/elements/1.1/"><title
     id="title1">Open Connector Graphics</title><defs
     id="defs6"><linearGradient
       id="linearGradient5590"><stop
         id="stop5592"
         offset="0"
         style="stop-color:#a91616;stop-opacity:1;" /></linearGradient><linearGradient
       id="linearGradient5660"><stop
         id="stop5662"
         offset="0"
         style="stop-color:#000000;stop-opacity:1;" /></linearGradient><style
       type="text/css"
       id="style1">
	.st0{fill:none;stroke:#000000;stroke-width:7;stroke-miterlimit:10;}
	.st1{fill:none;stroke:#000000;stroke-width:3;stroke-miterlimit:10;}
	.st2{fill:none;stroke:#000000;stroke-width:4;stroke-miterlimit:10;}
</style></defs><g
     id="g2466"
     transform="matrix(1.3333333,0,0,-1.3333333,1485.2294,2676.6426)"
     style="display:inline"><path
   d="m -1095.3372,1993.989 h -11.6245 c -3.6361,0 -6.5845,2.9365 -6.5845,6.5598 v 0 c 0,3.6225 2.9484,6.559 6.5845,6.559 h 11.6245 c 3.6361,0 6.5845,-2.9365 6.5845,-6.559 v 0 c 0,-3.6233 -2.9484,-6.5598 -6.5845,-6.5598"
   style="fill:#d1d3d4;fill-opacity:1;fill-rule:nonzero;stroke:#000000;stroke-width:0.75;stroke-dasharray:none"
   id="path3042"
   clip-path="none" /><path
   d="m -1095.3372,1993.989 h -11.6245 c -3.6361,0 -6.5845,2.9365 -6.5845,6.5598 v 0 c 0,3.6225 2.9484,6.559 6.5845,6.559 h 11.6245 c 3.6361,0 6.5845,-2.9365 6.5845,-6.559 v 0 c 0,-3.6233 -2.9484,-6.5598 -6.5845,-6.5598 z"
   style="fill:none;stroke:#000000;stroke-width:0.75;stroke-linecap:butt;stroke-linejoin:miter;stroke-miterlimit:10;stroke-dasharray:none;stroke-opacity:1"
   id="path3046"
   clip-path="none" /><path
   d="m 740.473,469.383 h -19.736 v 4.494 h 19.736 z"
   style="fill:#939598;fill-opacity:1;fill-rule:nonzero;stroke:#000000;stroke-width:0.843556;stroke-linecap:butt;stroke-linejoin:miter;stroke-miterlimit:10;stroke-dasharray:none;stroke-opacity:1"
   id="path3080"
   clip-path="none"
   transform="matrix(0.89076619,0,0,0.8874236,-1752.1828,1582.1084)" /><path
   d="m 723.009,472.552 h -1.353 v 1.325 h 1.353 z"
   style="fill:#f9d640;fill-opacity:1;fill-rule:nonzero;stroke:#000000;stroke-width:0.281185;stroke-linecap:butt;stroke-linejoin:miter;stroke-miterlimit:10;stroke-dasharray:none;stroke-opacity:1"
   id="path3048"
   clip-path="none"
   transform="matrix(0.89076619,0,0,0.8874236,-1752.1828,1582.1084)" /><path
   d="m 725.372,472.552 h -1.353 v 1.325 h 1.353 z"
   style="fill:#f9d640;fill-opacity:1;fill-rule:nonzero;stroke:#000000;stroke-width:0.281185;stroke-linecap:butt;stroke-linejoin:miter;stroke-miterlimit:10;stroke-dasharray:none;stroke-opacity:1"
   id="path3050"
   clip-path="none"
   transform="matrix(0.89076619,0,0,0.8874236,-1752.1828,1582.1084)" /><path
   d="m 727.736,472.552 h -1.353 v 1.325 h 1.353 z"
   style="fill:#f9d640;fill-opacity:1;fill-rule:nonzero;stroke:#000000;stroke-width:0.281185;stroke-linecap:butt;stroke-linejoin:miter;stroke-miterlimit:10;stroke-dasharray:none;stroke-opacity:1"
   id="path3052"
   clip-path="none"
   transform="matrix(0.89076619,0,0,0.8874236,-1752.1828,1582.1084)" /><path
   d="m 730.1,472.552 h -1.353 v 1.325 h 1.353 z"
   style="fill:#f9d640;fill-opacity:1;fill-rule:nonzero;stroke:#000000;stroke-width:0.281185;stroke-linecap:butt;stroke-linejoin:miter;stroke-miterlimit:10;stroke-dasharray:none;stroke-opacity:1"
   id="path3054"
   clip-path="none"
   transform="matrix(0.89076619,0,0,0.8874236,-1752.1828,1582.1084)" /><path
   d="m 732.463,472.552 h -1.353 v 1.325 h 1.353 z"
   style="fill:#f9d640;fill-opacity:1;fill-rule:nonzero;stroke:#000000;stroke-width:0.281185;stroke-linecap:butt;stroke-linejoin:miter;stroke-miterlimit:10;stroke-dasharray:none;stroke-opacity:1"
   id="path3056"
   clip-path="none"
   transform="matrix(0.89076619,0,0,0.8874236,-1752.1828,1582.1084)" /><path
   d="m 734.827,472.552 h -1.353 v 1.325 h 1.353 z"
   style="fill:#f9d640;fill-opacity:1;fill-rule:nonzero;stroke:#000000;stroke-width:0.281185;stroke-linecap:butt;stroke-linejoin:miter;stroke-miterlimit:10;stroke-dasharray:none;stroke-opacity:1"
   id="path3058"
   clip-path="none"
   transform="matrix(0.89076619,0,0,0.8874236,-1752.1828,1582.1084)" /><path
   d="m 737.19,472.552 h -1.353 v 1.325 h 1.353 z"
   style="fill:#f9d640;fill-opacity:1;fill-rule:nonzero;stroke:#000000;stroke-width:0.281185;stroke-linecap:butt;stroke-linejoin:miter;stroke-miterlimit:10;stroke-dasharray:none;stroke-opacity:1"
   id="path3060"
   clip-path="none"
   transform="matrix(0.89076619,0,0,0.8874236,-1752.1828,1582.1084)" /><path
   d="m 739.554,472.552 h -1.353 v 1.325 h 1.353 z"
   style="fill:#f9d640;fill-opacity:1;fill-rule:nonzero;stroke:#000000;stroke-width:0.281185;stroke-linecap:butt;stroke-linejoin:miter;stroke-miterlimit:10;stroke-dasharray:none;stroke-opacity:1"
   id="path3062"
   clip-path="none"
   transform="matrix(0.89076619,0,0,0.8874236,-1752.1828,1582.1084)" /><path
   d="m 723.009,469.383 h -1.353 v 1.325 h 1.353 z"
   style="fill:#f9d640;fill-opacity:1;fill-rule:nonzero;stroke:#000000;stroke-width:0.281185;stroke-linecap:butt;stroke-linejoin:miter;stroke-miterlimit:10;stroke-dasharray:none;stroke-opacity:1"
   id="path3064"
   clip-path="none"
   transform="matrix(0.89076619,0,0,0.8874236,-1752.1828,1582.1084)" /><path
   d="m 725.372,469.383 h -1.353 v 1.325 h 1.353 z"
   style="fill:#f9d640;fill-opacity:1;fill-rule:nonzero;stroke:#000000;stroke-width:0.281185;stroke-linecap:butt;stroke-linejoin:miter;stroke-miterlimit:10;stroke-dasharray:none;stroke-opacity:1"
   id="path3066"
   clip-path="none"
   transform="matrix(0.89076619,0,0,0.8874236,-1752.1828,1582.1084)" /><path
   d="m 727.736,469.383 h -1.353 v 1.325 h 1.353 z"
   style="fill:#f9d640;fill-opacity:1;fill-rule:nonzero;stroke:#000000;stroke-width:0.281185;stroke-linecap:butt;stroke-linejoin:miter;stroke-miterlimit:10;stroke-dasharray:none;stroke-opacity:1"
   id="path3068"
   clip-path="none"
   transform="matrix(0.89076619,0,0,0.8874236,-1752.1828,1582.1084)" /><path
   d="m 730.1,469.383 h -1.353 v 1.325 h 1.353 z"
   style="fill:#f9d640;fill-opacity:1;fill-rule:nonzero;stroke:#000000;stroke-width:0.281185;stroke-linecap:butt;stroke-linejoin:miter;stroke-miterlimit:10;stroke-dasharray:none;stroke-opacity:1"
   id="path3070"
   clip-path="none"
   transform="matrix(0.89076619,0,0,0.8874236,-1752.1828,1582.1084)" /><path
   d="m 732.463,469.383 h -1.353 v 1.325 h 1.353 z"
   style="fill:#f9d640;fill-opacity:1;fill-rule:nonzero;stroke:#000000;stroke-width:0.281185;stroke-linecap:butt;stroke-linejoin:miter;stroke-miterlimit:10;stroke-dasharray:none;stroke-opacity:1"
   id="path3072"
   clip-path="none"
   transform="matrix(0.89076619,0,0,0.8874236,-1752.1828,1582.1084)" /><path
   d="m 734.827,469.383 h -1.353 v 1.325 h 1.353 z"
   style="fill:#f9d640;fill-opacity:1;fill-rule:nonzero;stroke:#000000;stroke-width:0.281185;stroke-linecap:butt;stroke-linejoin:miter;stroke-miterlimit:10;stroke-dasharray:none;stroke-opacity:1"
   id="path3074"
   clip-path="none"
   transform="matrix(0.89076619,0,0,0.8874236,-1752.1828,1582.1084)" /><path
   d="m 737.19,469.383 h -1.353 v 1.325 h 1.353 z"
   style="fill:#f9d640;fill-opacity:1;fill-rule:nonzero;stroke:#000000;stroke-width:0.281185;stroke-linecap:butt;stroke-linejoin:miter;stroke-miterlimit:10;stroke-dasharray:none;stroke-opacity:1"
   id="path3076"
   clip-path="none"
   transform="matrix(0.89076619,0,0,0.8874236,-1752.1828,1582.1084)" /><path
   d="m 739.554,469.383 h -1.353 v 1.325 h 1.353 z"
   style="fill:#f9d640;fill-opacity:1;fill-rule:nonzero;stroke:#000000;stroke-width:0.281185;stroke-linecap:butt;stroke-linejoin:miter;stroke-miterlimit:10;stroke-dasharray:none;stroke-opacity:1"
   id="path3078"
   clip-path="none"
   transform="matrix(0.89076619,0,0,0.8874236,-1752.1828,1582.1084)" />








<style
   type="text/css"
   id="style1-5">
	.st0{fill:none;stroke:#000;stroke-width:2;}
	.st1{fill:#fff;stroke:#000;stroke-width:2;stroke-linejoin:round;}
	.st2{font-family:Liberation Sans,Arial;}
	.st3{font-size:17px;}
</style>










<!-- Outer cylindrical part --><!-- Inner optical port --><!-- Optical emitter (glowing red light) --><!-- Connector back end --><!-- Detail lines for depth --><!-- Device Panel --><!-- TOSLINK Port Cutout --><!-- Inner Optical Port --><!-- Optical Emitter (glowing red light) --><!-- Protective Cover --><!-- Detail Lines for Depth --></g><metadata
     id="metadata1"><rdf:RDF><cc:Work
         rdf:about=""><dc:title>Open Connector Graphics</dc:title><dc:date>03/04/2025</dc:date><dc:creator><cc:Agent><dc:title>Wikke Andeweg</dc:title></cc:Agent></dc:creator><dc:rights><cc:Agent><dc:title>Creative Commons Attribution 4.0 International</dc:title></cc:Agent></dc:rights><dc:source>https://github.com/WyzzyMoon/OpenConnectorGraphics</dc:source></cc:Work></rdf:RDF></metadata></svg>
