<?xml version="1.0" encoding="UTF-8" standalone="no"?>
<!-- Created with Inkscape (http://www.inkscape.org/) -->

<svg
   version="1.1"
   id="svg2"
   width="49.585678"
   height="219.67734"
   viewBox="0 0 49.58568 219.67734"
   xml:space="preserve"
   xmlns="http://www.w3.org/2000/svg"
   xmlns:svg="http://www.w3.org/2000/svg"
   xmlns:rdf="http://www.w3.org/1999/02/22-rdf-syntax-ns#"
   xmlns:cc="http://creativecommons.org/ns#"
   xmlns:dc="http://purl.org/dc/elements/1.1/"><title
     id="title1">Open Connector Graphics</title><defs
     id="defs6"><linearGradient
       id="linearGradient5590"><stop
         id="stop5592"
         offset="0"
         style="stop-color:#a91616;stop-opacity:1;" /></linearGradient><linearGradient
       id="linearGradient5660"><stop
         id="stop5662"
         offset="0"
         style="stop-color:#000000;stop-opacity:1;" /></linearGradient><style
       type="text/css"
       id="style1">
	.st0{fill:none;stroke:#000000;stroke-width:7;stroke-miterlimit:10;}
	.st1{fill:none;stroke:#000000;stroke-width:3;stroke-miterlimit:10;}
	.st2{fill:none;stroke:#000000;stroke-width:4;stroke-miterlimit:10;}
</style></defs><g
     id="g2466"
     transform="matrix(1.3333333,0,0,-1.3333333,1292.7441,2610.9834)"
     style="display:inline"><path
   d="m -937.75038,1894.36 h 5.31961 v 44.174 h -36.85039 v -44.174 h 5.32038 z"
   style="fill:#1a1a1a;fill-opacity:1;fill-rule:nonzero;stroke:none;stroke-width:1"
   id="path2664"
   clip-path="none" /><path
   d="m 894.262,372.122 h 2.412 v -6.167 h -2.412 z"
   style="fill:#ffffff;fill-opacity:1;fill-rule:nonzero;stroke:none;stroke-width:1.29239"
   id="path4070"
   clip-path="none"
   transform="matrix(0.77376157,0,0,0.77376157,-1631.8308,1631.4899)" /><path
   d="m -957.28321,1919.4235 -0.008,-1.187 h 5.22676 v -2.3971 h -3.41229 l -0.008,1.6358 h -1.80674 l 0.008,-2.8235 h 5.77071 c 0.34433,0 0.63836,0.123 0.88519,0.366 0.24605,0.2445 0.36986,0.5401 0.36986,0.8891 v 2.2617 c 0,0.3489 -0.12381,0.6445 -0.36986,0.889 -0.24683,0.243 -0.54086,0.366 -0.88519,0.366 z m 7.7794,0 v -4.7733 h 1.80905 v 3.5833 h 1.72008 v -3.5833 h 1.79822 v 3.5833 h 1.72162 v -3.5833 h 1.80518 l 0.002,3.5183 c 0,0.3482 -0.12303,0.6445 -0.36599,0.889 -0.24451,0.243 -0.53776,0.366 -0.88054,0.366 z"
   style="fill:#ffffff;fill-opacity:1;fill-rule:nonzero;stroke:none;stroke-width:1"
   id="path4074"
   clip-path="none" /><path
   d="m -958.07245,1919.4234 v -4.7718 h -1.89649 v 1.7108 h -3.25521 v -1.7108 h -1.86709 v 4.7718 h 1.86709 v -1.9483 h 3.25521 v 1.9483 z"
   style="fill:#ffffff;fill-opacity:1;fill-rule:nonzero;stroke:none;stroke-width:1"
   id="path4078"
   clip-path="none" /><path
   d="m 899.43,396.274 h -38.737 v 26.467 h 38.737 z"
   style="fill:#d1d3d4;fill-opacity:1;fill-rule:nonzero;stroke:#000000;stroke-width:1.02165;stroke-linecap:butt;stroke-linejoin:miter;stroke-miterlimit:10;stroke-dasharray:none;stroke-opacity:1"
   id="path4150"
   clip-path="none"
   transform="matrix(0.73522254,0,0,0.732991,-1597.897,1648.0688)" /><path
   d="m -950.85636,1957.9962 v -1.0269 c 0,-0.2712 -0.0618,-0.5402 -0.1816,-0.7931 l -0.35217,-0.7403 c -0.075,-0.1584 -0.11396,-0.3262 -0.11396,-0.4955 v -0.327 c 0,-0.2294 0.34408,-0.3386 0.53156,-0.1685 l 0.23234,0.2118 c 0.18748,0.17 0.53156,0.062 0.53156,-0.1686 v -2.0406 1.9336 -2.0407 c 0,-0.2294 -0.34408,-0.3386 -0.53156,-0.1685 l -0.23234,0.2118 c -0.18748,0.1708 -0.53156,0.062 -0.53156,-0.1686 v -0.3262 c 0,-0.17 0.039,-0.3379 0.11396,-0.4955 l 0.35217,-0.741 c 0.11984,-0.2522 0.1816,-0.5212 0.1816,-0.7924 v -1.0277 -1.1346 -1.0269 c 0,-0.2713 -0.0618,-0.5403 -0.1816,-0.7931 l -0.35217,-0.7404 c -0.075,-0.1583 -0.11396,-0.3261 -0.11396,-0.4955 v -0.3269 c 0,-0.2294 0.34408,-0.3386 0.53156,-0.1686 l 0.23234,0.2119 c 0.18748,0.1708 0.53156,0.062 0.53156,-0.1686 v -2.0407 1.9337 -2.0407 c 0,-0.2294 -0.34408,-0.3386 -0.53156,-0.1686 l -0.23234,0.2119 c -0.18748,0.1708 -0.53156,0.062 -0.53156,-0.1686 v -0.3262 c 0,-0.1693 0.039,-0.3379 0.11396,-0.4955 l 0.35217,-0.7411 c 0.11984,-0.2521 0.1816,-0.5211 0.1816,-0.7923 v -1.0277"
   style="fill:none;stroke:#000000;stroke-width:0.749999;stroke-linecap:butt;stroke-linejoin:miter;stroke-miterlimit:10;stroke-dasharray:none;stroke-opacity:1"
   id="path4156"
   clip-path="none" /><rect
   style="fill:#1a1a1a;fill-opacity:1;stroke:none;stroke-width:0.750001;stroke-dasharray:none"
   id="rect180"
   width="15"
   height="100.93413"
   x="-958.35596"
   y="-1894.36"
   transform="scale(1,-1)"
   clip-path="none" />








<style
   type="text/css"
   id="style1-5">
	.st0{fill:none;stroke:#000;stroke-width:2;}
	.st1{fill:#fff;stroke:#000;stroke-width:2;stroke-linejoin:round;}
	.st2{font-family:Liberation Sans,Arial;}
	.st3{font-size:17px;}
</style>










<!-- Outer cylindrical part --><!-- Inner optical port --><!-- Optical emitter (glowing red light) --><!-- Connector back end --><!-- Detail lines for depth --><!-- Device Panel --><!-- TOSLINK Port Cutout --><!-- Inner Optical Port --><!-- Optical Emitter (glowing red light) --><!-- Protective Cover --><!-- Detail Lines for Depth --></g><metadata
     id="metadata1"><rdf:RDF><cc:Work
         rdf:about=""><dc:title>Open Connector Graphics</dc:title><dc:date>03/04/2025</dc:date><dc:creator><cc:Agent><dc:title>Wikke Andeweg</dc:title></cc:Agent></dc:creator><dc:rights><cc:Agent><dc:title>Creative Commons Attribution 4.0 International</dc:title></cc:Agent></dc:rights><dc:source>https://github.com/WyzzyMoon/OpenConnectorGraphics</dc:source></cc:Work></rdf:RDF></metadata></svg>
