<?xml version="1.0" encoding="UTF-8" standalone="no"?>
<!-- Created with Inkscape (http://www.inkscape.org/) -->

<svg
   version="1.1"
   id="svg2"
   width="37.928825"
   height="219.94327"
   viewBox="0 0 37.928826 219.94327"
   xml:space="preserve"
   xmlns="http://www.w3.org/2000/svg"
   xmlns:svg="http://www.w3.org/2000/svg"
   xmlns:rdf="http://www.w3.org/1999/02/22-rdf-syntax-ns#"
   xmlns:cc="http://creativecommons.org/ns#"
   xmlns:dc="http://purl.org/dc/elements/1.1/"><title
     id="title1">Open Connector Graphics</title><defs
     id="defs6"><linearGradient
       id="linearGradient5590"><stop
         id="stop5592"
         offset="0"
         style="stop-color:#a91616;stop-opacity:1;" /></linearGradient><linearGradient
       id="linearGradient5660"><stop
         id="stop5662"
         offset="0"
         style="stop-color:#000000;stop-opacity:1;" /></linearGradient><style
       type="text/css"
       id="style1">
	.st0{fill:none;stroke:#000000;stroke-width:7;stroke-miterlimit:10;}
	.st1{fill:none;stroke:#000000;stroke-width:3;stroke-miterlimit:10;}
	.st2{fill:none;stroke:#000000;stroke-width:4;stroke-miterlimit:10;}
</style></defs><g
     id="g2466"
     transform="matrix(1.3333333,0,0,-1.3333333,2192.3033,2611.1243)"
     style="display:inline"><path
   d="m 234.329,386.009 h -31.123 v 42.852 h 31.123 z"
   style="fill:#d1d3d4;fill-opacity:1;fill-rule:nonzero;stroke:#000000;stroke-width:1.07482;stroke-linecap:butt;stroke-linejoin:miter;stroke-miterlimit:10;stroke-dasharray:none;stroke-opacity:1"
   id="path2548"
   clip-path="none"
   transform="matrix(0.69649989,0,0,0.69908696,-1782.3617,1658.1218)" /><path
   d="m -1629.9903,1957.933 v -4.8097 h 1.8778 v -4.3637 h -1.8778 v -14.4285 h 1.8778 v -6.3554"
   style="fill:none;stroke:#000000;stroke-width:0.750001;stroke-linecap:butt;stroke-linejoin:miter;stroke-miterlimit:10;stroke-dasharray:none;stroke-opacity:1"
   id="path2636"
   clip-path="none" /><path
   d="m -1615.8169,1926.7975 v 4.7072 h -28.3422 v 0 0 -29.6966 l 5.9986,-19.619 h 8.1703 v 0 0 h 8.1704 l 5.9985,19.619 v 29.2327 -4.6986 z"
   style="fill:#1a1a1a;fill-opacity:1;fill-rule:nonzero;stroke:none;stroke-width:0.999999"
   id="path2644"
   clip-path="none" /><path
   d="m -1629.0233,1919.6213 -1.6391,-2.8379 h 1.1695 v -14.5074 l -2.9843,2.825 c -0.1928,0.2402 -0.3284,0.555 -0.3355,0.8784 0,1.3085 0,2.0858 -7e-4,2.3726 0.5521,0.1936 0.9514,0.7148 0.9514,1.3336 0,0.7837 -0.636,1.4197 -1.4197,1.4197 -0.7844,0 -1.4196,-0.636 -1.4196,-1.4197 0,-0.6188 0.3986,-1.14 0.9507,-1.3336 l -7e-4,-2.3447 c 0,-0.6352 0.3492,-1.3013 0.7579,-1.7251 -0.012,0.011 -0.025,0.024 0,-7e-4 0.01,-0.01 3.1656,-2.9971 3.1656,-2.9971 0.1929,-0.2395 0.327,-0.5536 0.3349,-0.8769 v -1.6413 c -1.0842,-0.218 -1.9016,-1.1752 -1.9016,-2.3231 0,-1.3093 1.0619,-2.3712 2.3705,-2.3712 1.3093,0 2.3704,1.0619 2.3704,2.3712 0,1.1486 -0.8174,2.1059 -1.9022,2.3231 v 1.6126 c 0,0 0,0.01 0,0.012 v 3.5664 c 0.01,0.3227 0.1427,0.6367 0.3356,0.8762 0,0 3.1555,2.9871 3.1656,2.9964 0.025,0.024 0.012,0.012 0,0 0.4087,0.4237 0.7571,1.0899 0.7571,1.7258 l -7e-4,2.2594 h 0.9522 v 2.8386 h -2.8386 v -2.8386 h 0.95 c 0,0 -7e-4,-0.5952 -7e-4,-2.2873 -0.01,-0.3234 -0.1427,-0.6382 -0.3356,-0.8784 l -2.9849,-2.8257 v 10.9596 h 1.1716 z"
   style="fill:#ffffff;fill-opacity:1;fill-rule:nonzero;stroke:none;stroke-width:0.999999"
   id="path4116"
   clip-path="none" /><rect
   style="fill:#1a1a1a;fill-opacity:1;stroke:none;stroke-width:0.750001;stroke-dasharray:none"
   id="rect170"
   width="12.849434"
   height="90.081161"
   x="-1636.4149"
   y="-1883.5071"
   transform="scale(1,-1)"
   clip-path="none" />








<style
   type="text/css"
   id="style1-5">
	.st0{fill:none;stroke:#000;stroke-width:2;}
	.st1{fill:#fff;stroke:#000;stroke-width:2;stroke-linejoin:round;}
	.st2{font-family:Liberation Sans,Arial;}
	.st3{font-size:17px;}
</style>










<!-- Outer cylindrical part --><!-- Inner optical port --><!-- Optical emitter (glowing red light) --><!-- Connector back end --><!-- Detail lines for depth --><!-- Device Panel --><!-- TOSLINK Port Cutout --><!-- Inner Optical Port --><!-- Optical Emitter (glowing red light) --><!-- Protective Cover --><!-- Detail Lines for Depth --></g><metadata
     id="metadata1"><rdf:RDF><cc:Work
         rdf:about=""><dc:title>Open Connector Graphics</dc:title><dc:date>03/04/2025</dc:date><dc:creator><cc:Agent><dc:title>Wikke Andeweg</dc:title></cc:Agent></dc:creator><dc:rights><cc:Agent><dc:title>Creative Commons Attribution 4.0 International</dc:title></cc:Agent></dc:rights><dc:source>https://github.com/WyzzyMoon/OpenConnectorGraphics</dc:source></cc:Work></rdf:RDF></metadata></svg>
