<?xml version="1.0" encoding="UTF-8" standalone="no"?>
<!-- Created with Inkscape (http://www.inkscape.org/) -->

<svg
   version="1.1"
   id="svg2"
   width="90.374565"
   height="30.014578"
   viewBox="0 0 90.374568 30.014578"
   xml:space="preserve"
   xmlns="http://www.w3.org/2000/svg"
   xmlns:svg="http://www.w3.org/2000/svg"
   xmlns:rdf="http://www.w3.org/1999/02/22-rdf-syntax-ns#"
   xmlns:cc="http://creativecommons.org/ns#"
   xmlns:dc="http://purl.org/dc/elements/1.1/"><title
     id="title1">Open Connector Graphics</title><defs
     id="defs6"><linearGradient
       id="linearGradient5590"><stop
         id="stop5592"
         offset="0"
         style="stop-color:#a91616;stop-opacity:1;" /></linearGradient><linearGradient
       id="linearGradient5660"><stop
         id="stop5662"
         offset="0"
         style="stop-color:#000000;stop-opacity:1;" /></linearGradient><style
       type="text/css"
       id="style1">
	.st0{fill:none;stroke:#000000;stroke-width:7;stroke-miterlimit:10;}
	.st1{fill:none;stroke:#000000;stroke-width:3;stroke-miterlimit:10;}
	.st2{fill:none;stroke:#000000;stroke-width:4;stroke-miterlimit:10;}
</style></defs><g
     id="g2466"
     transform="matrix(1.3333333,0,0,-1.3333333,884.85529,2755.2423)"
     style="display:inline"><path
   d="m -601.88004,2044.2962 h -55.74192 c -3.11764,0 -5.64479,2.5311 -5.64479,5.6536 v 13.1719 c 0,1.621 1.31177,2.9348 2.93024,2.9348 h 61.17102 c 1.61848,0 2.93024,-1.3138 2.93024,-2.9348 v -13.1719 c 0,-3.1225 -2.52715,-5.6536 -5.64479,-5.6536"
   style="fill:#d1d3d4;fill-opacity:1;fill-rule:nonzero;stroke:#000000;stroke-width:0.75;stroke-dasharray:none"
   id="path3744"
   clip-path="none" /><path
   d="m -601.88004,2044.2962 h -55.74192 c -3.11764,0 -5.64479,2.5311 -5.64479,5.6536 v 13.1719 c 0,1.621 1.31177,2.9348 2.93024,2.9348 h 61.17102 c 1.61848,0 2.93024,-1.3138 2.93024,-2.9348 v -13.1719 c 0,-3.1225 -2.52715,-5.6536 -5.64479,-5.6536 z"
   style="fill:none;stroke:#000000;stroke-width:0.75;stroke-linecap:butt;stroke-linejoin:miter;stroke-miterlimit:10;stroke-dasharray:none;stroke-opacity:1"
   id="path3748"
   clip-path="none" /><path
   d="m -657.95759,2046.8288 -0.52012,0.1678 -0.66391,0.3799 -0.5683,0.7439 -0.37938,0.8703 -0.8536,4.3681 v 8.7539 c 0,0.9867 0.79853,1.7865 1.78369,1.7865 h 58.81596 c 0.98516,0 1.78369,-0.7998 1.78369,-1.7865 v -8.7539 l -0.85284,-4.3681 -0.37938,-0.8703 -0.56907,-0.7439 -0.66391,-0.3799 -0.52012,-0.1678 z"
   style="fill:#ffffff;fill-opacity:1;fill-rule:nonzero;stroke:#000000;stroke-width:0.75;stroke-dasharray:none"
   id="path3752"
   clip-path="none" /><path
   d="m -657.95759,2046.8288 -0.52012,0.1678 -0.66391,0.3799 -0.5683,0.7439 -0.37938,0.8703 -0.8536,4.3681 v 8.7539 c 0,0.9867 0.79853,1.7865 1.78369,1.7865 h 58.81596 c 0.98516,0 1.78369,-0.7998 1.78369,-1.7865 v -8.7539 l -0.85284,-4.3681 -0.37938,-0.8703 -0.56907,-0.7439 -0.66391,-0.3799 -0.52012,-0.1678 z"
   style="fill:none;stroke:#000000;stroke-width:0.75;stroke-linecap:butt;stroke-linejoin:miter;stroke-miterlimit:10;stroke-dasharray:none;stroke-opacity:1"
   id="path3756"
   clip-path="none" /><path
   d="m 1186.507,553.552 h -3.726 v 3.777 h 3.726 z"
   style="fill:#f9d640;fill-opacity:1;fill-rule:nonzero;stroke:#000000;stroke-width:0.979784;stroke-linecap:butt;stroke-linejoin:miter;stroke-miterlimit:10;stroke-dasharray:none;stroke-opacity:1"
   id="path3758"
   clip-path="none"
   transform="matrix(0.76487668,0,0,0.76607403,-1545.8022,1634.986)" /><path
   d="m 1175.304,548.153 h -13.574 v 0.8 h 13.574 z"
   style="fill:#f9d640;fill-opacity:1;fill-rule:nonzero;stroke:#000000;stroke-width:0.979784;stroke-linecap:butt;stroke-linejoin:miter;stroke-miterlimit:10;stroke-dasharray:none;stroke-opacity:1"
   id="path3760"
   clip-path="none"
   transform="matrix(0.76487668,0,0,0.76607403,-1545.8022,1634.986)" /><path
   d="m 1193.241,553.552 h -3.726 v 3.777 h 3.726 z"
   style="fill:#f9d640;fill-opacity:1;fill-rule:nonzero;stroke:#000000;stroke-width:0.979784;stroke-linecap:butt;stroke-linejoin:miter;stroke-miterlimit:10;stroke-dasharray:none;stroke-opacity:1"
   id="path3762"
   clip-path="none"
   transform="matrix(0.76487668,0,0,0.76607403,-1545.8022,1634.986)" /><path
   d="m 1199.976,553.552 h -3.726 v 3.777 h 3.726 z"
   style="fill:#f9d640;fill-opacity:1;fill-rule:nonzero;stroke:#000000;stroke-width:0.979784;stroke-linecap:butt;stroke-linejoin:miter;stroke-miterlimit:10;stroke-dasharray:none;stroke-opacity:1"
   id="path3764"
   clip-path="none"
   transform="matrix(0.76487668,0,0,0.76607403,-1545.8022,1634.986)" /><path
   d="m 1220.18,553.552 h -3.726 v 3.777 h 3.726 z"
   style="fill:#f9d640;fill-opacity:1;fill-rule:nonzero;stroke:#000000;stroke-width:0.979784;stroke-linecap:butt;stroke-linejoin:miter;stroke-miterlimit:10;stroke-dasharray:none;stroke-opacity:1"
   id="path3766"
   clip-path="none"
   transform="matrix(0.76487668,0,0,0.76607403,-1545.8022,1634.986)" /><path
   d="m 1226.914,553.552 h -3.726 v 3.777 h 3.726 z"
   style="fill:#f9d640;fill-opacity:1;fill-rule:nonzero;stroke:#000000;stroke-width:0.979784;stroke-linecap:butt;stroke-linejoin:miter;stroke-miterlimit:10;stroke-dasharray:none;stroke-opacity:1"
   id="path3768"
   clip-path="none"
   transform="matrix(0.76487668,0,0,0.76607403,-1545.8022,1634.986)" /><path
   d="m 1233.649,553.552 h -3.726 v 3.777 h 3.726 z"
   style="fill:#f9d640;fill-opacity:1;fill-rule:nonzero;stroke:#000000;stroke-width:0.979784;stroke-linecap:butt;stroke-linejoin:miter;stroke-miterlimit:10;stroke-dasharray:none;stroke-opacity:1"
   id="path3770"
   clip-path="none"
   transform="matrix(0.76487668,0,0,0.76607403,-1545.8022,1634.986)" /><path
   d="m 1186.507,546.687 h -3.726 v 3.777 h 3.726 z"
   style="fill:#f9d640;fill-opacity:1;fill-rule:nonzero;stroke:#000000;stroke-width:0.979784;stroke-linecap:butt;stroke-linejoin:miter;stroke-miterlimit:10;stroke-dasharray:none;stroke-opacity:1"
   id="path3772"
   clip-path="none"
   transform="matrix(0.76487668,0,0,0.76607403,-1545.8022,1634.986)" /><path
   d="m 1193.241,546.687 h -3.726 v 3.777 h 3.726 z"
   style="fill:#f9d640;fill-opacity:1;fill-rule:nonzero;stroke:#000000;stroke-width:0.979784;stroke-linecap:butt;stroke-linejoin:miter;stroke-miterlimit:10;stroke-dasharray:none;stroke-opacity:1"
   id="path3774"
   clip-path="none"
   transform="matrix(0.76487668,0,0,0.76607403,-1545.8022,1634.986)" /><path
   d="m 1199.976,546.687 h -3.726 v 3.777 h 3.726 z"
   style="fill:#f9d640;fill-opacity:1;fill-rule:nonzero;stroke:#000000;stroke-width:0.979784;stroke-linecap:butt;stroke-linejoin:miter;stroke-miterlimit:10;stroke-dasharray:none;stroke-opacity:1"
   id="path3776"
   clip-path="none"
   transform="matrix(0.76487668,0,0,0.76607403,-1545.8022,1634.986)" /><path
   d="m 1220.18,546.687 h -3.726 v 3.777 h 3.726 z"
   style="fill:#f9d640;fill-opacity:1;fill-rule:nonzero;stroke:#000000;stroke-width:0.979784;stroke-linecap:butt;stroke-linejoin:miter;stroke-miterlimit:10;stroke-dasharray:none;stroke-opacity:1"
   id="path3778"
   clip-path="none"
   transform="matrix(0.76487668,0,0,0.76607403,-1545.8022,1634.986)" /><path
   d="m 1226.914,546.687 h -3.726 v 3.777 h 3.726 z"
   style="fill:#f9d640;fill-opacity:1;fill-rule:nonzero;stroke:#000000;stroke-width:0.979784;stroke-linecap:butt;stroke-linejoin:miter;stroke-miterlimit:10;stroke-dasharray:none;stroke-opacity:1"
   id="path3780"
   clip-path="none"
   transform="matrix(0.76487668,0,0,0.76607403,-1545.8022,1634.986)" /><path
   d="m 1233.649,546.687 h -3.726 v 3.777 h 3.726 z"
   style="fill:#f9d640;fill-opacity:1;fill-rule:nonzero;stroke:#000000;stroke-width:0.979784;stroke-linecap:butt;stroke-linejoin:miter;stroke-miterlimit:10;stroke-dasharray:none;stroke-opacity:1"
   id="path3782"
   clip-path="none"
   transform="matrix(0.76487668,0,0,0.76607403,-1545.8022,1634.986)" /><path
   d="m 1186.507,539.821 h -3.726 v 3.777 h 3.726 z"
   style="fill:#f9d640;fill-opacity:1;fill-rule:nonzero;stroke:#000000;stroke-width:0.979784;stroke-linecap:butt;stroke-linejoin:miter;stroke-miterlimit:10;stroke-dasharray:none;stroke-opacity:1"
   id="path3784"
   clip-path="none"
   transform="matrix(0.76487668,0,0,0.76607403,-1545.8022,1634.986)" /><path
   d="m 1193.241,539.821 h -3.726 v 3.777 h 3.726 z"
   style="fill:#f9d640;fill-opacity:1;fill-rule:nonzero;stroke:#000000;stroke-width:0.979784;stroke-linecap:butt;stroke-linejoin:miter;stroke-miterlimit:10;stroke-dasharray:none;stroke-opacity:1"
   id="path3786"
   clip-path="none"
   transform="matrix(0.76487668,0,0,0.76607403,-1545.8022,1634.986)" /><path
   d="m 1199.976,539.821 h -3.726 v 3.777 h 3.726 z"
   style="fill:#f9d640;fill-opacity:1;fill-rule:nonzero;stroke:#000000;stroke-width:0.979784;stroke-linecap:butt;stroke-linejoin:miter;stroke-miterlimit:10;stroke-dasharray:none;stroke-opacity:1"
   id="path3788"
   clip-path="none"
   transform="matrix(0.76487668,0,0,0.76607403,-1545.8022,1634.986)" /><path
   d="m 1220.18,539.821 h -3.726 v 3.777 h 3.726 z"
   style="fill:#f9d640;fill-opacity:1;fill-rule:nonzero;stroke:#000000;stroke-width:0.979784;stroke-linecap:butt;stroke-linejoin:miter;stroke-miterlimit:10;stroke-dasharray:none;stroke-opacity:1"
   id="path3790"
   clip-path="none"
   transform="matrix(0.76487668,0,0,0.76607403,-1545.8022,1634.986)" /><path
   d="m 1226.914,539.821 h -3.726 v 3.777 h 3.726 z"
   style="fill:#f9d640;fill-opacity:1;fill-rule:nonzero;stroke:#000000;stroke-width:0.979784;stroke-linecap:butt;stroke-linejoin:miter;stroke-miterlimit:10;stroke-dasharray:none;stroke-opacity:1"
   id="path3792"
   clip-path="none"
   transform="matrix(0.76487668,0,0,0.76607403,-1545.8022,1634.986)" /><path
   d="m 1233.649,539.821 h -3.726 v 3.777 h 3.726 z"
   style="fill:#f9d640;fill-opacity:1;fill-rule:nonzero;stroke:#000000;stroke-width:0.979784;stroke-linecap:butt;stroke-linejoin:miter;stroke-miterlimit:10;stroke-dasharray:none;stroke-opacity:1"
   id="path3794"
   clip-path="none"
   transform="matrix(0.76487668,0,0,0.76607403,-1545.8022,1634.986)" />








<style
   type="text/css"
   id="style1-5">
	.st0{fill:none;stroke:#000;stroke-width:2;}
	.st1{fill:#fff;stroke:#000;stroke-width:2;stroke-linejoin:round;}
	.st2{font-family:Liberation Sans,Arial;}
	.st3{font-size:17px;}
</style>










<!-- Outer cylindrical part --><!-- Inner optical port --><!-- Optical emitter (glowing red light) --><!-- Connector back end --><!-- Detail lines for depth --><!-- Device Panel --><!-- TOSLINK Port Cutout --><!-- Inner Optical Port --><!-- Optical Emitter (glowing red light) --><!-- Protective Cover --><!-- Detail Lines for Depth --></g><metadata
     id="metadata1"><rdf:RDF><cc:Work
         rdf:about=""><dc:title>Open Connector Graphics</dc:title><dc:date>03/04/2025</dc:date><dc:creator><cc:Agent><dc:title>Wikke Andeweg</dc:title></cc:Agent></dc:creator><dc:rights><cc:Agent><dc:title>Creative Commons Attribution 4.0 International</dc:title></cc:Agent></dc:rights><dc:source>https://github.com/WyzzyMoon/OpenConnectorGraphics</dc:source></cc:Work></rdf:RDF></metadata></svg>
