<?xml version="1.0" encoding="UTF-8" standalone="no"?>
<!-- Created with Inkscape (http://www.inkscape.org/) -->

<svg
   version="1.1"
   id="svg2"
   width="71.403519"
   height="219.67062"
   viewBox="0 0 71.403521 219.67063"
   xml:space="preserve"
   xmlns="http://www.w3.org/2000/svg"
   xmlns:svg="http://www.w3.org/2000/svg"
   xmlns:rdf="http://www.w3.org/1999/02/22-rdf-syntax-ns#"
   xmlns:cc="http://creativecommons.org/ns#"
   xmlns:dc="http://purl.org/dc/elements/1.1/"><title
     id="title1">Open Connector Graphics</title><defs
     id="defs6"><linearGradient
       id="linearGradient5590"><stop
         id="stop5592"
         offset="0"
         style="stop-color:#a91616;stop-opacity:1;" /></linearGradient><linearGradient
       id="linearGradient5660"><stop
         id="stop5662"
         offset="0"
         style="stop-color:#000000;stop-opacity:1;" /></linearGradient><style
       type="text/css"
       id="style1">
	.st0{fill:none;stroke:#000000;stroke-width:7;stroke-miterlimit:10;}
	.st1{fill:none;stroke:#000000;stroke-width:3;stroke-miterlimit:10;}
	.st2{fill:none;stroke:#000000;stroke-width:4;stroke-miterlimit:10;}
</style></defs><g
     id="g2466"
     transform="matrix(1.3333333,0,0,-1.3333333,1407.0035,2610.9442)"
     style="display:inline"><path
   d="m -1009.6113,1932.4235 h -38.4356 v 25.5101 h 38.4356 z"
   style="fill:#d1d3d4;fill-opacity:1;fill-rule:nonzero;stroke:#000000;stroke-width:0.75;stroke-linecap:butt;stroke-linejoin:miter;stroke-miterlimit:10;stroke-dasharray:none;stroke-opacity:1"
   id="path2474"
   clip-path="none" /><path
   d="m -1012.5541,1932.4235 h -32.55 v 25.5101 h 32.55 z"
   style="fill:#d1d3d4;fill-opacity:1;fill-rule:nonzero;stroke:#000000;stroke-width:0.75;stroke-linecap:butt;stroke-linejoin:miter;stroke-miterlimit:10;stroke-dasharray:none;stroke-opacity:1"
   id="path2476"
   clip-path="none" /><path
   d="m 816.559,392.043 h -31.816 v 30.848 h 31.816 z"
   style="fill:#d1d3d4;fill-opacity:1;fill-rule:nonzero;stroke:#000000;stroke-width:0.906738;stroke-linecap:butt;stroke-linejoin:miter;stroke-miterlimit:10;stroke-dasharray:none;stroke-opacity:1"
   id="path4040"
   clip-path="none"
   transform="matrix(0.82731912,0,0,0.82696184,-1691.2238,1608.2188)" /><path
   d="m -1029.2289,1957.4717 v -4.1877 h -2.3488 v -4.913 h 2.3488 v -9.7102 h -2.3488 v -4.7583 h 2.3488 v -1.6978"
   style="fill:#d1d3d4;fill-opacity:1;fill-rule:nonzero;stroke:#000000;stroke-width:0.75;stroke-linecap:butt;stroke-linejoin:miter;stroke-miterlimit:10;stroke-dasharray:none;stroke-opacity:1"
   id="path4044"
   clip-path="none" /><path
   d="m 794.998,402.687 h -5.032 v 5.032 h 5.032 z"
   style="fill:#939598;fill-opacity:1;fill-rule:nonzero;stroke:#000000;stroke-width:0.906738;stroke-linecap:butt;stroke-linejoin:miter;stroke-miterlimit:10;stroke-dasharray:none;stroke-opacity:1"
   id="path4046"
   clip-path="none"
   transform="matrix(0.82731912,0,0,0.82696184,-1691.2238,1608.2188)" /><path
   d="m 812.126,402.687 h -5.032 v 5.032 h 5.032 z"
   style="fill:#939598;fill-opacity:1;fill-rule:nonzero;stroke:#000000;stroke-width:0.906738;stroke-linecap:butt;stroke-linejoin:miter;stroke-miterlimit:10;stroke-dasharray:none;stroke-opacity:1"
   id="path4048"
   clip-path="none"
   transform="matrix(0.82731912,0,0,0.82696184,-1691.2238,1608.2188)" /><path
   d="m -1003.3173,1924.9263 v 7.4972 h -16.5676 -17.8883 -16.5676 v -7.4972 c 0,-0.4494 0.1336,-0.8615 0.3353,-1.1951 0.2979,-0.4932 0.4801,-1.149 0.4801,-1.8681 0,-0.719 -0.1822,-1.3749 -0.4801,-1.868 -0.2017,-0.3336 -0.3353,-0.7457 -0.3353,-1.1951 v -0.8365 c 0,-0.4493 0.1336,-0.8623 0.3353,-1.1951 0.2979,-0.4931 0.4801,-1.149 0.4801,-1.868 0,-0.7198 -0.1822,-1.3749 -0.4801,-1.8688 -0.2017,-0.3328 -0.3353,-0.745 -0.3353,-1.1944 v -0.8364 c 0,-0.4502 0.1336,-0.8624 0.3353,-1.1951 0.2979,-0.4932 0.4801,-1.149 0.4801,-1.8681 0,-0.7198 -0.1822,-1.3749 -0.4801,-1.8688 -0.2017,-0.3328 -0.3353,-0.7449 -0.3353,-1.1943 v -0.8365 c 0,-0.4502 0.1336,-0.8623 0.3353,-1.1951 0.2979,-0.4939 0.4801,-1.149 0.4801,-1.868 0,-0.7199 -0.1822,-1.3749 -0.4801,-1.8688 -0.2017,-0.3328 -0.3353,-0.745 -0.3353,-1.1944 v -0.8364 c 0,-0.4502 0.1336,-0.8624 0.3353,-1.1951 0.2979,-0.494 0.4801,-1.149 0.4801,-1.8681 0,-0.7198 -0.1822,-1.3749 -0.4801,-1.8688 -0.2017,-0.3328 -0.3353,-0.7449 -0.3353,-1.1951 v -4.7523 h 4.9741 11.5935 4.9741 7.9401 4.9741 11.5935 4.9741 v 4.7523 c 0,0.4502 -0.1336,0.8623 -0.3344,1.1951 -0.2988,0.4939 -0.4802,1.149 -0.4802,1.8688 0,0.7191 0.1814,1.3741 0.4802,1.8681 0.2008,0.3327 0.3344,0.7449 0.3344,1.1951 v 0.8364 c 0,0.4494 -0.1336,0.8616 -0.3344,1.1944 -0.2988,0.4939 -0.4802,1.1489 -0.4802,1.8688 0,0.719 0.1814,1.3741 0.4802,1.868 0.2008,0.3328 0.3344,0.7449 0.3344,1.1951 v 0.8365 c 0,0.4494 -0.1336,0.8615 -0.3344,1.1943 -0.2988,0.4939 -0.4802,1.149 -0.4802,1.8688 0,0.7191 0.1814,1.3749 0.4802,1.8681 0.2008,0.3327 0.3344,0.7449 0.3344,1.1951 v 0.8364 c 0,0.4494 -0.1336,0.8616 -0.3344,1.1944 -0.2988,0.4939 -0.4802,1.149 -0.4802,1.8688 0,0.719 0.1814,1.3749 0.4802,1.868 0.2008,0.3328 0.3344,0.7458 0.3344,1.1951 v 0.8365 c 0,0.4494 -0.1336,0.8615 -0.3344,1.1951 -0.2988,0.4931 -0.4802,1.149 -0.4802,1.868 0,0.7191 0.1814,1.3749 0.4802,1.8681 0.2008,0.3336 0.3344,0.7457 0.3344,1.1951"
   style="fill:#1a1a1a;fill-opacity:1;fill-rule:nonzero;stroke:none;stroke-width:1"
   id="path4052"
   clip-path="none" /><path
   d="m 832.615,321.375 h -63.014 v 14.008 h 63.014 z"
   style="fill:#1a1a1a;fill-opacity:1;fill-rule:nonzero;stroke:none;stroke-width:1.17796"
   id="path4054"
   clip-path="none"
   transform="matrix(0.80971644,0,0,0.89002769,-1677.4995,1588.8206)" /><path
   d="m 820.78,301.959 h -39.344 v 19.416 h 39.344 z"
   style="fill:#1a1a1a;fill-opacity:1;fill-rule:nonzero;stroke:none;stroke-width:1.235"
   id="path4056"
   clip-path="none"
   transform="matrix(0.80971644,0,0,0.80971644,-1677.4995,1614.6306)" /><path
   d="m -1013.0229,1916.8329 h 2.6494 v -6.7741 h -2.6494 z"
   style="fill:#ffffff;fill-opacity:1;fill-rule:nonzero;stroke:none;stroke-width:1"
   id="path4060"
   clip-path="none" /><path
   d="m -1037.7216,1916.8331 -0.011,-1.6858 h 7.4202 v -3.4025 h -4.8445 l -0.011,2.3223 h -2.5643 l 0.011,-4.0073 h 8.1927 c 0.4883,0 0.9061,0.1733 1.2559,0.5191 0.3498,0.3465 0.5255,0.7668 0.5255,1.2615 v 3.2113 c 0,0.4956 -0.1757,0.915 -0.5255,1.2616 -0.3498,0.3457 -0.7676,0.5198 -1.2559,0.5198 z m 11.0437,0 v -6.7765 h 2.5676 v 5.0866 h 2.4421 v -5.0866 h 2.5539 v 5.0866 h 2.4429 v -5.0866 h 2.5636 v 4.9951 c 0,0.494 -0.1741,0.915 -0.5199,1.2616 -0.3465,0.3457 -0.7635,0.5198 -1.2502,0.5198 z"
   style="fill:#ffffff;fill-opacity:1;fill-rule:nonzero;stroke:none;stroke-width:1"
   id="path4064"
   clip-path="none" /><path
   d="m -1038.842,1916.8329 v -6.7741 h -2.6915 v 2.4284 h -4.6219 v -2.4284 h -2.6502 v 6.7741 h 2.6502 v -2.766 h 4.6219 v 2.766 z"
   style="fill:#ffffff;fill-opacity:1;fill-rule:nonzero;stroke:none;stroke-width:1"
   id="path4068"
   clip-path="none" /><rect
   style="fill:#1a1a1a;fill-opacity:1;stroke:none;stroke-width:0.750001;stroke-dasharray:none"
   id="rect179"
   width="15.000001"
   height="72.736656"
   x="-1036.3291"
   y="-1866.1626"
   transform="scale(1,-1)"
   clip-path="none" />








<style
   type="text/css"
   id="style1-5">
	.st0{fill:none;stroke:#000;stroke-width:2;}
	.st1{fill:#fff;stroke:#000;stroke-width:2;stroke-linejoin:round;}
	.st2{font-family:Liberation Sans,Arial;}
	.st3{font-size:17px;}
</style>










<!-- Outer cylindrical part --><!-- Inner optical port --><!-- Optical emitter (glowing red light) --><!-- Connector back end --><!-- Detail lines for depth --><!-- Device Panel --><!-- TOSLINK Port Cutout --><!-- Inner Optical Port --><!-- Optical Emitter (glowing red light) --><!-- Protective Cover --><!-- Detail Lines for Depth --></g><metadata
     id="metadata1"><rdf:RDF><cc:Work
         rdf:about=""><dc:title>Open Connector Graphics</dc:title><dc:date>03/04/2025</dc:date><dc:creator><cc:Agent><dc:title>Wikke Andeweg</dc:title></cc:Agent></dc:creator><dc:rights><cc:Agent><dc:title>Creative Commons Attribution 4.0 International</dc:title></cc:Agent></dc:rights><dc:source>https://github.com/WyzzyMoon/OpenConnectorGraphics</dc:source></cc:Work></rdf:RDF></metadata></svg>
