<?xml version="1.0" encoding="UTF-8" standalone="no"?>
<!-- Created with Inkscape (http://www.inkscape.org/) -->

<svg
   version="1.1"
   id="svg2"
   width="34.037186"
   height="219.8511"
   viewBox="0 0 34.037187 219.85111"
   xml:space="preserve"
   xmlns="http://www.w3.org/2000/svg"
   xmlns:svg="http://www.w3.org/2000/svg"
   xmlns:rdf="http://www.w3.org/1999/02/22-rdf-syntax-ns#"
   xmlns:cc="http://creativecommons.org/ns#"
   xmlns:dc="http://purl.org/dc/elements/1.1/"><title
     id="title1">Open Connector Graphics</title><defs
     id="defs6"><linearGradient
       id="linearGradient5590"><stop
         id="stop5592"
         offset="0"
         style="stop-color:#a91616;stop-opacity:1;" /></linearGradient><linearGradient
       id="linearGradient5660"><stop
         id="stop5662"
         offset="0"
         style="stop-color:#000000;stop-opacity:1;" /></linearGradient><style
       type="text/css"
       id="style1">
	.st0{fill:none;stroke:#000000;stroke-width:7;stroke-miterlimit:10;}
	.st1{fill:none;stroke:#000000;stroke-width:3;stroke-miterlimit:10;}
	.st2{fill:none;stroke:#000000;stroke-width:4;stroke-miterlimit:10;}
</style></defs><g
     id="g2466"
     transform="matrix(1.3333333,0,0,-1.3333333,1821.7157,2611.1246)"
     style="display:inline"><path
   d="m 510.705,385.99 h -24.356 v 28.801 h 24.356 z"
   style="fill:#d1d3d4;fill-opacity:1;fill-rule:nonzero;stroke:#000000;stroke-width:0.968594;stroke-linecap:butt;stroke-linejoin:miter;stroke-miterlimit:10;stroke-dasharray:none;stroke-opacity:1"
   id="path2646"
   clip-path="none"
   transform="matrix(0.7736295,0,0,0.77500736,-1739.206,1636.4672)" /><path
   d="m 503.594,405.19 h -10.311 v 4.445 h 10.311 z"
   style="fill:#939598;fill-opacity:1;fill-rule:nonzero;stroke:#000000;stroke-width:0.968594;stroke-linecap:butt;stroke-linejoin:miter;stroke-miterlimit:10;stroke-dasharray:none;stroke-opacity:1"
   id="path2648"
   clip-path="none"
   transform="matrix(0.7736295,0,0,0.77500736,-1739.206,1636.4672)" /><path
   d="m -1366.2868,1935.3748 v -29.5705 h 4.9287 v -4.7836 h 2.3637 v -2.8455 h -2.3637 v -1.6087 h 2.3637 v -2.3539 h -2.3637 v -1.6094 h 2.3637 v -2.1468 h -2.3637 v -1.6087 h 2.3637 v -2.1467 h -2.3637 v -4.7836 h 15.6544 v 4.7836 h -2.3636 v 2.1467 h 2.3636 v 1.6087 h -2.3636 v 2.1468 h 2.3636 v 1.6094 h -2.3636 v 2.3539 h 2.3636 v 1.6087 h -2.3636 v 2.8455 h 2.3636 v 4.7836 h 4.9287 v 29.5705 z"
   style="fill:#1a1a1a;fill-opacity:1;fill-rule:nonzero;stroke:none;stroke-width:0.999999"
   id="path2652"
   clip-path="none" /><path
   d="m -1353.4291,1930.2504 -1.4244,-2.4672 h 1.0159 v -12.6083 l -2.5936,2.4549 c -0.1679,0.2088 -0.2853,0.4827 -0.2919,0.764 0,1.1374 0,1.8125 -8e-4,2.0612 0.4803,0.1687 0.8276,0.6213 0.8276,1.1602 0,0.6808 -0.5528,1.2336 -1.2344,1.2336 -0.6808,0 -1.2336,-0.5528 -1.2336,-1.2336 0,-0.5389 0.3465,-0.9915 0.8267,-1.1602 l -8e-4,-2.0375 c 0,-0.552 0.3033,-1.1309 0.658,-1.4994 -0.011,0.011 -0.021,0.02 8e-4,0 0.01,-0.01 2.7518,-2.605 2.7518,-2.605 0.1671,-0.2088 0.2837,-0.4819 0.2902,-0.7632 v -1.426 c -0.9425,-0.1892 -1.6518,-1.0208 -1.6518,-2.0196 0,-1.1374 0.9221,-2.0603 2.0595,-2.0603 1.1382,0 2.0611,0.9229 2.0611,2.0603 0,0.9988 -0.7109,1.8304 -1.6543,2.0196 v 1.4015 c 0,0 9e-4,0.01 0,0.011 v 3.0999 c 0.01,0.2805 0.1248,0.5537 0.2919,0.7616 0,0 2.7428,2.596 2.7518,2.6041 0.022,0.021 0.011,0.011 0,9e-4 0.3555,0.3677 0.658,0.9466 0.658,1.4994 l -9e-4,1.9633 h 0.8276 v 2.468 h -2.4672 v -2.468 h 0.8259 c 0,0 -8e-4,-0.5169 -8e-4,-1.9878 -0.01,-0.2813 -0.1239,-0.5544 -0.2919,-0.7632 l -2.5935,-2.4557 v 9.5247 h 1.0175 z"
   style="fill:#ffffff;fill-opacity:1;fill-rule:nonzero;stroke:none;stroke-width:0.999999"
   id="path4124"
   clip-path="none" /><rect
   style="fill:#1a1a1a;fill-opacity:1;stroke:none;stroke-width:0.750001;stroke-dasharray:none"
   id="rect174"
   width="7.8044662"
   height="88.491524"
   x="-1357.4331"
   y="-1881.9174"
   transform="scale(1,-1)"
   clip-path="none" />








<style
   type="text/css"
   id="style1-5">
	.st0{fill:none;stroke:#000;stroke-width:2;}
	.st1{fill:#fff;stroke:#000;stroke-width:2;stroke-linejoin:round;}
	.st2{font-family:Liberation Sans,Arial;}
	.st3{font-size:17px;}
</style>










<!-- Outer cylindrical part --><!-- Inner optical port --><!-- Optical emitter (glowing red light) --><!-- Connector back end --><!-- Detail lines for depth --><!-- Device Panel --><!-- TOSLINK Port Cutout --><!-- Inner Optical Port --><!-- Optical Emitter (glowing red light) --><!-- Protective Cover --><!-- Detail Lines for Depth --></g><metadata
     id="metadata1"><rdf:RDF><cc:Work
         rdf:about=""><dc:title>Open Connector Graphics</dc:title><dc:date>03/04/2025</dc:date><dc:creator><cc:Agent><dc:title>Wikke Andeweg</dc:title></cc:Agent></dc:creator><dc:rights><cc:Agent><dc:title>Creative Commons Attribution 4.0 International</dc:title></cc:Agent></dc:rights><dc:source>https://github.com/WyzzyMoon/OpenConnectorGraphics</dc:source></cc:Work></rdf:RDF></metadata></svg>
