<?xml version="1.0" encoding="UTF-8" standalone="no"?>
<!-- Created with Inkscape (http://www.inkscape.org/) -->

<svg
   version="1.1"
   id="svg2"
   width="26.5"
   height="219.50002"
   viewBox="0 0 26.500001 219.50002"
   xml:space="preserve"
   xmlns="http://www.w3.org/2000/svg"
   xmlns:svg="http://www.w3.org/2000/svg"
   xmlns:rdf="http://www.w3.org/1999/02/22-rdf-syntax-ns#"
   xmlns:cc="http://creativecommons.org/ns#"
   xmlns:dc="http://purl.org/dc/elements/1.1/"><title
     id="title1">Open Connector Graphics</title><defs
     id="defs6"><linearGradient
       id="linearGradient5590"><stop
         id="stop5592"
         offset="0"
         style="stop-color:#a91616;stop-opacity:1;" /></linearGradient><linearGradient
       id="linearGradient5660"><stop
         id="stop5662"
         offset="0"
         style="stop-color:#000000;stop-opacity:1;" /></linearGradient><style
       type="text/css"
       id="style1">
	.st0{fill:none;stroke:#000000;stroke-width:7;stroke-miterlimit:10;}
	.st1{fill:none;stroke:#000000;stroke-width:3;stroke-miterlimit:10;}
	.st2{fill:none;stroke:#000000;stroke-width:4;stroke-miterlimit:10;}
</style></defs><g
     id="g2466"
     transform="matrix(1.3333333,0,0,-1.3333333,-1212.6293,2611.3278)"
     style="display:inline">








<path
   class="st0"
   d="m 925.65138,1877.2466 v -28.123 c 0,-0.9816 -0.75876,-1.7815 -1.68998,-1.7815 h -8.76028 c -0.93121,0 -1.68997,0.7999 -1.68997,1.7815 v 28.123"
   id="path53"
   style="fill:#1a1a1a;fill-opacity:1;stroke:none;stroke-width:0.75;stroke-miterlimit:10;stroke-dasharray:none"
   clip-path="none" /><path
   class="st0"
   d="m 914.96431,1945.2776 0.36407,0.6758 c 0.10401,0.1826 0.13869,0.3835 0.13869,0.5843 l -0.1907,8.2189 c 0,0.2009 0.0693,0.3835 0.20803,0.5114 l 2.51379,2.4838 c 0.12136,0.1097 0.27739,0.1827 0.43342,0.1827 h 1.94168 c 0.15603,0 0.31206,-0.073 0.43342,-0.1827 l 2.51379,-2.4838 c 0.13869,-0.1279 0.20803,-0.3105 0.20803,-0.5114 l -0.1907,-8.2006 c 0,-0.2008 0.052,-0.4018 0.1387,-0.5844 l 0.36406,-0.6758 c 0.0867,-0.1643 0.13869,-0.3652 0.13869,-0.5479 v -28.5831 h -9.171 v 28.5466 c 0,0.2009 0.052,0.3836 0.15603,0.5662 z"
   id="path55"
   style="fill:#d1d3d4;fill-opacity:1;stroke:#000000;stroke-width:0.749999;stroke-miterlimit:10;stroke-dasharray:none"
   clip-path="none" /><rect
   x="914.81683"
   y="-1943.9214"
   width="9.1710043"
   height="2.7943876"
   id="rect55"
   transform="scale(1,-1)"
   style="fill:#000000;fill-opacity:1;stroke-width:0.749999;stroke-dasharray:none"
   clip-path="none" /><rect
   x="914.80829"
   y="-1933.5522"
   width="9.1710043"
   height="2.7943876"
   id="rect56"
   transform="scale(1,-1)"
   style="fill:#000000;fill-opacity:1;stroke-width:0.749999;stroke-dasharray:none"
   clip-path="none" /><path
   class="st1"
   d="m 918.36226,1957.9163 v 0 h 1.04019 1.02285 0.0173"
   id="path57"
   style="fill:#f9d640;fill-opacity:1;stroke:#000000;stroke-width:0.749999;stroke-miterlimit:10;stroke-dasharray:none"
   clip-path="none" /><path
   class="st2"
   d="m 915.27637,1954.7566 c 1.2829,-0.055 2.68715,-0.091 4.12608,-0.091 1.43893,0 2.84318,0.037 4.12608,0.091"
   id="path59"
   style="fill:#f9d640;fill-opacity:1;stroke:#000000;stroke-width:0.749999;stroke-miterlimit:10;stroke-dasharray:none"
   clip-path="none" /><path
   class="st2"
   d="m 915.27637,1946.0994 c 1.2829,-0.055 2.68715,-0.091 4.12608,-0.091 1.43893,0 2.84318,0.037 4.12608,0.091"
   id="path61"
   style="fill:#f9d640;fill-opacity:1;stroke:#000000;stroke-width:0.749999;stroke-miterlimit:10;stroke-dasharray:none"
   clip-path="none" /><rect
   style="fill:#1a1a1a;fill-opacity:1;stroke:none;stroke-width:0.75;stroke-dasharray:none;stroke-opacity:1"
   id="rect72"
   width="17.240574"
   height="5.212275"
   x="910.961"
   y="-1916.0253"
   transform="scale(1,-1)"
   clip-path="none" /><rect
   style="fill:#1a1a1a;fill-opacity:1;stroke:none;stroke-width:0.75;stroke-dasharray:none;stroke-opacity:1"
   id="rect73"
   width="19.639265"
   height="35.48539"
   x="909.64825"
   y="-1912.2347"
   transform="scale(1,-1)"
   clip-path="none" /><rect
   style="fill:#1a1a1a;stroke:none;stroke-width:0.750001"
   id="rect74"
   width="6.1615152"
   height="56.652325"
   x="916.50049"
   y="-1850.0599"
   transform="scale(1,-1)"
   clip-path="none" /><style
   type="text/css"
   id="style1-5">
	.st0{fill:none;stroke:#000;stroke-width:2;}
	.st1{fill:#fff;stroke:#000;stroke-width:2;stroke-linejoin:round;}
	.st2{font-family:Liberation Sans,Arial;}
	.st3{font-size:17px;}
</style>










<!-- Outer cylindrical part --><!-- Inner optical port --><!-- Optical emitter (glowing red light) --><!-- Connector back end --><!-- Detail lines for depth --><!-- Device Panel --><!-- TOSLINK Port Cutout --><!-- Inner Optical Port --><!-- Optical Emitter (glowing red light) --><!-- Protective Cover --><!-- Detail Lines for Depth --></g><metadata
     id="metadata1"><rdf:RDF><cc:Work
         rdf:about=""><dc:title>Open Connector Graphics</dc:title><dc:date>03/04/2025</dc:date><dc:creator><cc:Agent><dc:title>Wikke Andeweg</dc:title></cc:Agent></dc:creator><dc:rights><cc:Agent><dc:title>Creative Commons Attribution 4.0 International</dc:title></cc:Agent></dc:rights><dc:source>https://github.com/WyzzyMoon/OpenConnectorGraphics</dc:source></cc:Work></rdf:RDF></metadata></svg>
