<?xml version="1.0" encoding="UTF-8" standalone="no"?>
<!-- Created with Inkscape (http://www.inkscape.org/) -->

<svg
   version="1.1"
   id="svg2"
   width="22.344065"
   height="7.6318507"
   viewBox="0 0 22.344065 7.6318508"
   xml:space="preserve"
   xmlns="http://www.w3.org/2000/svg"
   xmlns:svg="http://www.w3.org/2000/svg"
   xmlns:rdf="http://www.w3.org/1999/02/22-rdf-syntax-ns#"
   xmlns:cc="http://creativecommons.org/ns#"
   xmlns:dc="http://purl.org/dc/elements/1.1/"><title
     id="title1">Open Connector Graphics</title><defs
     id="defs6"><linearGradient
       id="linearGradient5590"><stop
         id="stop5592"
         offset="0"
         style="stop-color:#a91616;stop-opacity:1;" /></linearGradient><linearGradient
       id="linearGradient5660"><stop
         id="stop5662"
         offset="0"
         style="stop-color:#000000;stop-opacity:1;" /></linearGradient><style
       type="text/css"
       id="style1">
	.st0{fill:none;stroke:#000000;stroke-width:7;stroke-miterlimit:10;}
	.st1{fill:none;stroke:#000000;stroke-width:3;stroke-miterlimit:10;}
	.st2{fill:none;stroke:#000000;stroke-width:4;stroke-miterlimit:10;}
</style></defs><g
     id="g2466"
     transform="matrix(1.3333333,0,0,-1.3333333,1192.0237,2665.7847)"
     style="display:inline"><path
   d="m -885.95553,1993.9777 h -5.62553 l -2.04937,1.9206 v 3.0772 h 7.6749 0.6335 7.67489 v -3.0772 l -2.04937,-1.9206 h -5.62552 z"
   style="fill:#d1d3d4;fill-opacity:1;fill-rule:nonzero;stroke:#000000;stroke-width:0.750002;stroke-dasharray:none"
   id="path3336"
   clip-path="none" /><path
   d="m -885.95553,1993.9777 h -5.62553 l -2.04937,1.9206 v 3.0772 h 7.6749 0.6335 7.67489 v -3.0772 l -2.04937,-1.9206 h -5.62552 z"
   style="fill:none;stroke:#000000;stroke-width:0.750002;stroke-linecap:butt;stroke-linejoin:miter;stroke-miterlimit:10;stroke-dasharray:none;stroke-opacity:1"
   id="path3340"
   clip-path="none" /><path
   d="m -885.9291,1995.125 h -4.82603 l -1.75756,1.5564 v 0.9425 h 6.58359 0.54342 6.58359 v -0.9425 l -1.75831,-1.5564 h -4.82528 z"
   style="fill:#939598;fill-opacity:1;fill-rule:nonzero;stroke:#000000;stroke-width:0.750002;stroke-dasharray:none"
   id="path3344"
   clip-path="none" /><path
   d="m -885.9291,1995.125 h -4.82603 l -1.75756,1.5564 v 0.9425 h 6.58359 0.54342 6.58359 v -0.9425 l -1.75831,-1.5564 h -4.82528 z"
   style="fill:none;stroke:#000000;stroke-width:0.750002;stroke-linecap:butt;stroke-linejoin:miter;stroke-miterlimit:10;stroke-dasharray:none;stroke-opacity:1"
   id="path3348"
   clip-path="none" /><path
   d="m 929.037,478.782 h -0.867 v 1.459 h 0.867 z"
   style="fill:#f9d640;fill-opacity:1;fill-rule:nonzero;stroke:#000000;stroke-width:0.346912;stroke-linecap:butt;stroke-linejoin:miter;stroke-miterlimit:10;stroke-dasharray:none;stroke-opacity:1"
   id="path3350"
   clip-path="none"
   transform="matrix(0.74441278,0,0,0.69763179,-1582.1701,1662.6677)" /><path
   d="m 930.587,478.782 h -0.867 v 1.459 h 0.867 z"
   style="fill:#f9d640;fill-opacity:1;fill-rule:nonzero;stroke:#000000;stroke-width:0.346912;stroke-linecap:butt;stroke-linejoin:miter;stroke-miterlimit:10;stroke-dasharray:none;stroke-opacity:1"
   id="path3352"
   clip-path="none"
   transform="matrix(0.74441278,0,0,0.69763179,-1582.1701,1662.6677)" /><path
   d="m 932.138,478.782 h -0.867 v 1.459 h 0.867 z"
   style="fill:#f9d640;fill-opacity:1;fill-rule:nonzero;stroke:#000000;stroke-width:0.346912;stroke-linecap:butt;stroke-linejoin:miter;stroke-miterlimit:10;stroke-dasharray:none;stroke-opacity:1"
   id="path3354"
   clip-path="none"
   transform="matrix(0.74441278,0,0,0.69763179,-1582.1701,1662.6677)" /><path
   d="m 933.688,478.782 h -0.867 v 1.459 h 0.867 z"
   style="fill:#f9d640;fill-opacity:1;fill-rule:nonzero;stroke:#000000;stroke-width:0.346912;stroke-linecap:butt;stroke-linejoin:miter;stroke-miterlimit:10;stroke-dasharray:none;stroke-opacity:1"
   id="path3356"
   clip-path="none"
   transform="matrix(0.74441278,0,0,0.69763179,-1582.1701,1662.6677)" /><path
   d="m 935.239,478.782 h -0.867 v 1.459 h 0.867 z"
   style="fill:#f9d640;fill-opacity:1;fill-rule:nonzero;stroke:#000000;stroke-width:0.346912;stroke-linecap:butt;stroke-linejoin:miter;stroke-miterlimit:10;stroke-dasharray:none;stroke-opacity:1"
   id="path3358"
   clip-path="none"
   transform="matrix(0.74441278,0,0,0.69763179,-1582.1701,1662.6677)" /><path
   d="m 936.789,478.782 h -0.867 v 1.459 h 0.867 z"
   style="fill:#f9d640;fill-opacity:1;fill-rule:nonzero;stroke:#000000;stroke-width:0.346912;stroke-linecap:butt;stroke-linejoin:miter;stroke-miterlimit:10;stroke-dasharray:none;stroke-opacity:1"
   id="path3360"
   clip-path="none"
   transform="matrix(0.74441278,0,0,0.69763179,-1582.1701,1662.6677)" /><path
   d="m 938.34,478.782 h -0.867 v 1.459 h 0.867 z"
   style="fill:#f9d640;fill-opacity:1;fill-rule:nonzero;stroke:#000000;stroke-width:0.346912;stroke-linecap:butt;stroke-linejoin:miter;stroke-miterlimit:10;stroke-dasharray:none;stroke-opacity:1"
   id="path3362"
   clip-path="none"
   transform="matrix(0.74441278,0,0,0.69763179,-1582.1701,1662.6677)" /><path
   d="m 939.891,478.782 h -0.867 v 1.459 h 0.867 z"
   style="fill:#f9d640;fill-opacity:1;fill-rule:nonzero;stroke:#000000;stroke-width:0.346912;stroke-linecap:butt;stroke-linejoin:miter;stroke-miterlimit:10;stroke-dasharray:none;stroke-opacity:1"
   id="path3364"
   clip-path="none"
   transform="matrix(0.74441278,0,0,0.69763179,-1582.1701,1662.6677)" /><path
   d="m 941.441,478.782 h -0.867 v 1.459 h 0.867 z"
   style="fill:#f9d640;fill-opacity:1;fill-rule:nonzero;stroke:#000000;stroke-width:0.346912;stroke-linecap:butt;stroke-linejoin:miter;stroke-miterlimit:10;stroke-dasharray:none;stroke-opacity:1"
   id="path3366"
   clip-path="none"
   transform="matrix(0.74441278,0,0,0.69763179,-1582.1701,1662.6677)" /><path
   d="m 929.72,476.493 h -0.867 v 1.459 h 0.867 z"
   style="fill:#f9d640;fill-opacity:1;fill-rule:nonzero;stroke:#000000;stroke-width:0.346912;stroke-linecap:butt;stroke-linejoin:miter;stroke-miterlimit:10;stroke-dasharray:none;stroke-opacity:1"
   id="path3368"
   clip-path="none"
   transform="matrix(0.74441278,0,0,0.69763179,-1582.1701,1662.6677)" /><path
   d="m 931.271,476.493 h -0.867 v 1.459 h 0.867 z"
   style="fill:#f9d640;fill-opacity:1;fill-rule:nonzero;stroke:#000000;stroke-width:0.346912;stroke-linecap:butt;stroke-linejoin:miter;stroke-miterlimit:10;stroke-dasharray:none;stroke-opacity:1"
   id="path3370"
   clip-path="none"
   transform="matrix(0.74441278,0,0,0.69763179,-1582.1701,1662.6677)" /><path
   d="m 932.822,476.493 h -0.867 v 1.459 h 0.867 z"
   style="fill:#f9d640;fill-opacity:1;fill-rule:nonzero;stroke:#000000;stroke-width:0.346912;stroke-linecap:butt;stroke-linejoin:miter;stroke-miterlimit:10;stroke-dasharray:none;stroke-opacity:1"
   id="path3372"
   clip-path="none"
   transform="matrix(0.74441278,0,0,0.69763179,-1582.1701,1662.6677)" /><path
   d="m 934.372,476.493 h -0.867 v 1.459 h 0.867 z"
   style="fill:#f9d640;fill-opacity:1;fill-rule:nonzero;stroke:#000000;stroke-width:0.346912;stroke-linecap:butt;stroke-linejoin:miter;stroke-miterlimit:10;stroke-dasharray:none;stroke-opacity:1"
   id="path3374"
   clip-path="none"
   transform="matrix(0.74441278,0,0,0.69763179,-1582.1701,1662.6677)" /><path
   d="m 935.923,476.493 h -0.867 v 1.459 h 0.867 z"
   style="fill:#f9d640;fill-opacity:1;fill-rule:nonzero;stroke:#000000;stroke-width:0.346912;stroke-linecap:butt;stroke-linejoin:miter;stroke-miterlimit:10;stroke-dasharray:none;stroke-opacity:1"
   id="path3376"
   clip-path="none"
   transform="matrix(0.74441278,0,0,0.69763179,-1582.1701,1662.6677)" /><path
   d="m 937.473,476.493 h -0.867 v 1.459 h 0.867 z"
   style="fill:#f9d640;fill-opacity:1;fill-rule:nonzero;stroke:#000000;stroke-width:0.346912;stroke-linecap:butt;stroke-linejoin:miter;stroke-miterlimit:10;stroke-dasharray:none;stroke-opacity:1"
   id="path3378"
   clip-path="none"
   transform="matrix(0.74441278,0,0,0.69763179,-1582.1701,1662.6677)" /><path
   d="m 939.024,476.493 h -0.867 v 1.459 h 0.867 z"
   style="fill:#f9d640;fill-opacity:1;fill-rule:nonzero;stroke:#000000;stroke-width:0.346912;stroke-linecap:butt;stroke-linejoin:miter;stroke-miterlimit:10;stroke-dasharray:none;stroke-opacity:1"
   id="path3380"
   clip-path="none"
   transform="matrix(0.74441278,0,0,0.69763179,-1582.1701,1662.6677)" /><path
   d="m 940.574,476.493 h -0.867 v 1.459 h 0.867 z"
   style="fill:#f9d640;fill-opacity:1;fill-rule:nonzero;stroke:#000000;stroke-width:0.346912;stroke-linecap:butt;stroke-linejoin:miter;stroke-miterlimit:10;stroke-dasharray:none;stroke-opacity:1"
   id="path3382"
   clip-path="none"
   transform="matrix(0.74441278,0,0,0.69763179,-1582.1701,1662.6677)" /><path
   d="m 942.125,476.493 h -0.867 v 1.459 h 0.867 z"
   style="fill:#f9d640;fill-opacity:1;fill-rule:nonzero;stroke:#000000;stroke-width:0.346912;stroke-linecap:butt;stroke-linejoin:miter;stroke-miterlimit:10;stroke-dasharray:none;stroke-opacity:1"
   id="path3384"
   clip-path="none"
   transform="matrix(0.74441278,0,0,0.69763179,-1582.1701,1662.6677)" /><path
   d="m 942.992,478.782 h -0.867 v 1.459 h 0.867 z"
   style="fill:#f9d640;fill-opacity:1;fill-rule:nonzero;stroke:#000000;stroke-width:0.346912;stroke-linecap:butt;stroke-linejoin:miter;stroke-miterlimit:10;stroke-dasharray:none;stroke-opacity:1"
   id="path3386"
   clip-path="none"
   transform="matrix(0.74441278,0,0,0.69763179,-1582.1701,1662.6677)" />








<style
   type="text/css"
   id="style1-5">
	.st0{fill:none;stroke:#000;stroke-width:2;}
	.st1{fill:#fff;stroke:#000;stroke-width:2;stroke-linejoin:round;}
	.st2{font-family:Liberation Sans,Arial;}
	.st3{font-size:17px;}
</style>










<!-- Outer cylindrical part --><!-- Inner optical port --><!-- Optical emitter (glowing red light) --><!-- Connector back end --><!-- Detail lines for depth --><!-- Device Panel --><!-- TOSLINK Port Cutout --><!-- Inner Optical Port --><!-- Optical Emitter (glowing red light) --><!-- Protective Cover --><!-- Detail Lines for Depth --></g><metadata
     id="metadata1"><rdf:RDF><cc:Work
         rdf:about=""><dc:title>Open Connector Graphics</dc:title><dc:date>03/04/2025</dc:date><dc:creator><cc:Agent><dc:title>Wikke Andeweg</dc:title></cc:Agent></dc:creator><dc:rights><cc:Agent><dc:title>Creative Commons Attribution 4.0 International</dc:title></cc:Agent></dc:rights><dc:source>https://github.com/WyzzyMoon/OpenConnectorGraphics</dc:source></cc:Work></rdf:RDF></metadata></svg>
