<?xml version="1.0" encoding="UTF-8" standalone="no"?>
<!-- Created with Inkscape (http://www.inkscape.org/) -->

<svg
   version="1.1"
   id="svg2"
   width="35.850338"
   height="42.79406"
   viewBox="0 0 35.850339 42.79406"
   xml:space="preserve"
   xmlns="http://www.w3.org/2000/svg"
   xmlns:svg="http://www.w3.org/2000/svg"
   xmlns:rdf="http://www.w3.org/1999/02/22-rdf-syntax-ns#"
   xmlns:cc="http://creativecommons.org/ns#"
   xmlns:dc="http://purl.org/dc/elements/1.1/"><title
     id="title1">Open Connector Graphics</title><defs
     id="defs6"><linearGradient
       id="linearGradient5590"><stop
         id="stop5592"
         offset="0"
         style="stop-color:#a91616;stop-opacity:1;" /></linearGradient><linearGradient
       id="linearGradient5660"><stop
         id="stop5662"
         offset="0"
         style="stop-color:#000000;stop-opacity:1;" /></linearGradient><style
       type="text/css"
       id="style1">
	.st0{fill:none;stroke:#000000;stroke-width:7;stroke-miterlimit:10;}
	.st1{fill:none;stroke:#000000;stroke-width:3;stroke-miterlimit:10;}
	.st2{fill:none;stroke:#000000;stroke-width:4;stroke-miterlimit:10;}
</style></defs><g
     id="g2466"
     transform="matrix(1.3333333,0,0,-1.3333333,-598.79847,2699.9813)"
     style="display:inline">








<style
   type="text/css"
   id="style1-5">
	.st0{fill:none;stroke:#000;stroke-width:2;}
	.st1{fill:#fff;stroke:#000;stroke-width:2;stroke-linejoin:round;}
	.st2{font-family:Liberation Sans,Arial;}
	.st3{font-size:17px;}
</style>










<!-- Outer cylindrical part --><!-- Inner optical port --><!-- Optical emitter (glowing red light) --><!-- Connector back end --><!-- Detail lines for depth --><!-- Device Panel --><!-- TOSLINK Port Cutout --><!-- Inner Optical Port --><!-- Optical Emitter (glowing red light) --><!-- Protective Cover --><!-- Detail Lines for Depth --><rect
   y="-2024.3552"
   x="460.02069"
   height="30.899849"
   width="4.8150988"
   id="rect11034"
   style="display:inline;fill:#c0c0c0;fill-opacity:1;fill-rule:nonzero;stroke:none;stroke-width:0.851199;stroke-dasharray:none"
   transform="scale(1,-1)"
   clip-path="none" /><path
   id="path14214"
   style="fill:none;stroke:#000000;stroke-width:0.75;stroke-linecap:round;stroke-linejoin:round;stroke-miterlimit:4;stroke-dasharray:none;stroke-opacity:1"
   d="m 460.08241,1993.4552 c 1.24051,-0.2396 3.51061,-0.2396 4.75469,0"
   clip-path="none" /><path
   id="path14218"
   style="fill:none;stroke:#000000;stroke-width:0.75;stroke-linecap:round;stroke-linejoin:round;stroke-miterlimit:4;stroke-dasharray:none;stroke-opacity:1"
   d="m 464.83567,2024.3556 c -1.24051,0.2396 -3.51061,0.2396 -4.75469,0"
   clip-path="none" /><path
   id="path14222"
   style="fill:none;stroke:#000000;stroke-width:0.75;stroke-linecap:round;stroke-linejoin:round;stroke-miterlimit:4;stroke-dasharray:none;stroke-opacity:1"
   d="m 464.83576,2021.68 v 2.6748"
   clip-path="none" /><path
   id="path14226"
   style="fill:none;stroke:#000000;stroke-width:0.75;stroke-linecap:round;stroke-linejoin:round;stroke-miterlimit:4;stroke-dasharray:none;stroke-opacity:1"
   d="m 460.08241,2024.3555 v -2.6748"
   clip-path="none" /><path
   id="path14230"
   style="fill:none;stroke:#000000;stroke-width:0.75;stroke-linecap:round;stroke-linejoin:round;stroke-miterlimit:4;stroke-dasharray:none;stroke-opacity:1"
   d="m 464.83576,1993.4552 v 2.6748"
   clip-path="none" /><path
   id="path14234"
   style="fill:none;stroke:#000000;stroke-width:0.75;stroke-linecap:round;stroke-linejoin:round;stroke-miterlimit:4;stroke-dasharray:none;stroke-opacity:1"
   d="m 460.08241,1996.1307 v -2.6748"
   clip-path="none" /><path
   id="path60302"
   style="fill:#c0c0c0;fill-opacity:1;stroke:#000000;stroke-width:0.75;stroke-linecap:round;stroke-linejoin:round;stroke-miterlimit:4;stroke-dasharray:none;stroke-opacity:1"
   d="m 475.44586,2008.9052 c 0,7.1734 -5.81645,12.9879 -12.98424,12.9879 -7.17494,0 -12.98782,-5.8145 -12.98782,-12.9879 0,-7.1734 5.81288,-12.9879 12.98782,-12.9879 7.16779,0 12.98424,5.8145 12.98424,12.9879 z"
   clip-path="none" /><path
   id="path60310"
   style="fill:#c0c0c0;fill-opacity:1;stroke:#000000;stroke-width:0.75;stroke-linecap:round;stroke-linejoin:round;stroke-miterlimit:4;stroke-dasharray:none;stroke-opacity:1"
   d="m 473.28833,2008.9052 c 0,5.9826 -4.84764,10.8316 -10.82854,10.8316 -5.98091,0 -10.83212,-4.849 -10.83212,-10.8316 0,-5.9826 4.85121,-10.8316 10.83212,-10.8316 5.9809,0 10.82854,4.849 10.82854,10.8316 z"
   clip-path="none" /><path
   id="path60338"
   style="fill:#ffffff;fill-opacity:1;stroke:#000000;stroke-width:0.75;stroke-linecap:round;stroke-linejoin:round;stroke-miterlimit:4;stroke-dasharray:none;stroke-opacity:1"
   d="m 468.49252,2008.9052 c 0,3.3327 -2.70092,6.0344 -6.03266,6.0344 -3.33481,0 -6.03266,-2.7017 -6.03266,-6.0344 0,-3.3327 2.69785,-6.0344 6.03266,-6.0344 3.33174,0 6.03266,2.7017 6.03266,6.0344 z"
   clip-path="none" /><path
   id="path60450"
   style="fill:#030000;fill-opacity:1;stroke:#f3af3f;stroke-width:0.75;stroke-linecap:round;stroke-linejoin:round;stroke-miterlimit:4;stroke-dasharray:none;stroke-opacity:1"
   d="m 464.70346,2008.9052 c 0,1.2409 -1.00456,2.2457 -2.24507,2.2457 -1.24051,0 -2.24508,-1.0048 -2.24508,-2.2457 0,-1.2409 1.00457,-2.2457 2.24508,-2.2457 1.24051,0 2.24507,1.0048 2.24507,2.2457 z"
   clip-path="none" /></g><metadata
     id="metadata1"><rdf:RDF><cc:Work
         rdf:about=""><dc:title>Open Connector Graphics</dc:title><dc:date>03/04/2025</dc:date><dc:creator><cc:Agent><dc:title>Wikke Andeweg</dc:title></cc:Agent></dc:creator><dc:rights><cc:Agent><dc:title>Creative Commons Attribution 4.0 International</dc:title></cc:Agent></dc:rights><dc:source>https://github.com/WyzzyMoon/OpenConnectorGraphics</dc:source></cc:Work></rdf:RDF></metadata></svg>
