<?xml version="1.0" encoding="UTF-8" standalone="no"?>
<!-- Created with Inkscape (http://www.inkscape.org/) -->

<svg
   version="1.1"
   id="svg2"
   width="75.589836"
   height="93.53508"
   viewBox="0 0 75.589838 93.535082"
   xml:space="preserve"
   xmlns="http://www.w3.org/2000/svg"
   xmlns:svg="http://www.w3.org/2000/svg"
   xmlns:rdf="http://www.w3.org/1999/02/22-rdf-syntax-ns#"
   xmlns:cc="http://creativecommons.org/ns#"
   xmlns:dc="http://purl.org/dc/elements/1.1/"><title
     id="title1">Open Connector Graphics</title><defs
     id="defs6"><linearGradient
       id="linearGradient5590"><stop
         id="stop5592"
         offset="0"
         style="stop-color:#a91616;stop-opacity:1;" /></linearGradient><linearGradient
       id="linearGradient5660"><stop
         id="stop5662"
         offset="0"
         style="stop-color:#000000;stop-opacity:1;" /></linearGradient><style
       type="text/css"
       id="style1">
	.st0{fill:none;stroke:#000000;stroke-width:7;stroke-miterlimit:10;}
	.st1{fill:none;stroke:#000000;stroke-width:3;stroke-miterlimit:10;}
	.st2{fill:none;stroke:#000000;stroke-width:4;stroke-miterlimit:10;}
</style></defs><g
     id="g2466"
     transform="matrix(1.3333333,0,0,-1.3333333,-1020.3839,2750.7764)"
     style="display:inline">








<style
   type="text/css"
   id="style1-5">
	.st0{fill:none;stroke:#000;stroke-width:2;}
	.st1{fill:#fff;stroke:#000;stroke-width:2;stroke-linejoin:round;}
	.st2{font-family:Liberation Sans,Arial;}
	.st3{font-size:17px;}
</style><path
   id="path13294-2-9"
   style="fill:#d1d3d4;fill-opacity:1;stroke:#000000;stroke-width:0.75;stroke-linecap:round;stroke-linejoin:round;stroke-miterlimit:4;stroke-dasharray:none;stroke-opacity:1"
   d="m 787.32055,2048.4574 a 27.971455,27.971455 0 0 1 -21.65771,-27.1801 27.971455,27.971455 0 0 1 27.97119,-27.9712 27.971455,27.971455 0 0 1 27.97119,27.9712 27.971455,27.971455 0 0 1 -20.8623,27.0468 v -8.2133 h -13.42237 z"
   clip-path="none" /><path
   id="circle164"
   style="fill:#333333;fill-opacity:1;stroke:#000000;stroke-width:0.75;stroke-linecap:round;stroke-linejoin:round;stroke-miterlimit:4;stroke-dasharray:none;stroke-opacity:1"
   d="m 794.08669,2049.5654 c -3.71429,0 -6.70459,-0.6439 -6.70459,-1.4429 v -2.4726 a 25.136811,25.136811 0 0 1 -18.88477,-24.2989 25.136811,25.136811 0 0 1 25.13673,-25.1367 25.136811,25.136811 0 0 1 25.13671,25.1367 25.136811,25.136811 0 0 1 -17.97949,24.0923 v 2.6792 c 0,0.799 -2.9903,1.4429 -6.70459,1.4429 z"
   clip-path="none" /><path
   id="path165"
   d="m 793.63402,2042.9027 c -4.52695,0 -8.72653,-1.3986 -12.1959,-3.7862 h -1.88097 c -1.35914,0 -2.52412,-1.165 -2.52412,-2.5241 v -1.4987 c -3.09481,-3.7316 -4.95117,-8.52 -4.95117,-13.7431 0,-11.8968 9.65536,-21.5522 21.55216,-21.5522 11.8968,0 21.55217,9.6554 21.55217,21.5522 0,11.8968 -9.65537,21.5521 -21.55217,21.5521 z"
   style="fill:#1a1a1a;fill-opacity:1;stroke:#000000;stroke-width:0.75;stroke-linecap:round;stroke-linejoin:round;stroke-miterlimit:4;stroke-dasharray:none;stroke-opacity:1"
   clip-path="none" /><circle
   transform="scale(-1)"
   id="circle165"
   style="fill:#000000;fill-opacity:1;stroke:#000000;stroke-width:0.749999;stroke-linecap:round;stroke-linejoin:round;stroke-miterlimit:4;stroke-dasharray:none;stroke-opacity:1"
   cx="-782.96448"
   cy="-2021.3506"
   r="2.7431102"
   clip-path="none" /><circle
   style="fill:#000000;fill-opacity:1;stroke:#000000;stroke-width:0.749999;stroke-linecap:round;stroke-linejoin:round;stroke-miterlimit:4;stroke-dasharray:none;stroke-opacity:1"
   id="circle166"
   transform="scale(-1)"
   cx="-805.09912"
   cy="-2021.3506"
   r="2.7431102"
   clip-path="none" /><circle
   transform="scale(-1)"
   id="circle167"
   style="fill:#000000;fill-opacity:1;stroke:#000000;stroke-width:0.75;stroke-linecap:round;stroke-linejoin:round;stroke-miterlimit:4;stroke-dasharray:none;stroke-opacity:1"
   cx="-794.0318"
   cy="-2011.4482"
   r="2.7431102"
   clip-path="none" /><rect
   style="fill:#d1d3d4;fill-opacity:1;stroke:#000000;stroke-width:0.75;stroke-linecap:butt;stroke-linejoin:round;stroke-dasharray:none;stroke-opacity:1"
   id="rect177"
   width="27.596458"
   height="13.423229"
   x="780.24573"
   y="-2062.6306"
   ry="4.6022415"
   rx="13.798229"
   transform="scale(1,-1)"
   clip-path="none" /><rect
   style="fill:#d1d3d4;fill-opacity:1;stroke:#000000;stroke-width:0.75;stroke-linecap:butt;stroke-linejoin:round;stroke-dasharray:none;stroke-opacity:1"
   id="rect181"
   width="13.313641"
   height="1.4420992"
   x="787.42932"
   y="-2049.7664"
   rx="0"
   ry="1.4420992"
   transform="scale(1,-1)"
   clip-path="none" /><circle
   id="path12"
   style="fill:#000000;stroke:#000000;stroke-width:0.75"
   cx="808.30322"
   cy="-2038.8519"
   r="0.06257432"
   transform="scale(1,-1)"
   clip-path="none" />










<!-- Outer cylindrical part --><!-- Inner optical port --><!-- Optical emitter (glowing red light) --><!-- Connector back end --><!-- Detail lines for depth --><!-- Device Panel --><!-- TOSLINK Port Cutout --><!-- Inner Optical Port --><!-- Optical Emitter (glowing red light) --><!-- Protective Cover --><!-- Detail Lines for Depth --></g><metadata
     id="metadata1"><rdf:RDF><cc:Work
         rdf:about=""><dc:title>Open Connector Graphics</dc:title><dc:date>03/04/2025</dc:date><dc:creator><cc:Agent><dc:title>Wikke Andeweg</dc:title></cc:Agent></dc:creator><dc:rights><cc:Agent><dc:title>Creative Commons Attribution 4.0 International</dc:title></cc:Agent></dc:rights><dc:source>https://github.com/WyzzyMoon/OpenConnectorGraphics</dc:source></cc:Work></rdf:RDF></metadata></svg>
