<?xml version="1.0" encoding="UTF-8" standalone="no"?>
<!-- Created with Inkscape (http://www.inkscape.org/) -->

<svg
   version="1.1"
   id="svg2"
   width="49.232307"
   height="219.73341"
   viewBox="0 0 49.232309 219.73342"
   xml:space="preserve"
   xmlns="http://www.w3.org/2000/svg"
   xmlns:svg="http://www.w3.org/2000/svg"
   xmlns:rdf="http://www.w3.org/1999/02/22-rdf-syntax-ns#"
   xmlns:cc="http://creativecommons.org/ns#"
   xmlns:dc="http://purl.org/dc/elements/1.1/"><title
     id="title1">Open Connector Graphics</title><defs
     id="defs6"><linearGradient
       id="linearGradient5590"><stop
         id="stop5592"
         offset="0"
         style="stop-color:#a91616;stop-opacity:1;" /></linearGradient><linearGradient
       id="linearGradient5660"><stop
         id="stop5662"
         offset="0"
         style="stop-color:#000000;stop-opacity:1;" /></linearGradient><style
       type="text/css"
       id="style1">
	.st0{fill:none;stroke:#000000;stroke-width:7;stroke-miterlimit:10;}
	.st1{fill:none;stroke:#000000;stroke-width:3;stroke-miterlimit:10;}
	.st2{fill:none;stroke:#000000;stroke-width:4;stroke-miterlimit:10;}
</style></defs><g
     id="g2466"
     transform="matrix(1.3333333,0,0,-1.3333333,1662.982,2611.0953)"
     style="display:inline"><path
   d="m 594.439,391.436 h 22.921 v 22.921 h -22.921 z"
   style="fill:#d1d3d4;fill-opacity:1;fill-rule:nonzero;stroke:#000000;stroke-width:0.962262;stroke-linecap:butt;stroke-linejoin:miter;stroke-miterlimit:10;stroke-dasharray:none;stroke-opacity:1"
   id="path2748"
   clip-path="none"
   transform="matrix(0.78130687,0,0,0.77752498,-1708.2956,1635.7616)" /><path
   d="m 619.221,391.436 h 13.847 v 22.921 h -13.847 z"
   style="fill:#d1d3d4;fill-opacity:1;fill-rule:nonzero;stroke:#000000;stroke-width:0.962262;stroke-linecap:butt;stroke-linejoin:miter;stroke-miterlimit:10;stroke-dasharray:none;stroke-opacity:1"
   id="path2750"
   clip-path="none"
   transform="matrix(0.78130687,0,0,0.77752498,-1708.2956,1635.7616)" /><path
   d="m 617.359,391.436 h 1.862 v 22.921 h -1.862 z"
   style="fill:#d1d3d4;fill-opacity:1;fill-rule:nonzero;stroke:#000000;stroke-width:0.962262;stroke-linecap:butt;stroke-linejoin:miter;stroke-miterlimit:10;stroke-dasharray:none;stroke-opacity:1"
   id="path2752"
   clip-path="none"
   transform="matrix(0.78130687,0,0,0.77752498,-1708.2956,1635.7616)" /><path
   d="m -1234.9026,1957.9339 v -4.5369 h -1.6509 v -3.9055 h 1.6509 v -5.3999 h -1.6509 v -3.5097"
   style="fill:none;stroke:#000000;stroke-width:0.75;stroke-linecap:butt;stroke-linejoin:miter;stroke-miterlimit:10;stroke-dasharray:none;stroke-opacity:1"
   id="path2756"
   clip-path="none" /><path
   d="m -1210.3406,1941.4524 h -36.8504 v -29.3816 h 5.3201 v -12.1559 h 26.2102 v 12.1559 h 5.3201 z"
   style="fill:#1a1a1a;fill-opacity:1;fill-rule:nonzero;stroke:none;stroke-width:0.999997"
   id="path2742"
   clip-path="none" /><path
   d="m -1233.2577,1911.1914 c 0,-0.8163 0.2409,-1.6918 0.7482,-2.3336 0.3906,-0.4937 1.0004,-0.8602 1.6206,-0.9771 0.4809,-0.091 1.0555,-0.046 1.4468,0.2473 0.6643,0.4954 0.7091,1.4941 1.0908,2.2271 0.3777,0.7267 0.3369,0.7963 0.721,0.8827 0.3161,0.071 0.6899,-0.1544 0.9195,-0.3817 0.1745,-0.1721 0.2489,-0.4281 0.3113,-0.6642 0.049,-0.1817 0.074,-0.3753 0.046,-0.5602 -0.046,-0.3065 -0.1,-0.669 -0.3417,-0.8635 -0.2801,-0.2249 -1.0651,-0.1736 -1.0651,-0.1736 v -1.5726 c 0,0 1.2348,-0.1248 1.7342,0.1697 0.4065,0.2401 0.6338,0.7242 0.7986,1.1636 0.1441,0.3841 0.1809,0.8122 0.1425,1.2204 -0.07,0.7298 -0.2609,1.4845 -0.6635,2.0991 -0.3105,0.4745 -0.7642,0.8866 -1.2828,1.1195 -0.3561,0.1601 -0.849,0.1641 -1.1628,0.1497 -0.3137,-0.014 -1.0195,-0.377 -1.2476,-0.9579 -0.2272,-0.5786 -0.3169,-1.6006 -0.6986,-2.1271 -0.2057,-0.2825 -0.3345,-0.3666 -0.6858,-0.377 -0.3425,-0.01 -0.7875,0.3442 -0.9827,0.6242 -0.1809,0.2617 -0.2001,0.5858 -0.1705,0.9019 0.026,0.2905 0.1057,0.6875 0.3481,0.8011 0.2425,0.1136 0.7731,0.1168 0.7731,0.1168 v 1.4525 c -1.2548,0 -1.4293,-0.1328 -1.899,-0.605 -0.3906,-0.3929 -0.5018,-1.0299 -0.5002,-1.5821 m -1.1636,15.8708 c 0,-0.561 0.3577,-1.0332 0.8603,-1.2084 v -1.8046 c 0,-0.5746 0.3201,-1.1772 0.6922,-1.5613 8e-4,-8e-4 8e-4,8e-4 0,0 0.01,-0.01 2.8754,-2.7665 2.8754,-2.7665 0.1744,-0.2177 0.2977,-0.5018 0.3049,-0.7947 v -1.6477 c -0.1097,-0.4578 -0.2313,-0.9331 -0.4538,-1.2396 -0.2057,-0.2833 -0.3345,-0.3649 -0.6858,-0.3753 -0.3425,-0.01 -0.7875,0.3441 -0.9827,0.6242 -0.1809,0.2616 -0.2001,0.5841 -0.1705,0.9003 0.026,0.2904 0.1057,0.6874 0.3481,0.801 0.2425,0.1136 0.7731,0.1185 0.7731,0.1185 v 1.4508 c -1.2548,0 -1.4293,-0.1328 -1.899,-0.605 -0.3906,-0.3929 -0.5018,-1.0283 -0.5002,-1.5805 0,-0.8163 0.2425,-1.6917 0.7498,-2.3335 0.3906,-0.4938 0.9988,-0.8619 1.619,-0.9788 0.4809,-0.091 1.0555,-0.044 1.4468,0.2489 0.6643,0.4954 0.7091,1.4925 1.0908,2.2255 0.3777,0.7267 0.3369,0.7979 0.721,0.8843 0.3161,0.071 0.6899,-0.156 0.9195,-0.3833 0.1745,-0.1721 0.2489,-0.4281 0.3113,-0.6642 0.049,-0.1817 0.074,-0.3753 0.046,-0.5602 -0.046,-0.3065 -0.1,-0.6698 -0.3417,-0.8635 -0.2801,-0.2249 -1.0651,-0.1736 -1.0651,-0.1736 v -1.5725 c 0,0 1.2348,-0.1249 1.7342,0.1696 0.4065,0.2401 0.6338,0.7242 0.7986,1.1636 0.1441,0.3841 0.1809,0.8123 0.1425,1.2196 -0.07,0.7306 -0.2609,1.4853 -0.6635,2.0999 -0.3105,0.4737 -0.7642,0.8883 -1.2828,1.1211 -0.3561,0.1601 -0.849,0.1625 -1.1628,0.1481 -0.1536,-0.01 -0.4001,-0.097 -0.6394,-0.2553 0,1.1188 0,2.2975 0,3.2723 0.01,0.2921 0.1297,0.5762 0.3049,0.793 0,0 3.0274,2.7049 3.0362,2.7137 0.5162,0.533 0.5322,1.0884 0.5378,1.3476 v 1.9919 h 0.8595 v 2.568 h -2.5809 v -2.568 h 0.8595 v -2.0159 c -0.01,-0.2929 -0.12,-0.5786 -0.2953,-0.7954 l -2.7217,-2.3448 0.01,9.6496 h 0.8603 l -1.2908,2.2247 -1.2908,-2.2247 h 0.8603 v -12.8626 l -2.7105,2.6112 c -0.1761,0.2177 -0.2953,0.5026 -0.3017,0.7955 0,1.1852 0,1.5693 0,1.8286 0.5025,0.1752 0.8595,0.6474 0.8595,1.2084 0,0.709 -0.577,1.2836 -1.2909,1.2836 -0.7138,0 -1.2908,-0.5746 -1.2908,-1.2836 m 0.8787,4.8303 c -0.05,-0.3545 -0.2305,-0.725 -0.5842,-0.861 -0.3753,-0.1697 -0.6666,-0.1177 -0.6666,-0.1177 v 0.677 c 0,0 0.481,0.084 0.625,0.2889 0.2569,0.3209 0.1184,0.8755 -0.2833,1.0068 -0.3873,0.1568 -0.8147,0.1136 -1.2228,0.1064 -0.3265,-0.026 -0.7306,-0.042 -0.9219,-0.3521 -0.079,-0.1537 -0.093,-0.3401 -0.058,-0.5066 0.108,-0.3433 0.1737,-0.3921 0.6154,-0.5194 l -0.01,-0.6298 -3.1066,-0.01 c 0,0 0,2.4264 -0.01,2.4752 h 0.6506 l -0.01,-1.7469 1.5981,-8e-4 c 0,0 -0.2337,0.2457 -0.2521,0.3873 -0.1112,0.2473 -0.108,0.5298 -0.066,0.7915 0.1016,0.4033 0.4922,0.6546 0.8819,0.733 0.4433,0.1072 0.9019,0.09 1.354,0.082 0.4242,-0.039 0.8883,-0.1352 1.178,-0.4737 0.2281,-0.2817 0.2921,-0.5282 0.2897,-1.0084 0,-0.1464 0,-0.2152 -0.01,-0.3217 z"
   style="fill:#ffffff;fill-opacity:1;fill-rule:nonzero;stroke:none;stroke-width:0.999997"
   id="path4144"
   clip-path="none" /><rect
   style="fill:#1a1a1a;fill-opacity:1;stroke:none;stroke-width:0.750003;stroke-dasharray:none"
   id="rect176"
   width="9.6553955"
   height="106.48902"
   x="-1233.5935"
   y="-1899.9149"
   transform="scale(1,-1)"
   clip-path="none" />








<style
   type="text/css"
   id="style1-5">
	.st0{fill:none;stroke:#000;stroke-width:2;}
	.st1{fill:#fff;stroke:#000;stroke-width:2;stroke-linejoin:round;}
	.st2{font-family:Liberation Sans,Arial;}
	.st3{font-size:17px;}
</style>










<!-- Outer cylindrical part --><!-- Inner optical port --><!-- Optical emitter (glowing red light) --><!-- Connector back end --><!-- Detail lines for depth --><!-- Device Panel --><!-- TOSLINK Port Cutout --><!-- Inner Optical Port --><!-- Optical Emitter (glowing red light) --><!-- Protective Cover --><!-- Detail Lines for Depth --></g><metadata
     id="metadata1"><rdf:RDF><cc:Work
         rdf:about=""><dc:title>Open Connector Graphics</dc:title><dc:date>03/04/2025</dc:date><dc:creator><cc:Agent><dc:title>Wikke Andeweg</dc:title></cc:Agent></dc:creator><dc:rights><cc:Agent><dc:title>Creative Commons Attribution 4.0 International</dc:title></cc:Agent></dc:rights><dc:source>https://github.com/WyzzyMoon/OpenConnectorGraphics</dc:source></cc:Work></rdf:RDF></metadata></svg>
