<?xml version="1.0" encoding="UTF-8" standalone="no"?>
<!-- Created with Inkscape (http://www.inkscape.org/) -->

<svg
   version="1.1"
   id="svg2"
   width="43.840626"
   height="348.95718"
   viewBox="0 0 43.840627 348.95719"
   xml:space="preserve"
   xmlns="http://www.w3.org/2000/svg"
   xmlns:svg="http://www.w3.org/2000/svg"
   xmlns:rdf="http://www.w3.org/1999/02/22-rdf-syntax-ns#"
   xmlns:cc="http://creativecommons.org/ns#"
   xmlns:dc="http://purl.org/dc/elements/1.1/"><title
     id="title1">Open Connector Graphics</title><defs
     id="defs6"><linearGradient
       id="linearGradient5590"><stop
         id="stop5592"
         offset="0"
         style="stop-color:#a91616;stop-opacity:1;" /></linearGradient><linearGradient
       id="linearGradient5660"><stop
         id="stop5662"
         offset="0"
         style="stop-color:#000000;stop-opacity:1;" /></linearGradient><style
       type="text/css"
       id="style1">
	.st0{fill:none;stroke:#000000;stroke-width:7;stroke-miterlimit:10;}
	.st1{fill:none;stroke:#000000;stroke-width:3;stroke-miterlimit:10;}
	.st2{fill:none;stroke:#000000;stroke-width:4;stroke-miterlimit:10;}
</style></defs><g
     id="g2466"
     transform="matrix(1.3333333,0,0,-1.3333333,-1541.3609,2611.1838)"
     style="display:inline">








<style
   type="text/css"
   id="style1-5">
	.st0{fill:none;stroke:#000;stroke-width:2;}
	.st1{fill:#fff;stroke:#000;stroke-width:2;stroke-linejoin:round;}
	.st2{font-family:Liberation Sans,Arial;}
	.st3{font-size:17px;}
</style>










<rect
   style="fill:#1a1a1a;fill-opacity:1;stroke:none;stroke-width:0.750001;stroke-dasharray:none"
   id="rect278-1"
   width="9.1712599"
   height="184.94289"
   x="1167.9503"
   y="-1881.5254"
   transform="scale(1,-1)"
   clip-path="none" /><rect
   style="fill:#c0c0c0;fill-opacity:1;stroke:#000000;stroke-width:0.75;stroke-dasharray:none"
   id="rect234-5"
   width="7.7539372"
   height="38.93504"
   x="1168.6592"
   y="-1957.9879"
   transform="scale(1,-1)"
   ry="3.8769686"
   clip-path="none" /><path
   id="rect237-6"
   style="fill:#c0c0c0;fill-opacity:1;stroke:#000000;stroke-width:0.750003;stroke-dasharray:none"
   d="m 1170.8646,1934.9186 c -2.4001,0 -4.3316,-1.9314 -4.3316,-4.3315 v -7.0063 h -2.7114 v 7.0063 c 0,2.174 -1.584,3.9639 -3.6665,4.2817 v -11.288 -4.8707 -0.05 h 10.7095 3.3427 10.7095 v 4.9205 0 11.288 c -2.0824,-0.3178 -3.6665,-2.1077 -3.6665,-4.2817 v -7.0063 h -2.7099 v 7.0063 c 0,2.4001 -1.9315,4.3315 -4.3316,4.3315 z"
   clip-path="none" /><path
   id="rect238-2"
   style="fill:#ff7200;fill-opacity:1;stroke:#000000;stroke-width:0.75;stroke-dasharray:none"
   d="m 1156.6116,1918.6602 v -41.77 l 6.378,-15.8832 v -4.2525 h 2.1255 v -2.8345 h -2.1255 v -2.8344 h 2.1255 v -2.8344 h -2.1255 v -2.8345 h 2.1255 v -2.8345 h -2.1255 v -2.8345 h 2.1255 v -2.8344 h -2.1255 v -2.8345 h 2.1255 v -2.8345 h -2.1255 v -2.8359 h 2.1255 v -2.8345 h -2.1255 v -7.0854 h 19.0927 v 7.0854 h -2.1254 v 2.8345 h 2.1254 v 2.8359 h -2.1254 v 2.8345 h 2.1254 v 2.8345 h -2.1254 v 2.8344 h 2.1254 v 2.8345 h -2.1254 v 2.8345 h 2.1254 v 2.8345 h -2.1254 v 2.8344 h 2.1254 v 2.8344 h -2.1254 v 2.8345 h 2.1254 v 4.2525 l 6.378,15.8832 v 41.77 z m 11.5108,-61.9057 h 3.3706 v -2.8345 h -3.3706 z m 5.4565,0 h 3.3809 v -2.8345 h -3.3809 z m -5.4565,-5.669 h 3.3706 v -2.8344 h -3.3706 z m 5.4565,0 h 3.3809 v -2.8344 h -3.3809 z m -5.4565,-5.6689 h 3.3706 v -2.8344 h -3.3706 z m 5.4565,0 h 3.3809 v -2.8344 h -3.3809 z m -5.4565,-5.669 h 3.3706 v -2.8344 h -3.3706 z m 5.4565,0 h 3.3809 v -2.8344 h -3.3809 z m -5.4565,-5.6689 h 3.3706 v -2.8344 h -3.3706 z m 5.4565,0 h 3.3809 v -2.8344 h -3.3809 z m -5.4565,-5.6704 h 3.3706 v -2.8344 h -3.3706 z m 5.4565,0 h 3.3809 v -2.8344 h -3.3809 z"
   clip-path="none" /><!-- Outer cylindrical part --><!-- Inner optical port --><!-- Optical emitter (glowing red light) --><!-- Connector back end --><!-- Detail lines for depth --><!-- Device Panel --><!-- TOSLINK Port Cutout --><!-- Inner Optical Port --><!-- Optical Emitter (glowing red light) --><!-- Protective Cover --><!-- Detail Lines for Depth --></g><metadata
     id="metadata1"><rdf:RDF><cc:Work
         rdf:about=""><dc:title>Open Connector Graphics</dc:title><dc:date>03/04/2025</dc:date><dc:creator><cc:Agent><dc:title>Wikke Andeweg</dc:title></cc:Agent></dc:creator><dc:rights><cc:Agent><dc:title>Creative Commons Attribution 4.0 International</dc:title></cc:Agent></dc:rights><dc:source>https://github.com/WyzzyMoon/OpenConnectorGraphics</dc:source></cc:Work></rdf:RDF></metadata></svg>
