<?xml version="1.0" encoding="UTF-8" standalone="no"?>
<!-- Created with Inkscape (http://www.inkscape.org/) -->

<svg
   version="1.1"
   id="svg2"
   width="60.850277"
   height="30.483734"
   viewBox="0 0 60.850279 30.483735"
   xml:space="preserve"
   xmlns="http://www.w3.org/2000/svg"
   xmlns:svg="http://www.w3.org/2000/svg"
   xmlns:rdf="http://www.w3.org/1999/02/22-rdf-syntax-ns#"
   xmlns:cc="http://creativecommons.org/ns#"
   xmlns:dc="http://purl.org/dc/elements/1.1/"><title
     id="title1">Open Connector Graphics</title><defs
     id="defs6"><linearGradient
       id="linearGradient5590"><stop
         id="stop5592"
         offset="0"
         style="stop-color:#a91616;stop-opacity:1;" /></linearGradient><linearGradient
       id="linearGradient5660"><stop
         id="stop5662"
         offset="0"
         style="stop-color:#000000;stop-opacity:1;" /></linearGradient><style
       type="text/css"
       id="style1">
	.st0{fill:none;stroke:#000000;stroke-width:7;stroke-miterlimit:10;}
	.st1{fill:none;stroke:#000000;stroke-width:3;stroke-miterlimit:10;}
	.st2{fill:none;stroke:#000000;stroke-width:4;stroke-miterlimit:10;}
</style></defs><g
     id="g2466"
     transform="matrix(1.3333333,0,0,-1.3333333,598.10457,2688.6365)"
     style="display:inline"><path
   d="m -440.12484,1993.9897 c -2.89802,0 -5.40339,2.0652 -5.95812,4.9104 l -2.01437,10.3582 c -0.32813,1.6906 0.11173,3.4236 1.20626,4.7522 1.0961,1.3293 2.71231,2.0919 4.43397,2.0919 h 33.39524 c 1.72166,0 3.33709,-0.7626 4.4324,-2.0919 1.09531,-1.3286 1.53596,-3.0616 1.20783,-4.7522 l -2.01515,-10.3582 c -0.55395,-2.8452 -3.06011,-4.9104 -5.95813,-4.9104 z"
   style="fill:#d1d3d4;fill-opacity:1;fill-rule:nonzero;stroke:#000000;stroke-width:0.75;stroke-dasharray:none"
   id="path2488"
   clip-path="none" /><path
   d="m -440.12484,1995.1699 c -2.33462,0 -4.35292,1.6638 -4.79908,3.9565 l -2.01358,10.3574 c -0.26124,1.3435 0.0873,2.72 0.9584,3.7755 0.86948,1.057 2.15364,1.6622 3.522,1.6622 h 33.39524 c 1.36836,0 2.65252,-0.6052 3.522,-1.6622 0.87106,-1.0555 1.21964,-2.432 0.9584,-3.7755 l -2.01516,-10.3574 c -0.44536,-2.2927 -2.46366,-3.9565 -4.7975,-3.9565 z"
   style="fill:#144aa0;fill-opacity:1;fill-rule:nonzero;stroke:#000000;stroke-width:0.75;stroke-dasharray:none"
   id="path3914"
   clip-path="none" /><path
   d="m -436.18006,2010.406 c 0,-0.9649 -0.78214,-1.7472 -1.74684,-1.7472 -0.96469,0 -1.74683,0.7823 -1.74683,1.7472 0,0.9649 0.78214,1.7472 1.74683,1.7472 0.9647,0 1.74684,-0.7823 1.74684,-1.7472"
   style="fill:#f9d640;fill-opacity:1;fill-rule:nonzero;stroke:#000000;stroke-width:0.75;stroke-dasharray:none"
   id="path3922"
   clip-path="none" /><path
   d="m -436.18006,2010.406 c 0,-0.9649 -0.78214,-1.7472 -1.74684,-1.7472 -0.96469,0 -1.74683,0.7823 -1.74683,1.7472 0,0.9649 0.78214,1.7472 1.74683,1.7472 0.9647,0 1.74684,-0.7823 1.74684,-1.7472 z"
   style="fill:none;stroke:#000000;stroke-width:0.75;stroke-linecap:butt;stroke-linejoin:miter;stroke-miterlimit:10;stroke-dasharray:none;stroke-opacity:1"
   id="path3926"
   clip-path="none" /><path
   d="m -430.10186,2010.406 c 0,-0.9649 -0.78214,-1.7472 -1.74684,-1.7472 -0.96469,0 -1.74683,0.7823 -1.74683,1.7472 0,0.9649 0.78214,1.7472 1.74683,1.7472 0.9647,0 1.74684,-0.7823 1.74684,-1.7472"
   style="fill:#f9d640;fill-opacity:1;fill-rule:nonzero;stroke:#000000;stroke-width:0.75;stroke-dasharray:none"
   id="path3930"
   clip-path="none" /><path
   d="m -430.10186,2010.406 c 0,-0.9649 -0.78214,-1.7472 -1.74684,-1.7472 -0.96469,0 -1.74683,0.7823 -1.74683,1.7472 0,0.9649 0.78214,1.7472 1.74683,1.7472 0.9647,0 1.74684,-0.7823 1.74684,-1.7472 z"
   style="fill:none;stroke:#000000;stroke-width:0.75;stroke-linecap:butt;stroke-linejoin:miter;stroke-miterlimit:10;stroke-dasharray:none;stroke-opacity:1"
   id="path3934"
   clip-path="none" /><path
   d="m -424.02358,2010.406 c 0,-0.9649 -0.78214,-1.7472 -1.74684,-1.7472 -0.96469,0 -1.74683,0.7823 -1.74683,1.7472 0,0.9649 0.78214,1.7472 1.74683,1.7472 0.9647,0 1.74684,-0.7823 1.74684,-1.7472"
   style="fill:#f9d640;fill-opacity:1;fill-rule:nonzero;stroke:#000000;stroke-width:0.75;stroke-dasharray:none"
   id="path3938"
   clip-path="none" /><path
   d="m -424.02358,2010.406 c 0,-0.9649 -0.78214,-1.7472 -1.74684,-1.7472 -0.96469,0 -1.74683,0.7823 -1.74683,1.7472 0,0.9649 0.78214,1.7472 1.74683,1.7472 0.9647,0 1.74684,-0.7823 1.74684,-1.7472 z"
   style="fill:none;stroke:#000000;stroke-width:0.75;stroke-linecap:butt;stroke-linejoin:miter;stroke-miterlimit:10;stroke-dasharray:none;stroke-opacity:1"
   id="path3942"
   clip-path="none" /><path
   d="m -417.94538,2010.406 c 0,-0.9649 -0.78214,-1.7472 -1.74684,-1.7472 -0.96469,0 -1.74683,0.7823 -1.74683,1.7472 0,0.9649 0.78214,1.7472 1.74683,1.7472 0.9647,0 1.74684,-0.7823 1.74684,-1.7472"
   style="fill:#f9d640;fill-opacity:1;fill-rule:nonzero;stroke:#000000;stroke-width:0.75;stroke-dasharray:none"
   id="path3946"
   clip-path="none" /><path
   d="m -417.94538,2010.406 c 0,-0.9649 -0.78214,-1.7472 -1.74684,-1.7472 -0.96469,0 -1.74683,0.7823 -1.74683,1.7472 0,0.9649 0.78214,1.7472 1.74683,1.7472 0.9647,0 1.74684,-0.7823 1.74684,-1.7472 z"
   style="fill:none;stroke:#000000;stroke-width:0.75;stroke-linecap:butt;stroke-linejoin:miter;stroke-miterlimit:10;stroke-dasharray:none;stroke-opacity:1"
   id="path3950"
   clip-path="none" /><path
   d="m -411.8671,2010.406 c 0,-0.9649 -0.78214,-1.7472 -1.74684,-1.7472 -0.96469,0 -1.74683,0.7823 -1.74683,1.7472 0,0.9649 0.78214,1.7472 1.74683,1.7472 0.9647,0 1.74684,-0.7823 1.74684,-1.7472"
   style="fill:#f9d640;fill-opacity:1;fill-rule:nonzero;stroke:#000000;stroke-width:0.75;stroke-dasharray:none"
   id="path3954"
   clip-path="none" /><path
   d="m -411.8671,2010.406 c 0,-0.9649 -0.78214,-1.7472 -1.74684,-1.7472 -0.96469,0 -1.74683,0.7823 -1.74683,1.7472 0,0.9649 0.78214,1.7472 1.74683,1.7472 0.9647,0 1.74684,-0.7823 1.74684,-1.7472 z"
   style="fill:none;stroke:#000000;stroke-width:0.75;stroke-linecap:butt;stroke-linejoin:miter;stroke-miterlimit:10;stroke-dasharray:none;stroke-opacity:1"
   id="path3958"
   clip-path="none" /><path
   d="m -436.18006,1999.6073 c 0,-0.9649 -0.78214,-1.7472 -1.74684,-1.7472 -0.96469,0 -1.74683,0.7823 -1.74683,1.7472 0,0.9649 0.78214,1.7472 1.74683,1.7472 0.9647,0 1.74684,-0.7823 1.74684,-1.7472"
   style="fill:#f9d640;fill-opacity:1;fill-rule:nonzero;stroke:#000000;stroke-width:0.75;stroke-dasharray:none"
   id="path3962"
   clip-path="none" /><path
   d="m -436.18006,1999.6073 c 0,-0.9649 -0.78214,-1.7472 -1.74684,-1.7472 -0.96469,0 -1.74683,0.7823 -1.74683,1.7472 0,0.9649 0.78214,1.7472 1.74683,1.7472 0.9647,0 1.74684,-0.7823 1.74684,-1.7472 z"
   style="fill:none;stroke:#000000;stroke-width:0.75;stroke-linecap:butt;stroke-linejoin:miter;stroke-miterlimit:10;stroke-dasharray:none;stroke-opacity:1"
   id="path3966"
   clip-path="none" /><path
   d="m -430.10186,1999.6073 c 0,-0.9649 -0.78214,-1.7472 -1.74684,-1.7472 -0.96469,0 -1.74683,0.7823 -1.74683,1.7472 0,0.9649 0.78214,1.7472 1.74683,1.7472 0.9647,0 1.74684,-0.7823 1.74684,-1.7472"
   style="fill:#f9d640;fill-opacity:1;fill-rule:nonzero;stroke:#000000;stroke-width:0.75;stroke-dasharray:none"
   id="path3970"
   clip-path="none" /><path
   d="m -430.10186,1999.6073 c 0,-0.9649 -0.78214,-1.7472 -1.74684,-1.7472 -0.96469,0 -1.74683,0.7823 -1.74683,1.7472 0,0.9649 0.78214,1.7472 1.74683,1.7472 0.9647,0 1.74684,-0.7823 1.74684,-1.7472 z"
   style="fill:none;stroke:#000000;stroke-width:0.75;stroke-linecap:butt;stroke-linejoin:miter;stroke-miterlimit:10;stroke-dasharray:none;stroke-opacity:1"
   id="path3974"
   clip-path="none" /><path
   d="m -424.02358,1999.6073 c 0,-0.9649 -0.78214,-1.7472 -1.74684,-1.7472 -0.96469,0 -1.74683,0.7823 -1.74683,1.7472 0,0.9649 0.78214,1.7472 1.74683,1.7472 0.9647,0 1.74684,-0.7823 1.74684,-1.7472"
   style="fill:#f9d640;fill-opacity:1;fill-rule:nonzero;stroke:#000000;stroke-width:0.75;stroke-dasharray:none"
   id="path3978"
   clip-path="none" /><path
   d="m -424.02358,1999.6073 c 0,-0.9649 -0.78214,-1.7472 -1.74684,-1.7472 -0.96469,0 -1.74683,0.7823 -1.74683,1.7472 0,0.9649 0.78214,1.7472 1.74683,1.7472 0.9647,0 1.74684,-0.7823 1.74684,-1.7472 z"
   style="fill:none;stroke:#000000;stroke-width:0.75;stroke-linecap:butt;stroke-linejoin:miter;stroke-miterlimit:10;stroke-dasharray:none;stroke-opacity:1"
   id="path3982"
   clip-path="none" /><path
   d="m -417.94538,1999.6073 c 0,-0.9649 -0.78214,-1.7472 -1.74684,-1.7472 -0.96469,0 -1.74683,0.7823 -1.74683,1.7472 0,0.9649 0.78214,1.7472 1.74683,1.7472 0.9647,0 1.74684,-0.7823 1.74684,-1.7472"
   style="fill:#f9d640;fill-opacity:1;fill-rule:nonzero;stroke:#000000;stroke-width:0.75;stroke-dasharray:none"
   id="path3986"
   clip-path="none" /><path
   d="m -417.94538,1999.6073 c 0,-0.9649 -0.78214,-1.7472 -1.74684,-1.7472 -0.96469,0 -1.74683,0.7823 -1.74683,1.7472 0,0.9649 0.78214,1.7472 1.74683,1.7472 0.9647,0 1.74684,-0.7823 1.74684,-1.7472 z"
   style="fill:none;stroke:#000000;stroke-width:0.75;stroke-linecap:butt;stroke-linejoin:miter;stroke-miterlimit:10;stroke-dasharray:none;stroke-opacity:1"
   id="path3990"
   clip-path="none" /><path
   d="m -411.8671,1999.6073 c 0,-0.9649 -0.78214,-1.7472 -1.74684,-1.7472 -0.96469,0 -1.74683,0.7823 -1.74683,1.7472 0,0.9649 0.78214,1.7472 1.74683,1.7472 0.9647,0 1.74684,-0.7823 1.74684,-1.7472"
   style="fill:#f9d640;fill-opacity:1;fill-rule:nonzero;stroke:#000000;stroke-width:0.75;stroke-dasharray:none"
   id="path3994"
   clip-path="none" /><path
   d="m -411.8671,1999.6073 c 0,-0.9649 -0.78214,-1.7472 -1.74684,-1.7472 -0.96469,0 -1.74683,0.7823 -1.74683,1.7472 0,0.9649 0.78214,1.7472 1.74683,1.7472 0.9647,0 1.74684,-0.7823 1.74684,-1.7472 z"
   style="fill:none;stroke:#000000;stroke-width:0.75;stroke-linecap:butt;stroke-linejoin:miter;stroke-miterlimit:10;stroke-dasharray:none;stroke-opacity:1"
   id="path3998"
   clip-path="none" /><path
   d="m -433.12192,2005.0066 c 0,-0.9649 -0.78214,-1.7472 -1.74684,-1.7472 -0.96469,0 -1.74683,0.7823 -1.74683,1.7472 0,0.9649 0.78214,1.7472 1.74683,1.7472 0.9647,0 1.74684,-0.7823 1.74684,-1.7472"
   style="fill:#f9d640;fill-opacity:1;fill-rule:nonzero;stroke:#000000;stroke-width:0.75;stroke-dasharray:none"
   id="path4002"
   clip-path="none" /><path
   d="m -433.12192,2005.0066 c 0,-0.9649 -0.78214,-1.7472 -1.74684,-1.7472 -0.96469,0 -1.74683,0.7823 -1.74683,1.7472 0,0.9649 0.78214,1.7472 1.74683,1.7472 0.9647,0 1.74684,-0.7823 1.74684,-1.7472 z"
   style="fill:none;stroke:#000000;stroke-width:0.75;stroke-linecap:butt;stroke-linejoin:miter;stroke-miterlimit:10;stroke-dasharray:none;stroke-opacity:1"
   id="path4006"
   clip-path="none" /><path
   d="m -427.04371,2005.0066 c 0,-0.9649 -0.78214,-1.7472 -1.74684,-1.7472 -0.96469,0 -1.74683,0.7823 -1.74683,1.7472 0,0.9649 0.78214,1.7472 1.74683,1.7472 0.9647,0 1.74684,-0.7823 1.74684,-1.7472"
   style="fill:#f9d640;fill-opacity:1;fill-rule:nonzero;stroke:#000000;stroke-width:0.75;stroke-dasharray:none"
   id="path4010"
   clip-path="none" /><path
   d="m -427.04371,2005.0066 c 0,-0.9649 -0.78214,-1.7472 -1.74684,-1.7472 -0.96469,0 -1.74683,0.7823 -1.74683,1.7472 0,0.9649 0.78214,1.7472 1.74683,1.7472 0.9647,0 1.74684,-0.7823 1.74684,-1.7472 z"
   style="fill:none;stroke:#000000;stroke-width:0.75;stroke-linecap:butt;stroke-linejoin:miter;stroke-miterlimit:10;stroke-dasharray:none;stroke-opacity:1"
   id="path4014"
   clip-path="none" /><path
   d="m -420.96551,2005.0066 c 0,-0.9649 -0.78214,-1.7472 -1.74684,-1.7472 -0.96469,0 -1.74683,0.7823 -1.74683,1.7472 0,0.9649 0.78214,1.7472 1.74683,1.7472 0.9647,0 1.74684,-0.7823 1.74684,-1.7472"
   style="fill:#f9d640;fill-opacity:1;fill-rule:nonzero;stroke:#000000;stroke-width:0.75;stroke-dasharray:none"
   id="path4018"
   clip-path="none" /><path
   d="m -420.96551,2005.0066 c 0,-0.9649 -0.78214,-1.7472 -1.74684,-1.7472 -0.96469,0 -1.74683,0.7823 -1.74683,1.7472 0,0.9649 0.78214,1.7472 1.74683,1.7472 0.9647,0 1.74684,-0.7823 1.74684,-1.7472 z"
   style="fill:none;stroke:#000000;stroke-width:0.75;stroke-linecap:butt;stroke-linejoin:miter;stroke-miterlimit:10;stroke-dasharray:none;stroke-opacity:1"
   id="path4022"
   clip-path="none" /><path
   d="m -414.88732,2005.0066 c 0,-0.9649 -0.78214,-1.7472 -1.74684,-1.7472 -0.96469,0 -1.74683,0.7823 -1.74683,1.7472 0,0.9649 0.78214,1.7472 1.74683,1.7472 0.9647,0 1.74684,-0.7823 1.74684,-1.7472"
   style="fill:#f9d640;fill-opacity:1;fill-rule:nonzero;stroke:#000000;stroke-width:0.75;stroke-dasharray:none"
   id="path4026"
   clip-path="none" /><path
   d="m -414.88732,2005.0066 c 0,-0.9649 -0.78214,-1.7472 -1.74684,-1.7472 -0.96469,0 -1.74683,0.7823 -1.74683,1.7472 0,0.9649 0.78214,1.7472 1.74683,1.7472 0.9647,0 1.74684,-0.7823 1.74684,-1.7472 z"
   style="fill:none;stroke:#000000;stroke-width:0.75;stroke-linecap:butt;stroke-linejoin:miter;stroke-miterlimit:10;stroke-dasharray:none;stroke-opacity:1"
   id="path4030"
   clip-path="none" /><path
   d="m -408.80912,2005.0066 c 0,-0.9649 -0.78214,-1.7472 -1.74684,-1.7472 -0.96469,0 -1.74683,0.7823 -1.74683,1.7472 0,0.9649 0.78214,1.7472 1.74683,1.7472 0.9647,0 1.74684,-0.7823 1.74684,-1.7472"
   style="fill:#f9d640;fill-opacity:1;fill-rule:nonzero;stroke:#000000;stroke-width:0.75;stroke-dasharray:none"
   id="path4034"
   clip-path="none" /><path
   d="m -408.80912,2005.0066 c 0,-0.9649 -0.78214,-1.7472 -1.74684,-1.7472 -0.96469,0 -1.74683,0.7823 -1.74683,1.7472 0,0.9649 0.78214,1.7472 1.74683,1.7472 0.9647,0 1.74684,-0.7823 1.74684,-1.7472 z"
   style="fill:none;stroke:#000000;stroke-width:0.75;stroke-linecap:butt;stroke-linejoin:miter;stroke-miterlimit:10;stroke-dasharray:none;stroke-opacity:1"
   id="path4038"
   clip-path="none" />








<style
   type="text/css"
   id="style1-5">
	.st0{fill:none;stroke:#000;stroke-width:2;}
	.st1{fill:#fff;stroke:#000;stroke-width:2;stroke-linejoin:round;}
	.st2{font-family:Liberation Sans,Arial;}
	.st3{font-size:17px;}
</style>










<!-- Outer cylindrical part --><!-- Inner optical port --><!-- Optical emitter (glowing red light) --><!-- Connector back end --><!-- Detail lines for depth --><!-- Device Panel --><!-- TOSLINK Port Cutout --><!-- Inner Optical Port --><!-- Optical Emitter (glowing red light) --><!-- Protective Cover --><!-- Detail Lines for Depth --></g><metadata
     id="metadata1"><rdf:RDF><cc:Work
         rdf:about=""><dc:title>Open Connector Graphics</dc:title><dc:date>03/04/2025</dc:date><dc:creator><cc:Agent><dc:title>Wikke Andeweg</dc:title></cc:Agent></dc:creator><dc:rights><cc:Agent><dc:title>Creative Commons Attribution 4.0 International</dc:title></cc:Agent></dc:rights><dc:source>https://github.com/WyzzyMoon/OpenConnectorGraphics</dc:source></cc:Work></rdf:RDF></metadata></svg>
