<?xml version="1.0" encoding="UTF-8" standalone="no"?>
<!-- Created with Inkscape (http://www.inkscape.org/) -->

<svg
   version="1.1"
   id="svg2"
   width="33.896957"
   height="219.27672"
   viewBox="0 0 33.896958 219.27672"
   xml:space="preserve"
   xmlns="http://www.w3.org/2000/svg"
   xmlns:svg="http://www.w3.org/2000/svg"
   xmlns:rdf="http://www.w3.org/1999/02/22-rdf-syntax-ns#"
   xmlns:cc="http://creativecommons.org/ns#"
   xmlns:dc="http://purl.org/dc/elements/1.1/"><title
     id="title1">Open Connector Graphics</title><defs
     id="defs6"><linearGradient
       id="linearGradient5590"><stop
         id="stop5592"
         offset="0"
         style="stop-color:#a91616;stop-opacity:1;" /></linearGradient><linearGradient
       id="linearGradient5660"><stop
         id="stop5662"
         offset="0"
         style="stop-color:#000000;stop-opacity:1;" /></linearGradient><style
       type="text/css"
       id="style1">
	.st0{fill:none;stroke:#000000;stroke-width:7;stroke-miterlimit:10;}
	.st1{fill:none;stroke:#000000;stroke-width:3;stroke-miterlimit:10;}
	.st2{fill:none;stroke:#000000;stroke-width:4;stroke-miterlimit:10;}
</style></defs><g
     id="g2466"
     transform="matrix(1.3333333,0,0,-1.3333333,1742.2605,2610.5828)"
     style="display:inline"><path
   d="m 567.515,391.87 h -22.921 v 22.921 h 22.921 z"
   style="fill:#d1d3d4;fill-opacity:1;fill-rule:nonzero;stroke:#000000;stroke-width:0.912338;stroke-linecap:butt;stroke-linejoin:miter;stroke-miterlimit:10;stroke-dasharray:none;stroke-opacity:1"
   id="path2682"
   clip-path="none"
   transform="matrix(0.82206362,0,0,0.82206362,-1751.0951,1616.949)" /><path
   d="m -1294.8514,1957.9333 v -4.7967 h 1.737 v -4.1293 h -1.737 v -5.7092 h 1.737 v -3.7108"
   style="fill:none;stroke:#000000;stroke-width:0.75;stroke-linecap:butt;stroke-linejoin:miter;stroke-miterlimit:10;stroke-dasharray:none;stroke-opacity:1"
   id="path2686"
   clip-path="none" /><path
   d="m -1281.2271,1939.091 h -25.5118 v -29.8149 h 3.6827 v -12.3353 h 18.1464 v 12.3353 h 3.6827 z"
   style="fill:#1a1a1a;fill-opacity:1;fill-rule:nonzero;stroke:none;stroke-width:1"
   id="path2656"
   clip-path="none" /><path
   d="m -1293.7246,1933.5971 -1.4836,-2.5686 h 1.0581 v -13.1286 l -2.7001,2.5564 c -0.1746,0.2176 -0.2973,0.5018 -0.3037,0.795 0,1.184 -9e-4,1.888 -9e-4,2.1463 0.5003,0.1762 0.8608,0.6472 0.8608,1.2075 0,0.7089 -0.5749,1.2847 -1.2847,1.2847 -0.7097,0 -1.2846,-0.5758 -1.2846,-1.2847 0,-0.5603 0.3605,-1.0313 0.8607,-1.2075 l -8e-4,-2.1211 c 0,-0.575 0.3159,-1.1775 0.6854,-1.5616 -0.011,0.011 -0.023,0.022 0,0 0.01,-0.01 2.8658,-2.7123 2.8658,-2.7123 0.1738,-0.2177 0.2956,-0.5019 0.3021,-0.7942 v -1.4853 c -0.981,-0.1973 -1.72,-1.0638 -1.72,-2.1024 0,-1.1856 0.9607,-2.1455 2.1447,-2.1455 1.1848,0 2.1455,0.9599 2.1455,2.1455 0,1.0394 -0.7398,1.9059 -1.7216,2.1024 v 1.4593 c 0,0 0,0.01 0,0.011 v 3.2271 c 0.01,0.2923 0.1291,0.5766 0.3037,0.7934 0,0 2.8552,2.7033 2.865,2.7115 0.023,0.022 0.011,0.011 0,0 0.3703,0.3841 0.6853,0.9866 0.6853,1.5616 l -8e-4,2.0447 h 0.8616 v 2.5694 h -2.5693 v -2.5694 h 0.8599 c 0,0 -8e-4,-0.5384 -8e-4,-2.0699 -0.01,-0.2924 -0.1291,-0.5774 -0.3029,-0.795 l -2.7017,-2.5572 v 9.9185 h 1.0597 z"
   style="fill:#ffffff;fill-opacity:1;fill-rule:nonzero;stroke:none;stroke-width:1"
   id="path4128"
   clip-path="none" /><rect
   style="fill:#1a1a1a;fill-opacity:1;stroke:none;stroke-width:0.750001;stroke-dasharray:none"
   id="rect190"
   width="8.3902702"
   height="105.22984"
   x="-1298.1781"
   y="-1898.6558"
   transform="scale(1,-1)"
   clip-path="none" />








<style
   type="text/css"
   id="style1-5">
	.st0{fill:none;stroke:#000;stroke-width:2;}
	.st1{fill:#fff;stroke:#000;stroke-width:2;stroke-linejoin:round;}
	.st2{font-family:Liberation Sans,Arial;}
	.st3{font-size:17px;}
</style>










<!-- Outer cylindrical part --><!-- Inner optical port --><!-- Optical emitter (glowing red light) --><!-- Connector back end --><!-- Detail lines for depth --><!-- Device Panel --><!-- TOSLINK Port Cutout --><!-- Inner Optical Port --><!-- Optical Emitter (glowing red light) --><!-- Protective Cover --><!-- Detail Lines for Depth --></g><metadata
     id="metadata1"><rdf:RDF><cc:Work
         rdf:about=""><dc:title>Open Connector Graphics</dc:title><dc:date>03/04/2025</dc:date><dc:creator><cc:Agent><dc:title>Wikke Andeweg</dc:title></cc:Agent></dc:creator><dc:rights><cc:Agent><dc:title>Creative Commons Attribution 4.0 International</dc:title></cc:Agent></dc:rights><dc:source>https://github.com/WyzzyMoon/OpenConnectorGraphics</dc:source></cc:Work></rdf:RDF></metadata></svg>
