<?xml version="1.0" encoding="UTF-8" standalone="no"?>
<!-- Created with Inkscape (http://www.inkscape.org/) -->

<svg
   version="1.1"
   id="svg2"
   width="87.929138"
   height="60.720623"
   viewBox="0 0 87.929141 60.720624"
   xml:space="preserve"
   xmlns="http://www.w3.org/2000/svg"
   xmlns:svg="http://www.w3.org/2000/svg"
   xmlns:rdf="http://www.w3.org/1999/02/22-rdf-syntax-ns#"
   xmlns:cc="http://creativecommons.org/ns#"
   xmlns:dc="http://purl.org/dc/elements/1.1/"><title
     id="title1">Open Connector Graphics</title><defs
     id="defs6"><linearGradient
       id="linearGradient5590"><stop
         id="stop5592"
         offset="0"
         style="stop-color:#a91616;stop-opacity:1;" /></linearGradient><linearGradient
       id="linearGradient5660"><stop
         id="stop5662"
         offset="0"
         style="stop-color:#000000;stop-opacity:1;" /></linearGradient><style
       type="text/css"
       id="style1">
	.st0{fill:none;stroke:#000000;stroke-width:7;stroke-miterlimit:10;}
	.st1{fill:none;stroke:#000000;stroke-width:3;stroke-miterlimit:10;}
	.st2{fill:none;stroke:#000000;stroke-width:4;stroke-miterlimit:10;}
</style></defs><g
     id="g2466"
     transform="matrix(1.3333333,0,0,-1.3333333,-3111.9759,2724.9899)"
     style="display:inline">








<style
   type="text/css"
   id="style1-5">
	.st0{fill:none;stroke:#000;stroke-width:2;}
	.st1{fill:#fff;stroke:#000;stroke-width:2;stroke-linejoin:round;}
	.st2{font-family:Liberation Sans,Arial;}
	.st3{font-size:17px;}
</style>










<path
   fill="#717171"
   d="m 2348.5311,2043.0511 c 1.1894,0.3516 2.4128,0.211 3.6023,0.2813 10.1951,0 20.3903,0 30.5854,0.035 1.3254,0 2.7867,-0.1407 3.9082,-0.9492 1.3933,-1.0195 2.4468,-2.3906 3.6702,-3.5859 2.3449,-2.3554 4.6218,-4.8514 6.9327,-7.2068 1.1895,-1.1953 2.2769,-2.707 2.243,-4.4999 0.068,-6.785 0.1019,-13.6051 0.068,-20.3901 0.1019,-4.078 -3.2965,-7.9451 -7.2726,-8.0857 -15.7685,0.035 -31.503,-0.1055 -47.2715,-0.035 -2.2089,-0.035 -4.5878,-0.2461 -6.5249,1.0195 -2.6507,1.5468 -4.248,4.7108 -4.078,7.8045 0.034,6.3279 0,12.6559 -0.034,18.9839 -0.034,1.4413 0.2718,2.9882 1.2574,4.078 3.6023,3.7616 7.1706,7.5584 10.8408,11.2849 0.5778,0.5976 1.2914,1.0195 2.073,1.2655 z"
   id="path2-0"
   style="display:inline;fill:#333333;fill-opacity:1;stroke:#000000;stroke-width:0.75;stroke-dasharray:none"
   clip-path="none" /><path
   fill="#000000"
   d="m 2363.3415,2033.8053 c 2.2556,0.1213 4.5112,0.041 6.8032,0.041 0,-4.6912 -0.036,-9.3824 0,-14.0736 -2.2556,-0.1213 -4.4748,-0.081 -6.7304,0.04 0.036,4.6508 -0.036,9.342 -0.073,13.9927 z"
   id="path3-3"
   style="stroke:#000000;stroke-width:0.75;stroke-dasharray:none"
   clip-path="none" /><path
   fill="#000000"
   d="m 2343.3413,2022.2007 c 2.2677,0 4.4988,0.082 6.7666,0.041 0.037,-4.7103 0.037,-9.3797 0.037,-14.0491 -2.2678,-0.1639 -4.4989,-0.1229 -6.73,-0.041 0,4.6694 0.037,9.3798 -0.073,14.0491 z"
   id="path4-4"
   style="stroke:#000000;stroke-width:0.75;stroke-dasharray:none"
   clip-path="none" /><path
   fill="#000000"
   d="m 2383.4836,2022.2013 c 2.3457,0.082 4.7298,0.041 7.0755,0 -0.039,-4.6756 0.039,-9.3922 0,-14.1088 -2.3457,-0.041 -4.6914,0 -7.037,0.041 0,4.7166 0.1153,9.3922 -0.039,14.0679 z"
   id="path5-0"
   style="stroke:#000000;stroke-width:0.75;stroke-dasharray:none"
   clip-path="none" /><!-- Outer cylindrical part --><!-- Inner optical port --><!-- Optical emitter (glowing red light) --><!-- Connector back end --><!-- Detail lines for depth --><!-- Device Panel --><!-- TOSLINK Port Cutout --><!-- Inner Optical Port --><!-- Optical Emitter (glowing red light) --><!-- Protective Cover --><!-- Detail Lines for Depth --></g><metadata
     id="metadata1"><rdf:RDF><cc:Work
         rdf:about=""><dc:title>Open Connector Graphics</dc:title><dc:date>03/04/2025</dc:date><dc:creator><cc:Agent><dc:title>Wikke Andeweg</dc:title></cc:Agent></dc:creator><dc:rights><cc:Agent><dc:title>Creative Commons Attribution 4.0 International</dc:title></cc:Agent></dc:rights><dc:source>https://github.com/WyzzyMoon/OpenConnectorGraphics</dc:source></cc:Work></rdf:RDF></metadata></svg>
