<?xml version="1.0" encoding="UTF-8" standalone="no"?>
<!-- Created with Inkscape (http://www.inkscape.org/) -->

<svg
   version="1.1"
   id="svg2"
   width="33.565662"
   height="37.795254"
   viewBox="0 0 33.565663 37.795254"
   xml:space="preserve"
   xmlns="http://www.w3.org/2000/svg"
   xmlns:svg="http://www.w3.org/2000/svg"
   xmlns:rdf="http://www.w3.org/1999/02/22-rdf-syntax-ns#"
   xmlns:cc="http://creativecommons.org/ns#"
   xmlns:dc="http://purl.org/dc/elements/1.1/"><title
     id="title1">Open Connector Graphics</title><defs
     id="defs6"><linearGradient
       id="linearGradient5590"><stop
         id="stop5592"
         offset="0"
         style="stop-color:#a91616;stop-opacity:1;" /></linearGradient><linearGradient
       id="linearGradient5660"><stop
         id="stop5662"
         offset="0"
         style="stop-color:#000000;stop-opacity:1;" /></linearGradient><style
       type="text/css"
       id="style1">
	.st0{fill:none;stroke:#000000;stroke-width:7;stroke-miterlimit:10;}
	.st1{fill:none;stroke:#000000;stroke-width:3;stroke-miterlimit:10;}
	.st2{fill:none;stroke:#000000;stroke-width:4;stroke-miterlimit:10;}
</style></defs><g
     id="g2466"
     transform="matrix(1.3333333,0,0,-1.3333333,-1643.0033,2696.2631)"
     style="display:inline">








<style
   type="text/css"
   id="style1-5">
	.st0{fill:none;stroke:#000;stroke-width:2;}
	.st1{fill:#fff;stroke:#000;stroke-width:2;stroke-linejoin:round;}
	.st2{font-family:Liberation Sans,Arial;}
	.st3{font-size:17px;}
</style>










<!-- Outer cylindrical part --><!-- Inner optical port --><!-- Optical emitter (glowing red light) --><!-- Connector back end --><!-- Detail lines for depth --><!-- Device Panel --><!-- TOSLINK Port Cutout --><!-- Inner Optical Port --><!-- Optical Emitter (glowing red light) --><!-- Protective Cover --><!-- Detail Lines for Depth --><rect
   style="fill:#1a1a1a;stroke:none;stroke-width:0.749999"
   id="rect20"
   width="25.174427"
   height="28.346457"
   x="1232.2522"
   y="-2022.1974"
   transform="scale(1,-1)"
   clip-path="none" /><path
   id="rect303"
   style="fill:#000000;stroke:#000000;stroke-width:0.75"
   d="m 1241.1741,2018.093 v -0.9861 h -5.6643 v -5.4379 h 1.2991 v -3.2548 a 1.6306664,2.303318 0 0 1 -1.6307,-2.3035 1.6306664,2.303318 0 0 1 1.6307,-2.3033 v -2.8117 l 3.0539,-3.1074 h 10.2582 l 3.0537,3.1074 v 2.8117 a 1.6306664,2.303318 0 0 1 1.6309,2.3033 1.6306664,2.303318 0 0 1 -1.6309,2.3035 v 3.2548 h 1.2993 v 5.4379 h -5.6644 v 0.9861 z"
   clip-path="none" /><path
   id="rect274"
   style="fill:#333333;fill-opacity:1;stroke:#000000;stroke-width:0.75"
   d="m 1236.5213,2016.7793 v -3.7736 h 1.3361 v -11.2251 l 2.2907,-2.1126 h 9.9261 l 2.052,2.1126 v 11.2251 h 1.3362 v 3.7736 z"
   clip-path="none" /><path
   id="rect317"
   style="fill:#333333;fill-opacity:1;stroke:#000000;stroke-width:0.375;stroke-dasharray:none"
   d="m 1241.3787,2011.6016 v -2.805 c 0,0 0.1247,-1.4867 0.8436,-1.9237 0.7188,-0.437 0.6944,-1.7226 0.6944,-1.7226 v -5.4823 h 4.1503 v 5.4823 c 0,0 -0.025,1.2856 0.6945,1.7226 0.7189,0.437 0.8435,1.9237 0.8435,1.9237 v 2.805 z"
   clip-path="none" /><rect
   style="fill:#333333;fill-opacity:1;stroke:#000000;stroke-width:0.375;stroke-dasharray:none"
   id="rect319"
   width="16.941105"
   height="1.148397"
   x="1236.5212"
   y="-2016.7794"
   transform="scale(1,-1)"
   clip-path="none" /></g><metadata
     id="metadata1"><rdf:RDF><cc:Work
         rdf:about=""><dc:title>Open Connector Graphics</dc:title><dc:date>03/04/2025</dc:date><dc:creator><cc:Agent><dc:title>Wikke Andeweg</dc:title></cc:Agent></dc:creator><dc:rights><cc:Agent><dc:title>Creative Commons Attribution 4.0 International</dc:title></cc:Agent></dc:rights><dc:source>https://github.com/WyzzyMoon/OpenConnectorGraphics</dc:source></cc:Work></rdf:RDF></metadata></svg>
