<?xml version="1.0" encoding="UTF-8" standalone="no"?>
<!-- Created with Inkscape (http://www.inkscape.org/) -->

<svg
   version="1.1"
   id="svg2"
   width="51.914745"
   height="51.912781"
   viewBox="0 0 51.914747 51.912782"
   xml:space="preserve"
   xmlns="http://www.w3.org/2000/svg"
   xmlns:svg="http://www.w3.org/2000/svg"
   xmlns:rdf="http://www.w3.org/1999/02/22-rdf-syntax-ns#"
   xmlns:cc="http://creativecommons.org/ns#"
   xmlns:dc="http://purl.org/dc/elements/1.1/"><title
     id="title1">Open Connector Graphics</title><defs
     id="defs6"><linearGradient
       id="linearGradient5590"><stop
         id="stop5592"
         offset="0"
         style="stop-color:#a91616;stop-opacity:1;" /></linearGradient><linearGradient
       id="linearGradient5660"><stop
         id="stop5662"
         offset="0"
         style="stop-color:#000000;stop-opacity:1;" /></linearGradient><style
       type="text/css"
       id="style1">
	.st0{fill:none;stroke:#000000;stroke-width:7;stroke-miterlimit:10;}
	.st1{fill:none;stroke:#000000;stroke-width:3;stroke-miterlimit:10;}
	.st2{fill:none;stroke:#000000;stroke-width:4;stroke-miterlimit:10;}
</style></defs><g
     id="g2466"
     transform="matrix(1.3333333,0,0,-1.3333333,-1744.0116,2710.0656)"
     style="display:inline">








<style
   type="text/css"
   id="style1-5">
	.st0{fill:none;stroke:#000;stroke-width:2;}
	.st1{fill:#fff;stroke:#000;stroke-width:2;stroke-linejoin:round;}
	.st2{font-family:Liberation Sans,Arial;}
	.st3{font-size:17px;}
</style><ellipse
   class="st1"
   cx="-1327.4767"
   cy="2013.0819"
   id="circle1"
   style="fill:#d1d3d4;fill-opacity:1;stroke-width:0.75;stroke-dasharray:none"
   transform="scale(-1,1)"
   rx="19.093018"
   ry="19.092285"
   clip-path="none" /><path
   id="path1-35"
   style="fill:#1a1a1a;fill-opacity:1;stroke-width:0.75;stroke-dasharray:none"
   class="st0"
   d="m 1324.0077,2030.08 c -7.8991,-1.6147 -13.8779,-8.6192 -13.8779,-16.998 0,-9.5571 7.7893,-17.3467 17.3467,-17.3467 9.5574,0 17.3481,7.7896 17.3481,17.3467 0,8.3767 -5.976,15.3796 -13.872,16.9966 v -4.2203 h -6.9449 z"
   clip-path="none" /><path
   id="path6"
   style="fill:#000000;stroke-width:0.75;stroke-dasharray:none"
   class="st0"
   d="m 1326.3193,2007.2314 v -2.124 a 2.4002652,2.4001729 0 0 1 -1.2217,-2.0845 2.4002652,2.4001729 0 0 1 1.2217,-2.083 v -2.1255 h 2.3364 v 2.1138 a 2.4002652,2.4001729 0 0 1 1.2436,2.0947 2.4002652,2.4001729 0 0 1 -1.2436,2.102 v 2.1065 z"
   clip-path="none" /><path
   d="m 1500.371,482.534 h -1.353 v 1.325 h 1.353 z"
   style="fill:#f9d640;fill-opacity:1;fill-rule:nonzero;stroke:#000000;stroke-width:0.547199;stroke-linecap:butt;stroke-linejoin:miter;stroke-miterlimit:10;stroke-dasharray:none;stroke-opacity:1"
   id="path11"
   clip-path="none"
   transform="matrix(1.7268317,0,0,1.0878829,-1262.2325,1480.318)" /><path
   d="m 1500.371,482.534 h -1.353 v 1.325 h 1.353 z"
   style="fill:#f9d640;fill-opacity:1;fill-rule:nonzero;stroke:#000000;stroke-width:0.547199;stroke-linecap:butt;stroke-linejoin:miter;stroke-miterlimit:10;stroke-dasharray:none;stroke-opacity:1"
   id="path4206-7"
   clip-path="none"
   transform="matrix(1.7268317,0,0,1.0878813,-1262.2216,1474.2226)" /><path
   id="path23"
   style="fill:#000000;stroke:#000000;stroke-width:0.75;stroke-miterlimit:10;stroke-dasharray:none"
   class="st0"
   d="m 1331.4639,2009.0456 1.062,-1.8394 a 2.4002652,2.4001729 30 0 1 -0.016,-2.4161 2.4002652,2.4001729 30 0 1 2.0995,-1.1931 l 1.0627,-1.8407 2.0234,1.1682 -1.0569,1.8306 a 2.4002652,2.4001729 30 0 1 0.03,2.4359 2.4002652,2.4001729 30 0 1 -2.128,1.1985 l -1.0533,1.8243 z"
   clip-path="none" /><path
   d="m 1500.371,482.534 h -1.353 v 1.325 h 1.353 z"
   style="fill:#f9d640;fill-opacity:1;fill-rule:nonzero;stroke:#000000;stroke-width:0.547199;stroke-linecap:butt;stroke-linejoin:miter;stroke-miterlimit:10;stroke-dasharray:none;stroke-opacity:1"
   id="path25"
   clip-path="none"
   transform="matrix(1.4954801,0.86341585,-0.54394145,0.94213423,-646.83104,258.44943)" /><path
   d="m 1500.371,482.534 h -1.353 v 1.325 h 1.353 z"
   style="fill:#f9d640;fill-opacity:1;fill-rule:nonzero;stroke:#000000;stroke-width:0.547199;stroke-linecap:butt;stroke-linejoin:miter;stroke-miterlimit:10;stroke-dasharray:none;stroke-opacity:1"
   id="path26"
   clip-path="none"
   transform="matrix(1.4954801,0.86341585,-0.54394065,0.94213284,-643.77388,253.17607)" /><path
   id="path6-7"
   style="fill:#000000;stroke:#000000;stroke-width:0.75;stroke-miterlimit:10;stroke-dasharray:none"
   class="st0"
   d="m 1333.3461,2014.1915 1.8394,-1.062 a 2.4002652,2.4001729 60 0 1 1.1944,-2.1002 2.4002652,2.4001729 60 0 1 2.4148,0.017 l 1.8407,-1.0628 1.1682,2.0234 -1.8306,1.0569 a 2.4002652,2.4001729 60 0 1 -1.1923,2.1244 2.4002652,2.4001729 60 0 1 -2.4422,-0.026 l -1.8242,1.0532 z"
   clip-path="none" /><path
   d="m 1500.371,482.534 h -1.353 v 1.325 h 1.353 z"
   style="fill:#f9d640;fill-opacity:1;fill-rule:nonzero;stroke:#000000;stroke-width:0.547199;stroke-linecap:butt;stroke-linejoin:miter;stroke-miterlimit:10;stroke-dasharray:none;stroke-opacity:1"
   id="path11-3"
   clip-path="none"
   transform="matrix(0.86341585,1.4954801,-0.94213423,0.54394145,495.39046,-491.01673)" /><path
   d="m 1500.371,482.534 h -1.353 v 1.325 h 1.353 z"
   style="fill:#f9d640;fill-opacity:1;fill-rule:nonzero;stroke:#000000;stroke-width:0.547199;stroke-linecap:butt;stroke-linejoin:miter;stroke-miterlimit:10;stroke-dasharray:none;stroke-opacity:1"
   id="path4206-7-6"
   clip-path="none"
   transform="matrix(0.86341585,1.4954801,-0.94213284,0.54394065,500.67471,-494.05501)" /><path
   id="path23-3"
   style="fill:#000000;stroke:#000000;stroke-width:0.75;stroke-miterlimit:10;stroke-dasharray:none"
   class="st0"
   d="m 1323.533,2009.0456 -1.062,-1.8394 a 2.4001729,2.4002652 60 0 0 0.016,-2.4161 2.4001729,2.4002652 60 0 0 -2.0996,-1.1931 l -1.0627,-1.8407 -2.0234,1.1682 1.0569,1.8306 a 2.4001729,2.4002652 60 0 0 -0.03,2.4359 2.4001729,2.4002652 60 0 0 2.1279,1.1985 l 1.0533,1.8243 z"
   clip-path="none" /><path
   d="m 1500.371,482.534 h -1.353 v 1.325 h 1.353 z"
   style="fill:#f9d640;fill-opacity:1;fill-rule:nonzero;stroke:#000000;stroke-width:0.547199;stroke-linecap:butt;stroke-linejoin:miter;stroke-miterlimit:10;stroke-dasharray:none;stroke-opacity:1"
   id="path25-2"
   clip-path="none"
   transform="matrix(-1.4954801,0.86341585,0.54394145,0.94213422,3301.8279,258.44943)" /><path
   d="m 1500.371,482.534 h -1.353 v 1.325 h 1.353 z"
   style="fill:#f9d640;fill-opacity:1;fill-rule:nonzero;stroke:#000000;stroke-width:0.547199;stroke-linecap:butt;stroke-linejoin:miter;stroke-miterlimit:10;stroke-dasharray:none;stroke-opacity:1"
   id="path26-0"
   clip-path="none"
   transform="matrix(-1.4954801,0.86341585,0.54394065,0.94213284,3298.7708,253.17607)" /><path
   id="path6-7-1"
   style="fill:#000000;stroke:#000000;stroke-width:0.75;stroke-miterlimit:10;stroke-dasharray:none"
   class="st0"
   d="m 1321.6509,2014.1915 -1.8394,-1.062 a 2.4001729,2.4002652 30 0 0 -1.1944,-2.1002 2.4001729,2.4002652 30 0 0 -2.4148,0.017 l -1.8407,-1.0628 -1.1682,2.0234 1.8306,1.0569 a 2.4001729,2.4002652 30 0 0 1.1923,2.1244 2.4001729,2.4002652 30 0 0 2.4422,-0.026 l 1.8242,1.0532 z"
   clip-path="none" /><path
   d="m 1500.371,482.534 h -1.353 v 1.325 h 1.353 z"
   style="fill:#f9d640;fill-opacity:1;fill-rule:nonzero;stroke:#000000;stroke-width:0.547199;stroke-linecap:butt;stroke-linejoin:miter;stroke-miterlimit:10;stroke-dasharray:none;stroke-opacity:1"
   id="path11-3-5"
   clip-path="none"
   transform="matrix(-0.86341585,1.4954801,0.94213422,0.54394145,2159.6065,-491.01672)" /><path
   d="m 1500.371,482.534 h -1.353 v 1.325 h 1.353 z"
   style="fill:#f9d640;fill-opacity:1;fill-rule:nonzero;stroke:#000000;stroke-width:0.547199;stroke-linecap:butt;stroke-linejoin:miter;stroke-miterlimit:10;stroke-dasharray:none;stroke-opacity:1"
   id="path4206-7-6-5"
   clip-path="none"
   transform="matrix(-0.86341585,1.4954801,0.94213284,0.54394065,2154.3223,-494.055)" />










<!-- Outer cylindrical part --><!-- Inner optical port --><!-- Optical emitter (glowing red light) --><!-- Connector back end --><!-- Detail lines for depth --><!-- Device Panel --><!-- TOSLINK Port Cutout --><!-- Inner Optical Port --><!-- Optical Emitter (glowing red light) --><!-- Protective Cover --><!-- Detail Lines for Depth --></g><metadata
     id="metadata1"><rdf:RDF><cc:Work
         rdf:about=""><dc:title>Open Connector Graphics</dc:title><dc:date>03/04/2025</dc:date><dc:creator><cc:Agent><dc:title>Wikke Andeweg</dc:title></cc:Agent></dc:creator><dc:rights><cc:Agent><dc:title>Creative Commons Attribution 4.0 International</dc:title></cc:Agent></dc:rights><dc:source>https://github.com/WyzzyMoon/OpenConnectorGraphics</dc:source></cc:Work></rdf:RDF></metadata></svg>
