<?xml version="1.0" encoding="UTF-8" standalone="no"?>
<!-- Created with Inkscape (http://www.inkscape.org/) -->

<svg
   version="1.1"
   id="svg2"
   width="39.367626"
   height="8.8858185"
   viewBox="0 0 39.367627 8.8858186"
   xml:space="preserve"
   xmlns="http://www.w3.org/2000/svg"
   xmlns:svg="http://www.w3.org/2000/svg"
   xmlns:rdf="http://www.w3.org/1999/02/22-rdf-syntax-ns#"
   xmlns:cc="http://creativecommons.org/ns#"
   xmlns:dc="http://purl.org/dc/elements/1.1/"><title
     id="title1">Open Connector Graphics</title><defs
     id="defs6"><linearGradient
       id="linearGradient5590"><stop
         id="stop5592"
         offset="0"
         style="stop-color:#a91616;stop-opacity:1;" /></linearGradient><linearGradient
       id="linearGradient5660"><stop
         id="stop5662"
         offset="0"
         style="stop-color:#000000;stop-opacity:1;" /></linearGradient><style
       type="text/css"
       id="style1">
	.st0{fill:none;stroke:#000000;stroke-width:7;stroke-miterlimit:10;}
	.st1{fill:none;stroke:#000000;stroke-width:3;stroke-miterlimit:10;}
	.st2{fill:none;stroke:#000000;stroke-width:4;stroke-miterlimit:10;}
</style></defs><g
     id="g2466"
     transform="matrix(1.3333333,0,0,-1.3333333,1287.4919,2667.0386)"
     style="display:inline"><path
   d="m -948.84894,1999.9099 h -15.42142 c -0.53387,0 -0.9675,-0.4194 -0.9675,-0.9367 v -2.0023 c 0,-0.2489 0.10246,-0.487 0.28364,-0.6626 l 2.11544,-2.0497 c 0.18118,-0.1762 0.42769,-0.2748 0.68386,-0.2748 h 13.30598 -4.01407 13.30598 c 0.25691,0 0.50269,0.099 0.68386,0.2748 l 2.11544,2.0497 c 0.18192,0.1756 0.28365,0.4137 0.28365,0.6626 v 2.0023 c 0,0.5173 -0.43289,0.9367 -0.96751,0.9367 h -15.42142"
   style="fill:#d1d3d4;fill-opacity:1;fill-rule:nonzero;stroke:#000000;stroke-width:0.75;stroke-linecap:butt;stroke-linejoin:miter;stroke-miterlimit:10;stroke-dasharray:none;stroke-opacity:1"
   id="path3254"
   clip-path="none" /><path
   d="m 896.448,477.593 h -32.729 v 2.947 h 32.729 z"
   style="fill:#939598;fill-opacity:1;fill-rule:nonzero;stroke:#000000;stroke-width:1.02614;stroke-linecap:butt;stroke-linejoin:miter;stroke-miterlimit:10;stroke-dasharray:none;stroke-opacity:1"
   id="path3256"
   clip-path="none"
   transform="matrix(0.74252105,0,0,0.71945056,-1604.3197,1652.9781)" /><path
   d="m 866.87,476.125 h -0.867 v 2.804 h 0.867 z"
   style="fill:#f9d640;fill-opacity:1;fill-rule:nonzero;stroke:#000000;stroke-width:0.342046;stroke-linecap:butt;stroke-linejoin:miter;stroke-miterlimit:10;stroke-dasharray:none;stroke-opacity:1"
   id="path3258"
   clip-path="none"
   transform="matrix(0.74252105,0,0,0.71945056,-1604.3197,1652.9781)" /><path
   d="m 868.382,476.125 h -0.867 v 2.804 h 0.867 z"
   style="fill:#f9d640;fill-opacity:1;fill-rule:nonzero;stroke:#000000;stroke-width:0.342046;stroke-linecap:butt;stroke-linejoin:miter;stroke-miterlimit:10;stroke-dasharray:none;stroke-opacity:1"
   id="path3260"
   clip-path="none"
   transform="matrix(0.74252105,0,0,0.71945056,-1604.3197,1652.9781)" /><path
   d="m 869.894,476.125 h -0.867 v 2.804 h 0.867 z"
   style="fill:#f9d640;fill-opacity:1;fill-rule:nonzero;stroke:#000000;stroke-width:0.342046;stroke-linecap:butt;stroke-linejoin:miter;stroke-miterlimit:10;stroke-dasharray:none;stroke-opacity:1"
   id="path3262"
   clip-path="none"
   transform="matrix(0.74252105,0,0,0.71945056,-1604.3197,1652.9781)" /><path
   d="m 871.406,476.125 h -0.867 v 2.804 h 0.867 z"
   style="fill:#f9d640;fill-opacity:1;fill-rule:nonzero;stroke:#000000;stroke-width:0.342046;stroke-linecap:butt;stroke-linejoin:miter;stroke-miterlimit:10;stroke-dasharray:none;stroke-opacity:1"
   id="path3264"
   clip-path="none"
   transform="matrix(0.74252105,0,0,0.71945056,-1604.3197,1652.9781)" /><path
   d="m 872.918,476.125 h -0.867 v 2.804 h 0.867 z"
   style="fill:#f9d640;fill-opacity:1;fill-rule:nonzero;stroke:#000000;stroke-width:0.342046;stroke-linecap:butt;stroke-linejoin:miter;stroke-miterlimit:10;stroke-dasharray:none;stroke-opacity:1"
   id="path3266"
   clip-path="none"
   transform="matrix(0.74252105,0,0,0.71945056,-1604.3197,1652.9781)" /><path
   d="m 874.43,476.125 h -0.867 v 2.804 h 0.867 z"
   style="fill:#f9d640;fill-opacity:1;fill-rule:nonzero;stroke:#000000;stroke-width:0.342046;stroke-linecap:butt;stroke-linejoin:miter;stroke-miterlimit:10;stroke-dasharray:none;stroke-opacity:1"
   id="path3268"
   clip-path="none"
   transform="matrix(0.74252105,0,0,0.71945056,-1604.3197,1652.9781)" /><path
   d="m 875.942,476.125 h -0.867 v 2.804 h 0.867 z"
   style="fill:#f9d640;fill-opacity:1;fill-rule:nonzero;stroke:#000000;stroke-width:0.342046;stroke-linecap:butt;stroke-linejoin:miter;stroke-miterlimit:10;stroke-dasharray:none;stroke-opacity:1"
   id="path3270"
   clip-path="none"
   transform="matrix(0.74252105,0,0,0.71945056,-1604.3197,1652.9781)" /><path
   d="m 877.454,476.125 h -0.867 v 2.804 h 0.867 z"
   style="fill:#f9d640;fill-opacity:1;fill-rule:nonzero;stroke:#000000;stroke-width:0.342046;stroke-linecap:butt;stroke-linejoin:miter;stroke-miterlimit:10;stroke-dasharray:none;stroke-opacity:1"
   id="path3272"
   clip-path="none"
   transform="matrix(0.74252105,0,0,0.71945056,-1604.3197,1652.9781)" /><path
   d="m 878.966,476.125 h -0.867 v 2.804 h 0.867 z"
   style="fill:#f9d640;fill-opacity:1;fill-rule:nonzero;stroke:#000000;stroke-width:0.342046;stroke-linecap:butt;stroke-linejoin:miter;stroke-miterlimit:10;stroke-dasharray:none;stroke-opacity:1"
   id="path3274"
   clip-path="none"
   transform="matrix(0.74252105,0,0,0.71945056,-1604.3197,1652.9781)" /><path
   d="m 880.478,476.125 h -0.867 v 2.804 h 0.867 z"
   style="fill:#f9d640;fill-opacity:1;fill-rule:nonzero;stroke:#000000;stroke-width:0.342046;stroke-linecap:butt;stroke-linejoin:miter;stroke-miterlimit:10;stroke-dasharray:none;stroke-opacity:1"
   id="path3276"
   clip-path="none"
   transform="matrix(0.74252105,0,0,0.71945056,-1604.3197,1652.9781)" /><path
   d="m 881.99,476.125 h -0.867 v 2.804 h 0.867 z"
   style="fill:#f9d640;fill-opacity:1;fill-rule:nonzero;stroke:#000000;stroke-width:0.342046;stroke-linecap:butt;stroke-linejoin:miter;stroke-miterlimit:10;stroke-dasharray:none;stroke-opacity:1"
   id="path3278"
   clip-path="none"
   transform="matrix(0.74252105,0,0,0.71945056,-1604.3197,1652.9781)" /><path
   d="m 883.502,476.125 h -0.867 v 2.804 h 0.867 z"
   style="fill:#f9d640;fill-opacity:1;fill-rule:nonzero;stroke:#000000;stroke-width:0.342046;stroke-linecap:butt;stroke-linejoin:miter;stroke-miterlimit:10;stroke-dasharray:none;stroke-opacity:1"
   id="path3280"
   clip-path="none"
   transform="matrix(0.74252105,0,0,0.71945056,-1604.3197,1652.9781)" /><path
   d="m 885.014,476.125 h -0.867 v 2.804 h 0.867 z"
   style="fill:#f9d640;fill-opacity:1;fill-rule:nonzero;stroke:#000000;stroke-width:0.342046;stroke-linecap:butt;stroke-linejoin:miter;stroke-miterlimit:10;stroke-dasharray:none;stroke-opacity:1"
   id="path3282"
   clip-path="none"
   transform="matrix(0.74252105,0,0,0.71945056,-1604.3197,1652.9781)" /><path
   d="m 886.526,476.125 h -0.867 v 2.804 h 0.867 z"
   style="fill:#f9d640;fill-opacity:1;fill-rule:nonzero;stroke:#000000;stroke-width:0.342046;stroke-linecap:butt;stroke-linejoin:miter;stroke-miterlimit:10;stroke-dasharray:none;stroke-opacity:1"
   id="path3284"
   clip-path="none"
   transform="matrix(0.74252105,0,0,0.71945056,-1604.3197,1652.9781)" /><path
   d="m 888.038,476.125 h -0.867 v 2.804 h 0.867 z"
   style="fill:#f9d640;fill-opacity:1;fill-rule:nonzero;stroke:#000000;stroke-width:0.342046;stroke-linecap:butt;stroke-linejoin:miter;stroke-miterlimit:10;stroke-dasharray:none;stroke-opacity:1"
   id="path3286"
   clip-path="none"
   transform="matrix(0.74252105,0,0,0.71945056,-1604.3197,1652.9781)" /><path
   d="m 889.549,476.125 h -0.867 v 2.804 h 0.867 z"
   style="fill:#f9d640;fill-opacity:1;fill-rule:nonzero;stroke:#000000;stroke-width:0.342046;stroke-linecap:butt;stroke-linejoin:miter;stroke-miterlimit:10;stroke-dasharray:none;stroke-opacity:1"
   id="path3288"
   clip-path="none"
   transform="matrix(0.74252105,0,0,0.71945056,-1604.3197,1652.9781)" /><path
   d="m 891.061,476.125 h -0.867 v 2.804 h 0.867 z"
   style="fill:#f9d640;fill-opacity:1;fill-rule:nonzero;stroke:#000000;stroke-width:0.342046;stroke-linecap:butt;stroke-linejoin:miter;stroke-miterlimit:10;stroke-dasharray:none;stroke-opacity:1"
   id="path3290"
   clip-path="none"
   transform="matrix(0.74252105,0,0,0.71945056,-1604.3197,1652.9781)" /><path
   d="m 892.573,476.125 h -0.867 v 2.804 h 0.867 z"
   style="fill:#f9d640;fill-opacity:1;fill-rule:nonzero;stroke:#000000;stroke-width:0.342046;stroke-linecap:butt;stroke-linejoin:miter;stroke-miterlimit:10;stroke-dasharray:none;stroke-opacity:1"
   id="path3292"
   clip-path="none"
   transform="matrix(0.74252105,0,0,0.71945056,-1604.3197,1652.9781)" /><path
   d="m 894.085,476.125 h -0.867 v 2.804 h 0.867 z"
   style="fill:#f9d640;fill-opacity:1;fill-rule:nonzero;stroke:#000000;stroke-width:0.342046;stroke-linecap:butt;stroke-linejoin:miter;stroke-miterlimit:10;stroke-dasharray:none;stroke-opacity:1"
   id="path3294"
   clip-path="none"
   transform="matrix(0.74252105,0,0,0.71945056,-1604.3197,1652.9781)" /><path
   d="m 866.87,474.789 h -0.867 v 0.605 h 0.867 z"
   style="fill:#939598;fill-opacity:1;fill-rule:nonzero;stroke:#000000;stroke-width:0.342046;stroke-linecap:butt;stroke-linejoin:miter;stroke-miterlimit:10;stroke-dasharray:none;stroke-opacity:1"
   id="path3296"
   clip-path="none"
   transform="matrix(0.74252105,0,0,0.71945056,-1604.3197,1652.9781)" /><path
   d="m 868.382,474.789 h -0.867 v 0.605 h 0.867 z"
   style="fill:#939598;fill-opacity:1;fill-rule:nonzero;stroke:#000000;stroke-width:0.342046;stroke-linecap:butt;stroke-linejoin:miter;stroke-miterlimit:10;stroke-dasharray:none;stroke-opacity:1"
   id="path3298"
   clip-path="none"
   transform="matrix(0.74252105,0,0,0.71945056,-1604.3197,1652.9781)" /><path
   d="m 869.894,474.789 h -0.867 v 0.605 h 0.867 z"
   style="fill:#939598;fill-opacity:1;fill-rule:nonzero;stroke:#000000;stroke-width:0.342046;stroke-linecap:butt;stroke-linejoin:miter;stroke-miterlimit:10;stroke-dasharray:none;stroke-opacity:1"
   id="path3300"
   clip-path="none"
   transform="matrix(0.74252105,0,0,0.71945056,-1604.3197,1652.9781)" /><path
   d="m 871.406,474.789 h -0.867 v 0.605 h 0.867 z"
   style="fill:#939598;fill-opacity:1;fill-rule:nonzero;stroke:#000000;stroke-width:0.342046;stroke-linecap:butt;stroke-linejoin:miter;stroke-miterlimit:10;stroke-dasharray:none;stroke-opacity:1"
   id="path3302"
   clip-path="none"
   transform="matrix(0.74252105,0,0,0.71945056,-1604.3197,1652.9781)" /><path
   d="m 872.918,474.789 h -0.867 v 0.605 h 0.867 z"
   style="fill:#939598;fill-opacity:1;fill-rule:nonzero;stroke:#000000;stroke-width:0.342046;stroke-linecap:butt;stroke-linejoin:miter;stroke-miterlimit:10;stroke-dasharray:none;stroke-opacity:1"
   id="path3304"
   clip-path="none"
   transform="matrix(0.74252105,0,0,0.71945056,-1604.3197,1652.9781)" /><path
   d="m 874.43,474.789 h -0.867 v 0.605 h 0.867 z"
   style="fill:#939598;fill-opacity:1;fill-rule:nonzero;stroke:#000000;stroke-width:0.342046;stroke-linecap:butt;stroke-linejoin:miter;stroke-miterlimit:10;stroke-dasharray:none;stroke-opacity:1"
   id="path3306"
   clip-path="none"
   transform="matrix(0.74252105,0,0,0.71945056,-1604.3197,1652.9781)" /><path
   d="m 875.942,474.789 h -0.867 v 0.605 h 0.867 z"
   style="fill:#939598;fill-opacity:1;fill-rule:nonzero;stroke:#000000;stroke-width:0.342046;stroke-linecap:butt;stroke-linejoin:miter;stroke-miterlimit:10;stroke-dasharray:none;stroke-opacity:1"
   id="path3308"
   clip-path="none"
   transform="matrix(0.74252105,0,0,0.71945056,-1604.3197,1652.9781)" /><path
   d="m 877.454,474.789 h -0.867 v 0.605 h 0.867 z"
   style="fill:#939598;fill-opacity:1;fill-rule:nonzero;stroke:#000000;stroke-width:0.342046;stroke-linecap:butt;stroke-linejoin:miter;stroke-miterlimit:10;stroke-dasharray:none;stroke-opacity:1"
   id="path3310"
   clip-path="none"
   transform="matrix(0.74252105,0,0,0.71945056,-1604.3197,1652.9781)" /><path
   d="m 878.966,474.789 h -0.867 v 0.605 h 0.867 z"
   style="fill:#939598;fill-opacity:1;fill-rule:nonzero;stroke:#000000;stroke-width:0.342046;stroke-linecap:butt;stroke-linejoin:miter;stroke-miterlimit:10;stroke-dasharray:none;stroke-opacity:1"
   id="path3312"
   clip-path="none"
   transform="matrix(0.74252105,0,0,0.71945056,-1604.3197,1652.9781)" /><path
   d="m 880.478,474.789 h -0.867 v 0.605 h 0.867 z"
   style="fill:#939598;fill-opacity:1;fill-rule:nonzero;stroke:#000000;stroke-width:0.342046;stroke-linecap:butt;stroke-linejoin:miter;stroke-miterlimit:10;stroke-dasharray:none;stroke-opacity:1"
   id="path3314"
   clip-path="none"
   transform="matrix(0.74252105,0,0,0.71945056,-1604.3197,1652.9781)" /><path
   d="m 881.99,474.789 h -0.867 v 0.605 h 0.867 z"
   style="fill:#939598;fill-opacity:1;fill-rule:nonzero;stroke:#000000;stroke-width:0.342046;stroke-linecap:butt;stroke-linejoin:miter;stroke-miterlimit:10;stroke-dasharray:none;stroke-opacity:1"
   id="path3316"
   clip-path="none"
   transform="matrix(0.74252105,0,0,0.71945056,-1604.3197,1652.9781)" /><path
   d="m 883.502,474.789 h -0.867 v 0.605 h 0.867 z"
   style="fill:#939598;fill-opacity:1;fill-rule:nonzero;stroke:#000000;stroke-width:0.342046;stroke-linecap:butt;stroke-linejoin:miter;stroke-miterlimit:10;stroke-dasharray:none;stroke-opacity:1"
   id="path3318"
   clip-path="none"
   transform="matrix(0.74252105,0,0,0.71945056,-1604.3197,1652.9781)" /><path
   d="m 885.014,474.789 h -0.867 v 0.605 h 0.867 z"
   style="fill:#939598;fill-opacity:1;fill-rule:nonzero;stroke:#000000;stroke-width:0.342046;stroke-linecap:butt;stroke-linejoin:miter;stroke-miterlimit:10;stroke-dasharray:none;stroke-opacity:1"
   id="path3320"
   clip-path="none"
   transform="matrix(0.74252105,0,0,0.71945056,-1604.3197,1652.9781)" /><path
   d="m 886.526,474.789 h -0.867 v 0.605 h 0.867 z"
   style="fill:#939598;fill-opacity:1;fill-rule:nonzero;stroke:#000000;stroke-width:0.342046;stroke-linecap:butt;stroke-linejoin:miter;stroke-miterlimit:10;stroke-dasharray:none;stroke-opacity:1"
   id="path3322"
   clip-path="none"
   transform="matrix(0.74252105,0,0,0.71945056,-1604.3197,1652.9781)" /><path
   d="m 888.038,474.789 h -0.867 v 0.605 h 0.867 z"
   style="fill:#939598;fill-opacity:1;fill-rule:nonzero;stroke:#000000;stroke-width:0.342046;stroke-linecap:butt;stroke-linejoin:miter;stroke-miterlimit:10;stroke-dasharray:none;stroke-opacity:1"
   id="path3324"
   clip-path="none"
   transform="matrix(0.74252105,0,0,0.71945056,-1604.3197,1652.9781)" /><path
   d="m 889.549,474.789 h -0.867 v 0.605 h 0.867 z"
   style="fill:#939598;fill-opacity:1;fill-rule:nonzero;stroke:#000000;stroke-width:0.342046;stroke-linecap:butt;stroke-linejoin:miter;stroke-miterlimit:10;stroke-dasharray:none;stroke-opacity:1"
   id="path3326"
   clip-path="none"
   transform="matrix(0.74252105,0,0,0.71945056,-1604.3197,1652.9781)" /><path
   d="m 891.061,474.789 h -0.867 v 0.605 h 0.867 z"
   style="fill:#939598;fill-opacity:1;fill-rule:nonzero;stroke:#000000;stroke-width:0.342046;stroke-linecap:butt;stroke-linejoin:miter;stroke-miterlimit:10;stroke-dasharray:none;stroke-opacity:1"
   id="path3328"
   clip-path="none"
   transform="matrix(0.74252105,0,0,0.71945056,-1604.3197,1652.9781)" /><path
   d="m 892.573,474.789 h -0.867 v 0.605 h 0.867 z"
   style="fill:#939598;fill-opacity:1;fill-rule:nonzero;stroke:#000000;stroke-width:0.342046;stroke-linecap:butt;stroke-linejoin:miter;stroke-miterlimit:10;stroke-dasharray:none;stroke-opacity:1"
   id="path3330"
   clip-path="none"
   transform="matrix(0.74252105,0,0,0.71945056,-1604.3197,1652.9781)" /><path
   d="m 894.085,474.789 h -0.867 v 0.605 h 0.867 z"
   style="fill:#939598;fill-opacity:1;fill-rule:nonzero;stroke:#000000;stroke-width:0.342046;stroke-linecap:butt;stroke-linejoin:miter;stroke-miterlimit:10;stroke-dasharray:none;stroke-opacity:1"
   id="path3332"
   clip-path="none"
   transform="matrix(0.74252105,0,0,0.71945056,-1604.3197,1652.9781)" />








<style
   type="text/css"
   id="style1-5">
	.st0{fill:none;stroke:#000;stroke-width:2;}
	.st1{fill:#fff;stroke:#000;stroke-width:2;stroke-linejoin:round;}
	.st2{font-family:Liberation Sans,Arial;}
	.st3{font-size:17px;}
</style>










<!-- Outer cylindrical part --><!-- Inner optical port --><!-- Optical emitter (glowing red light) --><!-- Connector back end --><!-- Detail lines for depth --><!-- Device Panel --><!-- TOSLINK Port Cutout --><!-- Inner Optical Port --><!-- Optical Emitter (glowing red light) --><!-- Protective Cover --><!-- Detail Lines for Depth --></g><metadata
     id="metadata1"><rdf:RDF><cc:Work
         rdf:about=""><dc:title>Open Connector Graphics</dc:title><dc:date>03/04/2025</dc:date><dc:creator><cc:Agent><dc:title>Wikke Andeweg</dc:title></cc:Agent></dc:creator><dc:rights><cc:Agent><dc:title>Creative Commons Attribution 4.0 International</dc:title></cc:Agent></dc:rights><dc:source>https://github.com/WyzzyMoon/OpenConnectorGraphics</dc:source></cc:Work></rdf:RDF></metadata></svg>
