<?xml version="1.0" encoding="UTF-8" standalone="no"?>
<!-- Created with Inkscape (http://www.inkscape.org/) -->

<svg
   version="1.1"
   id="svg2"
   width="37.821617"
   height="219.83629"
   viewBox="0 0 37.821618 219.83629"
   xml:space="preserve"
   xmlns="http://www.w3.org/2000/svg"
   xmlns:svg="http://www.w3.org/2000/svg"
   xmlns:rdf="http://www.w3.org/1999/02/22-rdf-syntax-ns#"
   xmlns:cc="http://creativecommons.org/ns#"
   xmlns:dc="http://purl.org/dc/elements/1.1/"><title
     id="title1">Open Connector Graphics</title><defs
     id="defs6"><linearGradient
       id="linearGradient5590"><stop
         id="stop5592"
         offset="0"
         style="stop-color:#a91616;stop-opacity:1;" /></linearGradient><linearGradient
       id="linearGradient5660"><stop
         id="stop5662"
         offset="0"
         style="stop-color:#000000;stop-opacity:1;" /></linearGradient><style
       type="text/css"
       id="style1">
	.st0{fill:none;stroke:#000000;stroke-width:7;stroke-miterlimit:10;}
	.st1{fill:none;stroke:#000000;stroke-width:3;stroke-miterlimit:10;}
	.st2{fill:none;stroke:#000000;stroke-width:4;stroke-miterlimit:10;}
</style></defs><g
     id="g2466"
     transform="matrix(1.3333333,0,0,-1.3333333,2109.0253,2611.0994)"
     style="display:inline"><path
   d="m -1556.769,1927.9756 h -21.6772 v 29.9573 h 21.6772 z"
   style="fill:#d1d3d4;fill-opacity:1;fill-rule:nonzero;stroke:#000000;stroke-width:0.750001;stroke-dasharray:none;stroke-opacity:1"
   id="path2542"
   clip-path="none" /><path
   d="m -1556.769,1927.9756 h -21.6772 v 29.9573 h 21.6772 z"
   style="fill:none;stroke:#000000;stroke-width:0.750001;stroke-linecap:butt;stroke-linejoin:miter;stroke-miterlimit:10;stroke-dasharray:none;stroke-opacity:1"
   id="path2546"
   clip-path="none" /><path
   d="m -1567.6077,1957.933 v -4.8097 h 1.8778 v -4.3637 h -1.8778 v -13.7783 h 1.8778 v -4.4281 h -1.8778 v -2.5775"
   style="fill:none;stroke:#000000;stroke-width:0.750001;stroke-linecap:butt;stroke-linejoin:miter;stroke-miterlimit:10;stroke-dasharray:none;stroke-opacity:1"
   id="path2722"
   clip-path="none" /><path
   d="m -1560.4633,1927.9756 h -14.2107 v 29.9573 h 14.2107 z"
   style="fill:none;stroke:#000000;stroke-width:0.750001;stroke-linecap:butt;stroke-linejoin:miter;stroke-miterlimit:10;stroke-dasharray:none;stroke-opacity:1"
   id="path2726"
   clip-path="none" /><path
   d="m -1553.4344,1926.7975 v 4.7072 h -28.3422 v 0 0 -29.6966 l 5.9986,-19.619 h 8.1703 v 0 0 h 8.1704 l 5.9985,19.619 v 29.2327 -4.6986 z"
   style="fill:#1a1a1a;fill-opacity:1;fill-rule:nonzero;stroke:none;stroke-width:0.999999"
   id="path2730"
   clip-path="none" /><path
   d="m -1570.6144,1895.3302 c 0,-0.9257 0.2717,-1.918 0.8439,-2.6451 0.4403,-0.56 1.1272,-0.9751 1.827,-1.1078 0.542,-0.1032 1.1902,-0.052 1.6319,0.2797 0.7486,0.5621 0.7995,1.6943 1.2297,2.5253 0.4259,0.8239 0.3793,0.9027 0.8131,1.001 0.3563,0.08 0.7779,-0.1757 1.0368,-0.4331 0.1964,-0.195 0.2803,-0.4854 0.3513,-0.7536 0.054,-0.2051 0.082,-0.4245 0.051,-0.6346 -0.052,-0.347 -0.1125,-0.7586 -0.3857,-0.9787 -0.3155,-0.2545 -1.2003,-0.1964 -1.2003,-0.1964 v -1.7833 c 0,0 1.3917,-0.1412 1.9553,0.1929 0.4582,0.2718 0.7141,0.8203 0.9006,1.3193 0.1627,0.4345 0.2036,0.9207 0.1599,1.3824 -0.078,0.8275 -0.2933,1.6829 -0.7472,2.3798 -0.3506,0.5378 -0.8618,1.0053 -1.4469,1.2698 -0.4008,0.1814 -0.9579,0.185 -1.3114,0.1692 -0.3535,-0.016 -1.1494,-0.4273 -1.4061,-1.0862 -0.256,-0.6561 -0.3571,-1.8141 -0.788,-2.4106 -0.2316,-0.3213 -0.3771,-0.4159 -0.7729,-0.4274 -0.3865,-0.011 -0.8884,0.3894 -1.1085,0.7077 -0.2044,0.2961 -0.2259,0.664 -0.1922,1.0225 0.03,0.3284 0.119,0.7787 0.3929,0.9077 0.2732,0.1284 0.8712,0.1327 0.8712,0.1327 v 1.6462 c -1.4154,0 -1.6119,-0.1505 -2.141,-0.6854 -0.441,-0.4453 -0.5657,-1.1673 -0.5643,-1.794 m -1.3114,17.9906 c 0,-0.6353 0.4029,-1.1709 0.9694,-1.3695 v -2.0449 c 0,-0.6525 0.3606,-1.3351 0.7801,-1.7703 0,-7e-4 0,7e-4 0,0 0.01,-0.01 3.2417,-3.1362 3.2417,-3.1362 0.1979,-0.2467 0.3363,-0.5686 0.3441,-0.9006 v -1.8686 c -0.1233,-0.5191 -0.2602,-1.0568 -0.5112,-1.4046 -0.2316,-0.3212 -0.3771,-0.4144 -0.7729,-0.4259 -0.3865,-0.011 -0.8884,0.3901 -1.1085,0.7077 -0.2044,0.2968 -0.2259,0.6625 -0.1922,1.021 0.03,0.3284 0.119,0.7794 0.3929,0.9078 0.2732,0.1283 0.8712,0.1348 0.8712,0.1348 v 1.6441 c -1.4154,0 -1.6119,-0.1506 -2.141,-0.6855 -0.441,-0.4452 -0.5657,-1.1658 -0.5643,-1.7918 0,-0.9257 0.2739,-1.918 0.8461,-2.6458 0.4402,-0.5593 1.125,-0.9766 1.8248,-1.1092 0.542,-0.1033 1.1902,-0.05 1.6319,0.2818 0.7486,0.5621 0.7995,1.6921 1.2297,2.5232 0.4259,0.8238 0.3793,0.9041 0.8131,1.0023 0.3563,0.081 0.7779,-0.1771 1.0368,-0.4345 0.1964,-0.195 0.2803,-0.4854 0.3513,-0.7535 0.054,-0.2051 0.082,-0.4245 0.051,-0.6346 -0.052,-0.347 -0.1125,-0.7586 -0.3857,-0.9787 -0.3155,-0.2546 -1.2003,-0.1965 -1.2003,-0.1965 v -1.7832 c 0,0 1.3917,-0.1413 1.9553,0.1929 0.4582,0.2717 0.7141,0.8202 0.9006,1.3193 0.162,0.4345 0.2036,0.9206 0.1599,1.3824 -0.078,0.8281 -0.2933,1.6828 -0.7472,2.3797 -0.3506,0.5378 -0.8618,1.0075 -1.4469,1.2713 -0.4008,0.1814 -0.9579,0.1836 -1.3114,0.1678 -0.1728,-0.01 -0.4503,-0.1097 -0.7206,-0.2897 0,1.2684 0,2.6049 0,3.7099 0.01,0.3312 0.1462,0.6524 0.3441,0.8984 0,0 3.413,3.0674 3.4238,3.0767 0.5822,0.6037 0.6001,1.2333 0.6059,1.5279 v 2.2579 h 0.9694 v 2.9111 h -2.9104 v -2.9111 h 0.9694 v -2.2851 c -0.01,-0.332 -0.1355,-0.6554 -0.3327,-0.902 l -3.0695,-2.658 0.01,10.9388 h 0.9702 l -1.4556,2.5217 -1.4555,-2.5217 h 0.9694 v -14.5812 l -3.0566,2.9598 c -0.1972,0.2467 -0.332,0.5708 -0.3399,0.9027 0,1.343 8e-4,1.7782 0,2.0722 0.5672,0.1986 0.9694,0.7342 0.9694,1.3695 0,0.8045 -0.651,1.4556 -1.4555,1.4556 -0.8045,0 -1.4548,-0.6511 -1.4548,-1.4556 z m 0.9902,5.4759 c -0.056,-0.4016 -0.2596,-0.8217 -0.6582,-0.9759 -0.4238,-0.1922 -0.7522,-0.1326 -0.7522,-0.1326 v 0.7664 c 0,0 0.5421,0.095 0.7041,0.3277 0.2897,0.3643 0.1341,0.9924 -0.3183,1.1415 -0.4374,0.1778 -0.9192,0.1291 -1.3796,0.1205 -0.3678,-0.03 -0.8238,-0.047 -1.0389,-0.3994 -0.09,-0.1743 -0.1047,-0.3851 -0.067,-0.5743 0.1226,-0.3887 0.1965,-0.4439 0.6948,-0.5887 l -0.011,-0.7134 -3.5026,-0.011 c 0,0 0,2.7505 -0.01,2.8057 h 0.7335 l -0.01,-1.9804 h 1.8018 c 0,0 -0.2631,0.2789 -0.2839,0.4395 -0.1255,0.2803 -0.1219,0.6001 -0.075,0.8977 0.1154,0.4567 0.555,0.7421 0.9945,0.831 0.5005,0.1212 1.0174,0.1025 1.5272,0.092 0.4783,-0.044 1.0017,-0.1527 1.328,-0.5371 0.2574,-0.3198 0.3291,-0.598 0.3269,-1.1429 0,-0.1663 0,-0.2438 -0.01,-0.3649 z"
   style="fill:#ffffff;fill-opacity:1;fill-rule:nonzero;stroke:none;stroke-width:0.999999"
   id="path4136"
   clip-path="none" /><rect
   style="fill:#1a1a1a;fill-opacity:1;stroke:none;stroke-width:0.750001;stroke-dasharray:none"
   id="rect171"
   width="12.849434"
   height="90.527069"
   x="-1574.0322"
   y="-1883.9529"
   transform="scale(1,-1)"
   clip-path="none" />








<style
   type="text/css"
   id="style1-5">
	.st0{fill:none;stroke:#000;stroke-width:2;}
	.st1{fill:#fff;stroke:#000;stroke-width:2;stroke-linejoin:round;}
	.st2{font-family:Liberation Sans,Arial;}
	.st3{font-size:17px;}
</style>










<!-- Outer cylindrical part --><!-- Inner optical port --><!-- Optical emitter (glowing red light) --><!-- Connector back end --><!-- Detail lines for depth --><!-- Device Panel --><!-- TOSLINK Port Cutout --><!-- Inner Optical Port --><!-- Optical Emitter (glowing red light) --><!-- Protective Cover --><!-- Detail Lines for Depth --></g><metadata
     id="metadata1"><rdf:RDF><cc:Work
         rdf:about=""><dc:title>Open Connector Graphics</dc:title><dc:date>03/04/2025</dc:date><dc:creator><cc:Agent><dc:title>Wikke Andeweg</dc:title></cc:Agent></dc:creator><dc:rights><cc:Agent><dc:title>Creative Commons Attribution 4.0 International</dc:title></cc:Agent></dc:rights><dc:source>https://github.com/WyzzyMoon/OpenConnectorGraphics</dc:source></cc:Work></rdf:RDF></metadata></svg>
